# Blender 4.3.2
# www.blender.org
mtllib Breadcrumb_Collection.mtl
o Breadcrumb_Collection
v 0.002546 0.026693 -0.142166
v 0.025792 0.090589 -0.109176
v 0.106732 0.060395 -0.119612
v 0.104707 -0.002836 -0.090789
v 0.133594 0.019000 -0.030629
v 0.112874 0.067635 0.020700
v 0.081569 0.006384 0.039508
v 0.015595 0.088154 0.016296
v 0.002679 0.043152 0.056348
v 0.047202 0.104154 -0.037335
v -0.040535 0.084924 -0.029047
v -0.067270 0.043280 -0.018460
v -0.036741 -0.000607 0.014447
v -0.026516 -0.000044 -0.102745
v -0.039121 0.073914 -0.098774
v 0.048857 0.151275 -0.036513
v 0.025804 0.186374 0.026320
v 0.077687 0.131620 0.069703
v 0.057754 0.068807 0.047560
v 0.017984 0.056780 0.104166
v -0.041208 0.090332 0.132449
v -0.067148 0.044068 0.084780
v -0.087429 0.148026 0.065825
v -0.124172 0.101603 0.048765
v -0.026973 0.166454 0.077519
v -0.075690 0.182110 0.003236
v -0.094119 0.153528 -0.034240
v -0.103317 0.093102 -0.019918
v 0.002953 0.127170 -0.057134
v -0.013698 0.194481 -0.028212
v 0.062037 0.092057 -0.181929
v 0.114795 0.142018 -0.161146
v 0.168380 0.074001 -0.152527
v 0.133571 0.030627 -0.110813
v 0.183609 0.105526 -0.039399
v 0.169078 0.050405 -0.053553
v 0.155641 0.120255 -0.000259
v 0.117465 0.084767 0.009218
v 0.103739 0.178807 -0.041240
v 0.068991 0.158904 0.005586
v 0.139519 0.161840 -0.091869
v 0.054482 0.191921 -0.092414
v 0.009922 0.173753 -0.076752
v 0.012942 0.131207 -0.030690
v 0.022980 0.095086 -0.142195
v 0.050574 0.163403 -0.156886
v -0.155598 0.000331 -0.124113
v -0.152341 0.059636 -0.170843
v -0.087970 0.017475 -0.211473
v -0.043242 0.002335 -0.160451
v -0.001070 0.056396 -0.175602
v -0.010647 0.129453 -0.175983
v 0.007566 0.113507 -0.108904
v -0.089684 0.157526 -0.122421
v -0.055062 0.164172 -0.071890
v -0.104951 0.119275 -0.171768
v -0.151409 0.131487 -0.095421
v -0.143969 0.120013 -0.046697
v -0.083962 0.113214 -0.029551
v -0.141180 0.020620 -0.074174
v -0.183206 0.070516 -0.111439
v -0.139566 0.171519 -0.065676
v -0.117235 0.235659 -0.098825
v -0.107846 0.188722 -0.171493
v -0.067239 0.135791 -0.151935
v -0.009045 0.165267 -0.177918
v 0.026985 0.227783 -0.162985
v 0.052753 0.180042 -0.116700
v 0.002631 0.265157 -0.074026
v 0.048509 0.234361 -0.046767
v -0.047274 0.261493 -0.114366
v -0.049573 0.262203 -0.024197
v -0.035064 0.230280 0.012292
v 0.010766 0.190408 -0.003546
v -0.100721 0.161091 -0.027000
v -0.114309 0.234870 -0.031070
v -0.103523 0.098527 0.120771
v -0.168531 0.060664 0.113578
v -0.119775 -0.010351 0.101261
v -0.076494 0.007912 0.050014
v -0.114516 -0.024426 0.000626
v -0.183376 -0.015584 -0.024059
v -0.144090 0.030353 -0.061901
v -0.220994 0.073399 -0.000170
v -0.200866 0.097856 -0.053017
v -0.205777 0.037840 0.051165
v -0.211546 0.127734 0.046471
v -0.185115 0.164203 0.023397
v -0.153447 0.146193 -0.027728
v -0.102782 0.134047 0.077745
v -0.172423 0.127860 0.105246
v 0.032530 0.244160 0.042889
v -0.012578 0.269041 0.098185
v 0.004926 0.194229 0.139035
v -0.010305 0.145558 0.091788
v -0.073278 0.132052 0.119763
v -0.133782 0.172794 0.130187
v -0.140012 0.146971 0.064006
v -0.134993 0.254094 0.072805
v -0.165107 0.224092 0.028204
v -0.085380 0.252783 0.113648
v -0.090711 0.297035 0.035228
v -0.092866 0.283521 -0.013493
v -0.115635 0.226055 -0.024458
v -0.000937 0.238311 -0.001374
v -0.020197 0.299338 0.037986
v 0.037216 0.215553 0.064542
v 0.070476 0.276427 0.034550
v 0.006547 0.275832 -0.024481
v 0.007917 0.211094 -0.049782
v 0.044137 0.229669 -0.106998
v 0.110910 0.259091 -0.117248
v 0.122018 0.188740 -0.113650
v 0.169671 0.248193 -0.037674
v 0.191823 0.194945 -0.059356
v 0.116902 0.282817 -0.025511
v 0.166321 0.235631 0.033375
v 0.175309 0.186475 0.041365
v 0.167858 0.149314 -0.008681
v 0.074231 0.174313 0.058012
v 0.109417 0.238464 0.075075
v 0.033203 0.107496 0.162383
v 0.107045 0.123097 0.166310
v 0.090124 0.191054 0.114662
v 0.056457 0.162936 0.060727
v 0.167744 0.146323 0.037215
v 0.113725 0.161792 0.020111
v 0.179234 0.101815 0.016769
v 0.136311 0.080550 -0.005859
v 0.176922 0.051831 0.089555
v 0.162536 0.012418 0.044435
v 0.163368 0.108247 0.117210
v 0.138675 0.026120 0.145170
v 0.107454 -0.009760 0.127881
v 0.096837 -0.008612 0.066018
v 0.030325 0.058218 0.136366
v 0.089332 0.059751 0.182844
v -0.142321 0.093872 0.130719
v -0.081371 0.086721 0.086614
v -0.089718 0.000843 0.097892
v -0.092078 -0.006677 0.166964
v -0.024418 -0.024888 0.171560
v 0.038503 0.009684 0.154977
v 0.023089 0.030176 0.221520
v 0.026703 0.108218 0.147532
v 0.040309 0.115940 0.207126
v -0.008276 0.075325 0.104802
v -0.024485 0.158053 0.136891
v -0.037852 0.177097 0.181831
v -0.022563 0.141934 0.231538
v -0.124128 0.120839 0.176054
v -0.090653 0.147862 0.114462
vn -0.2208 -0.2126 -0.9519
vn -0.0430 0.8326 -0.5523
vn 0.6455 0.3410 -0.6834
vn 0.5069 -0.7629 -0.4014
vn 0.9409 -0.3261 0.0911
vn 0.6820 0.4915 0.5416
vn 0.3578 -0.6058 0.7107
vn -0.1677 0.8291 0.5334
vn -0.2760 0.1041 0.9555
vn 0.1437 0.9893 0.0241
vn -0.5710 0.8054 0.1591
vn -0.9779 0.0613 0.2001
vn -0.5459 -0.7094 0.4458
vn -0.5425 -0.7255 -0.4235
vn -0.6940 0.5208 -0.4972
vn 0.7334 0.2107 -0.6463
vn 0.3773 0.9102 0.1707
vn 0.8774 0.2563 0.4055
vn 0.6695 -0.7282 -0.1466
vn 0.4172 -0.6834 0.5991
vn -0.1773 -0.0223 0.9839
vn -0.3800 -0.8912 0.2479
vn -0.6222 0.6080 0.4932
vn -0.9719 -0.1078 0.2090
vn -0.0433 0.7857 0.6171
vn -0.4959 0.8681 0.0244
vn -0.6621 0.3768 -0.6478
vn -0.5880 -0.5362 -0.6055
vn 0.1664 -0.2722 -0.9478
vn 0.0373 0.8831 -0.4678
vn -0.2909 -0.3210 -0.9013
vn 0.4003 0.5594 -0.7259
vn 0.7228 -0.2278 -0.6524
vn 0.0405 -0.9893 -0.1403
vn 0.9466 0.1391 0.2910
vn 0.5908 -0.7439 0.3125
vn 0.6263 0.2599 0.7350
vn -0.0278 -0.5375 0.8428
vn 0.2879 0.9139 0.2861
vn -0.2175 0.4841 0.8476
vn 0.6264 0.7612 -0.1680
vn -0.0712 0.9912 -0.1120
vn -0.8056 0.5914 0.0355
vn -0.8387 -0.1931 0.5092
vn -0.8367 -0.4417 -0.3240
vn -0.3184 0.6415 -0.6980
vn -0.5690 -0.8223 -0.0107
vn -0.7311 0.0791 -0.6777
vn -0.0938 -0.4532 -0.8865
vn 0.4954 -0.8686 0.0065
vn 0.8523 -0.3104 -0.4210
vn 0.5275 0.5802 -0.6205
vn 0.9246 0.1176 0.3623
vn -0.2224 0.9438 -0.2445
vn 0.2821 0.8581 0.4291
vn -0.3637 0.5833 -0.7263
vn -0.6921 0.7188 -0.0655
vn -0.5915 0.3848 0.7086
vn 0.2095 0.0283 0.9774
vn -0.2549 -0.6564 0.7101
vn -0.9980 0.0634 -0.0050
vn -0.9099 -0.3858 0.1526
vn -0.7127 0.6694 -0.2099
vn -0.6249 0.0366 -0.7798
vn -0.1461 -0.9199 -0.3639
vn 0.3089 -0.4715 -0.8260
vn 0.5313 0.4641 -0.7087
vn 0.8696 -0.4770 -0.1277
vn 0.3149 0.9484 0.0360
vn 0.8550 0.3799 0.3530
vn -0.1589 0.9194 -0.3599
vn -0.1068 0.9152 0.3886
vn 0.0210 0.2958 0.9550
vn 0.4885 -0.4631 0.7395
vn -0.3461 -0.6858 0.6402
vn -0.7007 0.5122 0.4966
vn 0.5363 0.2498 0.8062
vn -0.5131 -0.1761 0.8401
vn 0.1264 -0.7223 0.6799
vn 0.9515 -0.3075 -0.0015
vn 0.4562 -0.8279 -0.3262
vn -0.5097 -0.7732 -0.3772
vn 0.3161 -0.1825 -0.9310
vn -0.9905 -0.0350 -0.1327
vn -0.5512 0.2584 -0.7933
vn -0.8509 -0.3856 0.3568
vn -0.9020 0.3547 0.2463
vn -0.3523 0.9350 -0.0399
vn 0.3196 0.7136 -0.6234
vn 0.6974 0.6987 0.1596
vn -0.4041 0.5330 0.7434
vn 0.9722 0.1493 -0.1805
vn 0.3687 0.7157 0.5932
vn 0.6073 -0.0825 0.7902
vn 0.5564 -0.8269 -0.0820
vn -0.0095 -0.8858 0.4639
vn -0.6219 -0.1953 0.7583
vn -0.5661 -0.7912 -0.2313
vn -0.6947 0.6237 0.3584
vn -0.9601 0.1086 -0.2577
vn -0.2251 0.6096 0.7601
vn -0.3289 0.9396 0.0944
vn -0.2215 0.6740 -0.7048
vn -0.2977 -0.2115 -0.9309
vn 0.5563 -0.0861 -0.8265
vn 0.3701 0.9236 -0.1002
vn -0.6619 -0.0954 0.7435
vn -0.1083 0.8616 0.4958
vn -0.7635 0.6457 -0.0111
vn -0.8472 -0.4771 -0.2339
vn -0.5752 -0.0223 -0.8177
vn 0.1870 0.5754 -0.7962
vn 0.1258 -0.5795 -0.8052
vn 0.7766 0.6222 -0.0990
vn 0.9093 -0.1636 -0.3825
vn 0.2719 0.9623 0.0091
vn 0.7159 0.5402 0.4422
vn 0.7251 -0.2888 0.6252
vn 0.4037 -0.9141 0.0364
vn -0.2566 -0.7705 0.5835
vn 0.1963 0.3553 0.9139
vn -0.7621 0.2437 0.5998
vn 0.3308 0.3968 0.8562
vn -0.0384 0.9473 0.3180
vn -0.7584 0.4820 -0.4387
vn 0.7378 0.6131 -0.2824
vn -0.0932 0.6607 -0.7448
vn 0.8326 0.1241 -0.5397
vn -0.0635 -0.1435 -0.9876
vn 0.9423 -0.2380 0.2353
vn 0.5815 -0.7081 -0.4005
vn 0.8300 0.2828 0.4808
vn 0.6398 -0.4082 0.6511
vn 0.0067 -0.9158 0.4015
vn -0.3911 -0.8194 -0.4191
vn -0.9124 -0.3889 0.1277
vn 0.0096 -0.2418 0.9703
vn -0.9719 0.0833 -0.2202
vn -0.1337 0.1505 -0.9795
vn -0.3442 -0.6296 -0.6965
vn -0.5987 -0.6812 0.4214
vn 0.1015 -0.9732 0.2065
vn 0.8103 -0.5187 -0.2728
vn 0.4267 -0.3987 0.8118
vn 0.8028 0.3755 -0.4632
vn 0.8420 0.3811 0.3818
vn 0.4762 0.0538 -0.8777
vn 0.3919 0.7289 -0.5614
vn 0.0343 0.9858 0.1645
vn -0.0088 0.4382 0.8989
vn -0.7835 0.3485 0.5145
vn -0.3331 0.7309 -0.5957
vt 0.003921 0.811712
vt 0.003564 0.720754
vt 0.105468 0.720754
vt 0.059850 0.173773
vt 0.100853 0.275192
vt 0.003564 0.175531
vt 0.144201 0.117692
vt 0.191716 0.110705
vt 0.155584 0.212171
vt 0.211853 0.139952
vt 0.237405 0.194663
vt 0.237405 0.075184
vt 0.153054 0.084225
vt 0.096906 0.822966
vt 0.171408 0.056639
vt 0.149179 0.003564
vt 0.115010 0.075868
vt 0.112454 0.044543
vt 0.053005 0.099004
vt 0.028613 0.013390
vt 0.103949 0.144259
vt 0.120189 0.381437
vt 0.112240 0.290826
vt 0.213789 0.282320
vt 0.445023 0.423922
vt 0.486904 0.345652
vt 0.475787 0.457074
vt 0.352528 0.400154
vt 0.294196 0.351569
vt 0.419805 0.344076
vt 0.341245 0.311724
vt 0.389820 0.281171
vt 0.274918 0.281171
vt 0.318952 0.422708
vt 0.213789 0.384890
vt 0.286827 0.434770
vt 0.271384 0.481871
vt 0.244532 0.392935
vt 0.346879 0.458699
vt 0.326718 0.496536
vt 0.404127 0.468416
vt 0.411772 0.536397
vt 0.400874 0.412072
vt 0.097164 0.285773
vt 0.105113 0.376383
vt 0.003564 0.384890
vt 0.344080 0.050743
vt 0.244532 0.049908
vt 0.361061 0.003564
vt 0.367615 0.147450
vt 0.340541 0.195445
vt 0.277841 0.117866
vt 0.302583 0.202341
vt 0.244532 0.187433
vt 0.335206 0.274044
vt 0.401274 0.165350
vt 0.370939 0.227758
vt 0.003564 0.282320
vt 0.429660 0.185342
vt 0.478411 0.165343
vt 0.420630 0.250436
vt 0.416183 0.127506
vt 0.445666 0.129727
vt 0.407737 0.068693
vt 0.484542 0.059949
vt 0.355068 0.098942
vt 0.011512 0.600833
vt 0.003564 0.510222
vt 0.105113 0.501716
vt 0.531822 0.408141
vt 0.502096 0.497147
vt 0.494031 0.378958
vt 0.628960 0.416452
vt 0.702013 0.450276
vt 0.572462 0.486864
vt 0.661967 0.502687
vt 0.618199 0.545737
vt 0.738277 0.519432
vt 0.655374 0.387198
vt 0.105113 0.604286
vt 0.681792 0.364921
vt 0.675745 0.314023
vt 0.738277 0.390248
vt 0.623350 0.362980
vt 0.633365 0.335664
vt 0.566805 0.355021
vt 0.578283 0.281171
vt 0.579205 0.412667
vt 0.120189 0.600833
vt 0.112240 0.510222
vt 0.213789 0.501716
vt 0.533550 0.129245
vt 0.491669 0.207515
vt 0.502786 0.096093
vt 0.626045 0.153013
vt 0.684377 0.201598
vt 0.558768 0.209091
vt 0.637328 0.241443
vt 0.588753 0.271996
vt 0.703655 0.271996
vt 0.659621 0.130459
vt 0.213789 0.604286
vt 0.691746 0.118397
vt 0.707189 0.071296
vt 0.734041 0.160232
vt 0.631694 0.094468
vt 0.651855 0.056631
vt 0.574446 0.084751
vt 0.566801 0.016770
vt 0.577699 0.141095
vt 0.097164 0.395471
vt 0.105113 0.486082
vt 0.003564 0.494588
vt 0.947623 0.141160
vt 0.977349 0.052153
vt 0.985414 0.170343
vt 0.850485 0.132849
vt 0.777432 0.099024
vt 0.906983 0.062437
vt 0.817478 0.046614
vt 0.861246 0.003564
vt 0.741168 0.029869
vt 0.824071 0.162103
vt 0.003564 0.392018
vt 0.797653 0.184380
vt 0.803699 0.235278
vt 0.741168 0.159052
vt 0.856094 0.186321
vt 0.846080 0.213637
vt 0.912639 0.194279
vt 0.901161 0.268130
vt 0.900240 0.136634
vt 0.214144 0.622668
vt 0.214501 0.713626
vt 0.112596 0.713626
vt 0.951859 0.418767
vt 0.981584 0.329761
vt 0.989649 0.447951
vt 0.854720 0.410456
vt 0.781667 0.376632
vt 0.911219 0.340045
vt 0.821713 0.324221
vt 0.865482 0.281171
vt 0.745404 0.307476
vt 0.828307 0.439710
vt 0.121158 0.611414
vt 0.801889 0.461987
vt 0.807935 0.512885
vt 0.745404 0.436660
vt 0.860330 0.463928
vt 0.850315 0.491244
vt 0.916875 0.471887
vt 0.905397 0.545737
vt 0.904476 0.414241
vt 0.120189 0.491135
vt 0.112240 0.400524
vt 0.213789 0.392018
vt 0.280449 0.683701
vt 0.250724 0.772707
vt 0.242658 0.654517
vt 0.377587 0.692011
vt 0.450640 0.725836
vt 0.321089 0.762423
vt 0.410595 0.778247
vt 0.366826 0.821297
vt 0.486904 0.794992
vt 0.404001 0.662757
vt 0.213789 0.494588
vt 0.430419 0.640481
vt 0.424373 0.589583
vt 0.486904 0.665808
vt 0.371978 0.638539
vt 0.381992 0.611223
vt 0.315433 0.630581
vt 0.326910 0.556731
vt 0.327832 0.688227
vt 0.105112 0.622668
vt 0.105468 0.713626
vt 0.003564 0.713626
vt 0.809274 0.655744
vt 0.745404 0.724289
vt 0.787101 0.613868
vt 0.894396 0.702650
vt 0.906671 0.754700
vt 0.813580 0.744240
vt 0.885548 0.784267
vt 0.837086 0.812183
vt 0.953313 0.810927
vt 0.932233 0.692606
vt 0.947639 0.757238
vt 0.012126 0.611414
vt 0.966609 0.691383
vt 0.996436 0.649829
vt 0.996436 0.746455
vt 0.916278 0.649208
vt 0.947448 0.618432
vt 0.862441 0.622252
vt 0.875897 0.552865
vt 0.850429 0.679178
vt 0.214144 0.732008
vt 0.214501 0.822966
vt 0.112596 0.822966
vt 0.700486 0.690461
vt 0.730211 0.601454
vt 0.738277 0.719644
vt 0.603348 0.682150
vt 0.530294 0.648325
vt 0.659846 0.611738
vt 0.570340 0.595915
vt 0.614109 0.552865
vt 0.494031 0.579170
vt 0.576934 0.711404
vt 0.121158 0.720754
vt 0.550516 0.733680
vt 0.556562 0.784579
vt 0.494031 0.708353
vt 0.608957 0.735622
vt 0.598943 0.762938
vt 0.665502 0.743580
vt 0.654024 0.817431
vt 0.653103 0.685935
vt 0.305474 0.549603
vt 0.673099 0.003564
vt 0.984782 0.572669
s 1
usemtl Material2
f 13/1/13 14/2/14 4/3/4
f 1/4/1 4/5/4 14/6/14
f 10/7/10 6/8/6 3/9/3
f 3/9/3 5/10/5 4/11/4
f 5/10/5 6/8/6 7/12/7
f 5/10/5 7/12/7 4/11/4
f 10/7/10 8/13/8 6/8/6
f 4/3/4 7/14/7 13/1/13
f 9/15/9 13/16/13 7/12/7
f 8/13/8 10/7/10 11/17/11
f 12/18/12 15/19/15 14/20/14
f 11/17/11 15/19/15 12/18/12
f 11/17/11 10/7/10 15/19/15
f 15/19/15 1/4/1 14/6/14
f 15/19/15 10/7/10 2/21/2
f 28/22/28 29/23/29 19/24/19
f 16/25/16 19/26/19 29/27/29
f 25/28/25 21/29/21 18/30/18
f 18/30/18 20/31/20 19/32/19
f 20/31/20 21/29/21 22/33/22
f 20/31/20 22/33/22 19/32/19
f 25/28/25 23/34/23 21/29/21
f 19/24/19 22/35/22 28/22/28
f 24/36/24 28/37/28 22/38/22
f 23/34/23 25/28/25 26/39/26
f 27/40/27 30/41/30 29/42/29
f 26/39/26 30/41/30 27/40/27
f 26/39/26 25/28/25 30/41/30
f 30/41/30 16/25/16 29/27/29
f 30/41/30 25/28/25 17/43/17
f 44/44/44 45/45/45 34/46/34
f 31/47/31 34/48/34 45/49/45
f 41/50/41 35/51/35 33/52/33
f 33/52/33 36/53/36 34/54/34
f 36/53/36 38/55/38 34/54/34
f 41/50/41 39/56/39 37/57/37
f 34/46/34 38/58/38 44/44/44
f 40/59/40 44/60/44 38/61/38
f 39/56/39 41/50/41 42/62/42
f 43/63/43 46/64/46 45/65/45
f 42/62/42 46/64/46 43/63/43
f 42/62/42 41/50/41 46/64/46
f 46/64/46 31/47/31 45/49/45
f 46/64/46 41/50/41 32/66/32
f 59/67/59 60/68/60 50/69/50
f 47/70/47 50/71/50 60/72/60
f 56/73/56 52/74/52 49/75/49
f 49/75/49 51/76/51 50/77/50
f 51/76/51 52/74/52 53/78/53
f 51/76/51 53/78/53 50/77/50
f 56/73/56 54/79/54 52/74/52
f 50/69/50 53/80/53 59/67/59
f 55/81/55 59/82/59 53/83/53
f 54/79/54 56/73/56 57/84/57
f 58/85/58 61/86/61 60/87/60
f 57/84/57 61/86/61 58/85/58
f 57/84/57 56/73/56 61/86/61
f 61/86/61 47/70/47 60/72/60
f 61/86/61 56/73/56 48/88/48
f 74/89/74 75/90/75 65/91/65
f 62/92/62 65/93/65 75/94/75
f 71/95/71 67/96/67 64/97/64
f 64/97/64 66/98/66 65/99/65
f 66/98/66 67/96/67 68/100/68
f 66/98/66 68/100/68 65/99/65
f 71/95/71 69/101/69 67/96/67
f 65/91/65 68/102/68 74/89/74
f 70/103/70 74/104/74 68/105/68
f 69/101/69 71/95/71 72/106/72
f 73/107/73 76/108/76 75/109/75
f 72/106/72 76/108/76 73/107/73
f 72/106/72 71/95/71 76/108/76
f 76/108/76 62/92/62 75/94/75
f 76/108/76 71/95/71 63/110/63
f 89/111/89 90/112/90 80/113/80
f 77/114/77 80/115/80 90/116/90
f 86/117/86 82/118/82 79/119/79
f 79/119/79 81/120/81 80/121/80
f 81/120/81 82/118/82 83/122/83
f 81/120/81 83/122/83 80/121/80
f 86/117/86 84/123/84 82/118/82
f 80/113/80 83/124/83 89/111/89
f 85/125/85 89/126/89 83/127/83
f 84/123/84 86/117/86 87/128/87
f 88/129/88 91/130/91 90/131/90
f 87/128/87 91/130/91 88/129/88
f 87/128/87 86/117/86 91/130/91
f 91/130/91 77/114/77 90/116/90
f 91/130/91 86/117/86 78/132/78
f 104/133/104 105/134/105 95/135/95
f 92/136/92 95/137/95 105/138/105
f 101/139/101 97/140/97 94/141/94
f 94/141/94 96/142/96 95/143/95
f 96/142/96 97/140/97 98/144/98
f 96/142/96 98/144/98 95/143/95
f 101/139/101 99/145/99 97/140/97
f 95/135/95 98/146/98 104/133/104
f 100/147/100 104/148/104 98/149/98
f 99/145/99 101/139/101 102/150/102
f 103/151/103 106/152/106 105/153/105
f 102/150/102 106/152/106 103/151/103
f 102/150/102 101/139/101 106/152/106
f 106/152/106 92/136/92 105/138/105
f 106/152/106 101/139/101 93/154/93
f 119/155/119 120/156/120 110/157/110
f 107/158/107 110/159/110 120/160/120
f 116/161/116 112/162/112 109/163/109
f 109/163/109 111/164/111 110/165/110
f 111/164/111 112/162/112 113/166/113
f 111/164/111 113/166/113 110/165/110
f 116/161/116 114/167/114 112/162/112
f 110/157/110 113/168/113 119/155/119
f 115/169/115 119/170/119 113/171/113
f 114/167/114 116/161/116 117/172/117
f 118/173/118 121/174/121 120/175/120
f 117/172/117 121/174/121 118/173/118
f 117/172/117 116/161/116 121/174/121
f 121/174/121 107/158/107 120/160/120
f 121/174/121 116/161/116 108/176/108
f 135/177/135 136/178/136 125/179/125
f 122/180/122 125/181/125 136/182/136
f 132/183/132 126/184/126 124/185/124
f 124/185/124 127/186/127 125/187/125
f 127/186/127 129/188/129 125/187/125
f 132/183/132 130/189/130 128/190/128
f 125/179/125 129/191/129 135/177/135
f 131/192/131 135/193/135 129/194/129
f 130/189/130 132/183/132 133/195/133
f 134/196/134 137/197/137 136/198/136
f 133/195/133 137/197/137 134/196/134
f 133/195/133 132/183/132 137/197/137
f 137/197/137 122/180/122 136/182/136
f 137/197/137 132/183/132 123/199/123
f 150/200/150 151/201/151 141/202/141
f 138/203/138 141/204/141 151/205/151
f 147/206/147 143/207/143 140/208/140
f 140/208/140 142/209/142 141/210/141
f 142/209/142 143/207/143 144/211/144
f 142/209/142 144/211/144 141/210/141
f 147/206/147 145/212/145 143/207/143
f 141/202/141 144/213/144 150/200/150
f 146/214/146 150/215/150 144/216/144
f 145/212/145 147/206/147 148/217/148
f 149/218/149 152/219/152 151/220/151
f 148/217/148 152/219/152 149/218/149
f 148/217/148 147/206/147 152/219/152
f 152/219/152 138/203/138 151/205/151
f 152/219/152 147/206/147 139/221/139
f 1/4/1 3/9/3 4/5/4
f 1/4/1 2/21/2 3/9/3
f 2/21/2 10/7/10 3/9/3
f 3/9/3 6/8/6 5/10/5
f 7/12/7 6/8/6 9/15/9
f 6/8/6 8/13/8 9/15/9
f 13/16/13 9/15/9 12/18/12
f 26/39/26 27/40/27 24/36/24 23/34/23
f 13/16/13 12/18/12 14/20/14
f 15/19/15 2/21/2 1/4/1
f 16/25/16 18/30/18 19/26/19
f 16/25/16 17/43/17 18/30/18
f 17/43/17 25/28/25 18/30/18
f 18/30/18 21/29/21 20/31/20
f 22/38/22 21/29/21 24/36/24
f 21/29/21 23/34/23 24/36/24
f 28/37/28 24/36/24 27/40/27
f 37/57/37 38/55/38 36/53/36 35/51/35
f 28/222/28 27/40/27 29/42/29
f 30/41/30 17/43/17 16/25/16
f 31/47/31 33/52/33 34/48/34
f 31/47/31 32/66/32 33/52/33
f 32/66/32 41/50/41 33/52/33
f 33/52/33 35/51/35 36/53/36
f 35/51/35 41/50/41 37/57/37
f 42/62/42 43/63/43 40/59/40 39/56/39
f 38/61/38 37/57/37 40/59/40
f 37/57/37 39/56/39 40/59/40
f 44/60/44 40/59/40 43/63/43
f 57/84/57 58/85/58 55/81/55 54/79/54
f 44/60/44 43/63/43 45/65/45
f 46/64/46 32/66/32 31/47/31
f 47/70/47 49/75/49 50/71/50
f 47/70/47 48/88/48 49/75/49
f 48/88/48 56/73/56 49/75/49
f 49/75/49 52/74/52 51/76/51
f 53/83/53 52/74/52 55/81/55
f 52/74/52 54/79/54 55/81/55
f 59/82/59 55/81/55 58/85/58
f 72/106/72 73/107/73 70/103/70 69/101/69
f 59/82/59 58/85/58 60/87/60
f 61/86/61 48/88/48 47/70/47
f 62/92/62 64/97/64 65/93/65
f 62/92/62 63/110/63 64/97/64
f 63/110/63 71/95/71 64/97/64
f 64/97/64 67/96/67 66/98/66
f 68/105/68 67/96/67 70/103/70
f 67/96/67 69/101/69 70/103/70
f 74/104/74 70/103/70 73/107/73
f 87/128/87 88/129/88 85/125/85 84/123/84
f 74/223/74 73/107/73 75/109/75
f 76/108/76 63/110/63 62/92/62
f 77/114/77 79/119/79 80/115/80
f 77/114/77 78/132/78 79/119/79
f 78/132/78 86/117/86 79/119/79
f 79/119/79 82/118/82 81/120/81
f 11/17/11 12/18/12 9/15/9 8/13/8
f 83/127/83 82/118/82 85/125/85
f 82/118/82 84/123/84 85/125/85
f 89/126/89 85/125/85 88/129/88
f 102/150/102 103/151/103 100/147/100 99/145/99
f 89/126/89 88/129/88 90/131/90
f 91/130/91 78/132/78 77/114/77
f 92/136/92 94/141/94 95/137/95
f 92/136/92 93/154/93 94/141/94
f 93/154/93 101/139/101 94/141/94
f 94/141/94 97/140/97 96/142/96
f 98/149/98 97/140/97 100/147/100
f 97/140/97 99/145/99 100/147/100
f 104/148/104 100/147/100 103/151/103
f 117/172/117 118/173/118 115/169/115 114/167/114
f 104/148/104 103/151/103 105/153/105
f 106/152/106 93/154/93 92/136/92
f 107/158/107 109/163/109 110/159/110
f 107/158/107 108/176/108 109/163/109
f 108/176/108 116/161/116 109/163/109
f 109/163/109 112/162/112 111/164/111
f 113/171/113 112/162/112 115/169/115
f 112/162/112 114/167/114 115/169/115
f 119/170/119 115/169/115 118/173/118
f 128/190/128 129/188/129 127/186/127 126/184/126
f 119/170/119 118/173/118 120/175/120
f 121/174/121 108/176/108 107/158/107
f 122/180/122 124/185/124 125/181/125
f 122/180/122 123/199/123 124/185/124
f 123/199/123 132/183/132 124/185/124
f 124/185/124 126/184/126 127/186/127
f 126/184/126 132/183/132 128/190/128
f 133/195/133 134/196/134 131/192/131 130/189/130
f 129/194/129 128/190/128 131/192/131
f 128/190/128 130/189/130 131/192/131
f 135/193/135 131/192/131 134/196/134
f 148/217/148 149/218/149 146/214/146 145/212/145
f 135/224/135 134/196/134 136/198/136
f 137/197/137 123/199/123 122/180/122
f 138/203/138 140/208/140 141/204/141
f 138/203/138 139/221/139 140/208/140
f 139/221/139 147/206/147 140/208/140
f 140/208/140 143/207/143 142/209/142
f 144/216/144 143/207/143 146/214/146
f 143/207/143 145/212/145 146/214/146
f 150/215/150 146/214/146 149/218/149
f 150/215/150 149/218/149 151/220/151
f 152/219/152 139/221/139 138/203/138
