# Blender 4.3.2
# www.blender.org
mtllib brokenfenceotherUV.mtl
o Cube
v 0.123891 1.728781 -0.116057
v 0.123891 0.035581 -0.116057
v 0.123891 1.728781 0.116057
v 0.123891 0.035581 0.116057
v -0.123891 1.728781 -0.116057
v -0.123891 0.035581 -0.116057
v -0.123891 1.728781 0.116057
v -0.123891 0.035581 0.116057
v 0.123891 1.479225 -0.116057
v 0.123891 0.992487 -1.672392
v 0.123891 1.229863 -0.116057
v 0.123891 0.775191 -1.672392
v -0.123891 1.479225 -0.116057
v -0.123891 0.992487 -1.672392
v -0.123891 1.229863 -0.116057
v -0.123891 0.775191 -1.672392
v 0.123891 1.728781 -1.904506
v 0.123891 0.035581 -1.904506
v 0.123891 1.728781 -1.672392
v 0.123891 0.035581 -1.672392
v -0.123891 1.728781 -1.904506
v -0.123891 0.035581 -1.904506
v -0.123891 1.728781 -1.672392
v -0.123891 0.035581 -1.672392
v 0.123891 0.664785 -0.116057
v 0.123891 0.673065 -1.672392
v 0.123891 0.436184 -0.116057
v 0.123725 0.440508 -1.672757
v -0.123891 0.664785 -0.116057
v -0.123891 0.673065 -1.672392
v -0.123891 0.436184 -0.116057
v -0.124056 0.440508 -1.672757
v 0.123891 0.992487 -1.904506
v 0.123891 0.673065 -1.904506
v 0.123891 0.441791 -1.904506
v 0.123891 0.775191 -1.904506
v -0.123978 0.368136 -0.825102
v -0.123891 0.507001 -0.752465
v 0.123810 0.361950 -0.752644
v -0.123891 0.775191 -1.904506
v -0.123891 0.992487 -1.904506
v -0.123891 0.673065 -1.904506
v -0.123891 0.441791 -1.904506
v -0.123891 0.436184 0.116057
v -0.123891 0.664785 0.116057
v -0.123891 1.229863 0.116057
v -0.123891 1.479225 0.116057
v 0.123891 1.479225 0.116057
v 0.123891 1.229863 0.116057
v 0.123891 0.664785 0.116057
v 0.123891 0.436184 0.116057
v -0.123972 0.361950 -0.752644
v 0.123891 0.507001 -0.752465
v 0.123803 0.368136 -0.825102
v 0.111848 1.290031 -1.050329
v -0.111848 1.053011 -0.955097
v 0.134664 1.077702 -0.959290
v -0.134664 1.265340 -1.046136
vn -0.0000 1.0000 -0.0000
vn -0.0000 -0.0000 1.0000
vn -1.0000 -0.0000 -0.0000
vn -0.0000 -1.0000 -0.0000
vn 1.0000 -0.0000 -0.0000
vn -0.0000 -0.0000 -1.0000
vn 0.1011 -0.9788 0.1779
vn -0.9951 -0.0928 0.0329
vn 0.9951 0.0933 -0.0317
vn -0.1009 0.9698 -0.2219
vn -0.0000 -0.9933 0.1158
vn -1.0000 0.0006 0.0001
vn -0.0000 0.0016 -1.0000
vn 1.0000 -0.0006 -0.0001
vn -0.0000 0.9706 -0.2406
vn 1.0000 0.0004 -0.0000
vn 1.0000 -0.0000 0.0007
vn -1.0000 -0.0004 -0.0000
vn -1.0000 -0.0000 -0.0007
vn -0.0000 0.0009 1.0000
vn -0.0000 -0.4635 0.8861
vn -0.0000 0.0012 -1.0000
vn -0.0000 -0.9964 -0.0851
vn -1.0000 0.0007 0.0002
vn -0.0000 0.9841 0.1776
vn 1.0000 -0.0007 -0.0002
vn -0.0000 0.9021 -0.4315
vn 0.9998 -0.0000 0.0194
vn -0.9999 -0.0000 -0.0172
vn -0.0000 -0.9325 0.3612
vn -0.0000 -0.9785 0.2062
vn -0.9999 -0.0000 -0.0144
vn 0.9999 -0.0000 0.0128
vn -0.0000 0.9801 -0.1985
vn 1.0000 -0.0007 -0.0000
vn -1.0000 0.0007 -0.0000
vn -0.0981 0.9117 -0.3989
vn 0.9951 0.0850 -0.0511
vn -0.9951 -0.0856 0.0498
vn 0.0984 -0.9167 0.3874
vt 0.951113 0.240981
vt 0.836989 0.126846
vt 0.951113 0.126842
vt 0.615632 0.895287
vt 0.733218 0.784248
vt 0.632455 0.895287
vt 0.329118 0.004751
vt 0.275107 0.115791
vt 0.270456 0.001652
vt 0.836989 0.488467
vt 0.950993 0.602619
vt 0.836989 0.602607
vt 0.003201 0.117340
vt 0.020007 0.003202
vt 0.020007 0.117341
vt 0.957530 0.240981
vt 0.974352 0.126842
vt 0.974352 0.240981
vt 0.957530 0.247382
vt 0.974339 0.361522
vt 0.957530 0.361522
vt 0.337395 0.007853
vt 0.458379 0.418980
vt 0.332418 0.422511
vt 0.216704 0.542323
vt 0.274875 0.571607
vt 0.957530 0.609080
vt 0.972178 0.723220
vt 0.957530 0.723220
vt 0.070520 0.527334
vt 0.015450 0.586072
vt 0.475286 0.006308
vt 0.583896 0.465870
vt 0.470337 0.463844
vt 0.951113 0.361526
vt 0.836994 0.247387
vt 0.951118 0.247387
vt 0.836989 0.723160
vt 0.886623 0.609020
vt 0.886623 0.723160
vt 0.380274 0.873349
vt 0.324488 0.998344
vt 0.321388 0.874904
vt 0.836989 0.367927
vt 0.951006 0.482066
vt 0.837002 0.482066
vt 0.003200 0.996790
vt 0.052786 0.882654
vt 0.052786 0.996794
vt 0.836989 0.120441
vt 0.886623 0.006301
vt 0.886623 0.120441
vt 0.957530 0.488540
vt 0.972940 0.602679
vt 0.957530 0.602679
vt 0.716395 0.777842
vt 0.830534 0.464941
vt 0.830534 0.777847
vt 0.150607 0.117347
vt 0.192581 0.425643
vt 0.145610 0.430382
vt 0.957530 0.482062
vt 0.973207 0.367999
vt 0.973207 0.482139
vt 0.085480 0.430294
vt 0.107302 0.117347
vt 0.118500 0.430382
vt 0.595855 0.006301
vt 0.709966 0.319388
vt 0.595827 0.319383
vt 0.923746 0.120441
vt 0.951129 0.006301
vt 0.951129 0.120441
vt 0.908156 0.120441
vt 0.923746 0.006301
vt 0.901271 0.006301
vt 0.901271 0.120441
vt 0.132730 0.998350
vt 0.100806 0.882837
vt 0.132730 0.884210
vt 0.078948 0.996796
vt 0.100723 0.996797
vt 0.067419 0.882656
vt 0.067419 0.996795
vt 0.183456 0.882837
vt 0.137581 0.998350
vt 0.137581 0.884210
vt 0.237869 0.996796
vt 0.183539 0.996797
vt 0.266449 0.998345
vt 0.266449 0.878005
vt 0.736227 0.961140
vt 0.763523 0.847077
vt 0.763523 0.961217
vt 0.863651 0.847098
vt 0.856767 0.961238
vt 0.856767 0.847098
vt 0.957530 0.120441
vt 0.984535 0.006301
vt 0.984535 0.120441
vt 0.237869 0.879556
vt 0.078948 0.882656
vt 0.908156 0.006301
vt 0.830534 0.006310
vt 0.716449 0.042433
vt 0.716395 0.006301
vt 0.736227 0.840600
vt 0.875082 0.729560
vt 0.774319 0.840600
vt 0.117228 0.003210
vt 0.117228 0.117350
vt 0.074855 0.117346
vt 0.099551 0.003208
vt 0.047651 0.118893
vt 0.074855 0.003207
vt 0.049201 0.001653
vt 0.150607 0.003208
vt 0.123629 0.117350
vt 0.123629 0.003210
vt 0.183054 0.004757
vt 0.222659 0.004754
vt 0.183054 0.118896
vt 0.219559 0.114242
vt 0.702767 0.895287
vt 0.830535 0.784248
vt 0.729772 0.895287
vt 0.687357 0.895287
vt 0.803530 0.784248
vt 0.649265 0.895287
vt 0.788119 0.784248
vt 0.750027 0.784248
vt 0.967308 0.729658
vt 0.856767 0.840660
vt 0.957530 0.729621
vt 0.716395 0.458525
vt 0.830588 0.042443
vt 0.830534 0.458534
vt 0.146026 0.466013
vt 0.709994 0.771499
vt 0.595855 0.771494
vt 0.094830 0.466013
vt 0.475286 0.772066
vt 0.589426 0.772058
vt 0.337395 0.773749
vt 0.463936 0.772197
vt 0.836989 0.240986
vt 0.716395 0.784248
vt 0.333768 0.115790
vt 0.950993 0.488479
vt 0.003201 0.003201
vt 0.957530 0.126842
vt 0.974339 0.247382
vt 0.463936 0.006301
vt 0.972178 0.609080
vt 0.589426 0.006301
vt 0.836989 0.361526
vt 0.836989 0.609020
vt 0.377174 0.999890
vt 0.950993 0.367927
vt 0.003201 0.882650
vt 0.836989 0.006301
vt 0.972940 0.488540
vt 0.716395 0.464935
vt 0.957530 0.367923
vt 0.709994 0.006306
vt 0.736227 0.847001
vt 0.863652 0.961238
vt 0.957530 0.006301
vt 0.836989 0.729560
vt 0.866545 0.840698
s 0
usemtl Material
f 5/1/1 3/2/1 1/3/1
f 3/4/2 47/5/2 48/6/2
f 7/7/3 13/8/3 47/9/3
f 2/10/4 8/11/4 6/12/4
f 1/13/5 48/14/5 9/15/5
f 5/16/6 9/17/6 13/18/6
f 13/19/2 11/20/2 9/21/2
f 11/22/7 56/23/7 57/24/7
f 56/25/8 13/8/8 58/26/8
f 10/27/6 16/28/6 14/29/6
f 9/15/9 57/30/9 55/31/9
f 13/32/10 55/33/10 58/34/10
f 21/35/1 19/36/1 17/37/1
f 19/38/2 14/39/2 10/40/2
f 23/41/3 41/42/3 14/43/3
f 18/44/4 24/45/4 22/46/4
f 17/47/5 10/48/5 33/49/5
f 21/50/6 33/51/6 41/52/6
f 29/53/2 27/54/2 25/55/2
f 39/56/11 31/57/11 52/58/11
f 31/59/12 38/60/12 52/61/12
f 30/62/13 28/63/13 32/64/13
f 53/65/14 27/66/14 39/67/14
f 29/68/15 53/69/15 38/70/15
f 43/71/6 18/72/6 22/73/6
f 42/74/6 35/75/6 43/71/6
f 41/52/6 36/76/6 40/77/6
f 18/78/16 28/79/16 20/80/16
f 34/81/17 28/79/17 35/82/17
f 33/49/5 12/83/5 36/84/5
f 32/85/18 22/86/18 24/87/18
f 32/85/19 42/88/19 43/89/19
f 14/43/3 40/90/3 16/91/3
f 28/92/20 24/93/20 20/94/20
f 12/95/2 30/96/2 26/97/2
f 31/98/6 2/99/6 6/100/6
f 16/91/3 42/88/3 30/101/3
f 36/84/5 26/102/5 34/81/5
f 40/77/6 34/103/6 42/74/6
f 38/104/21 54/105/21 53/106/21
f 15/107/6 25/108/6 29/109/6
f 27/66/5 4/110/5 2/111/5
f 25/112/5 51/113/5 27/66/5
f 11/114/5 50/115/5 25/112/5
f 9/15/5 49/116/5 11/114/5
f 44/117/3 6/118/3 8/119/3
f 45/120/3 31/59/3 44/117/3
f 46/121/3 29/122/3 45/120/3
f 47/9/3 15/123/3 46/121/3
f 51/124/2 8/125/2 4/126/2
f 50/127/2 44/128/2 51/124/2
f 49/129/2 45/130/2 50/127/2
f 48/6/2 46/131/2 49/129/2
f 39/132/22 38/133/22 53/134/22
f 28/135/23 37/136/23 32/137/23
f 37/138/24 30/101/24 32/85/24
f 38/70/25 26/139/25 30/140/25
f 26/102/26 54/141/26 28/79/26
f 14/142/27 55/33/27 10/143/27
f 55/31/28 12/83/28 10/48/28
f 16/91/29 58/26/29 14/43/29
f 12/144/30 56/23/30 16/145/30
f 5/1/1 7/146/1 3/2/1
f 3/4/2 7/147/2 47/5/2
f 7/7/3 5/148/3 13/8/3
f 2/10/4 4/149/4 8/11/4
f 1/13/5 3/150/5 48/14/5
f 5/16/6 1/151/6 9/17/6
f 13/19/2 15/152/2 11/20/2
f 11/22/31 15/153/31 56/23/31
f 56/25/32 15/123/32 13/8/32
f 10/27/6 12/154/6 16/28/6
f 9/15/33 11/114/33 57/30/33
f 13/32/34 9/155/34 55/33/34
f 21/35/1 23/156/1 19/36/1
f 19/38/2 23/157/2 14/39/2
f 23/41/3 21/158/3 41/42/3
f 18/44/4 20/159/4 24/45/4
f 17/47/5 19/160/5 10/48/5
f 21/50/6 17/161/6 33/51/6
f 29/53/2 31/162/2 27/54/2
f 39/56/11 27/163/11 31/57/11
f 31/59/3 29/122/3 38/60/3
f 30/62/13 26/164/13 28/63/13
f 53/65/5 25/112/5 27/66/5
f 29/68/15 25/165/15 53/69/15
f 43/71/6 35/75/6 18/72/6
f 42/74/6 34/103/6 35/75/6
f 41/52/6 33/51/6 36/76/6
f 18/78/17 35/82/17 28/79/17
f 34/81/35 26/102/35 28/79/35
f 33/49/5 10/48/5 12/83/5
f 32/85/19 43/89/19 22/86/19
f 32/85/36 30/101/36 42/88/36
f 14/43/3 41/42/3 40/90/3
f 28/92/20 32/166/20 24/93/20
f 12/95/2 16/167/2 30/96/2
f 31/98/6 27/168/6 2/99/6
f 16/91/3 40/90/3 42/88/3
f 36/84/5 12/83/5 26/102/5
f 40/77/6 36/76/6 34/103/6
f 38/104/21 37/136/21 54/105/21
f 15/107/6 11/169/6 25/108/6
f 27/66/5 51/113/5 4/110/5
f 25/112/5 50/115/5 51/113/5
f 11/114/5 49/116/5 50/115/5
f 9/15/5 48/14/5 49/116/5
f 44/117/3 31/59/3 6/118/3
f 45/120/3 29/122/3 31/59/3
f 46/121/3 15/123/3 29/122/3
f 47/9/3 13/8/3 15/123/3
f 51/124/2 44/128/2 8/125/2
f 50/127/2 45/130/2 44/128/2
f 49/129/2 46/131/2 45/130/2
f 48/6/2 47/5/2 46/131/2
f 39/132/22 52/170/22 38/133/22
f 28/135/23 54/105/23 37/136/23
f 37/138/12 38/60/12 30/101/12
f 38/70/25 53/69/25 26/139/25
f 26/102/14 53/65/14 54/141/14
f 14/142/37 58/34/37 55/33/37
f 55/31/38 57/30/38 12/83/38
f 16/91/39 56/25/39 58/26/39
f 12/144/40 57/24/40 56/23/40
