# Blender 4.3.2
# www.blender.org
mtllib Chair.mtl
o Cube
v -0.421291 1.082051 0.421291
v -0.421291 1.236019 0.421291
v -0.421291 1.082051 -0.421291
v -0.421291 1.236019 -0.421291
v 0.421291 1.082051 0.421291
v 0.421291 1.236019 0.421291
v 0.421291 1.082051 -0.421291
v 0.421291 1.236019 -0.421291
v 0.000000 1.082051 -0.421291
v 0.000000 1.082051 0.421291
v 0.210646 1.082051 0.421291
v 0.210646 1.082051 -0.421291
v -0.210646 1.082051 -0.421291
v -0.210646 1.082051 0.421291
v -0.421291 1.082051 0.000000
v 0.421291 1.082051 0.000000
v -0.421291 1.082051 0.210646
v 0.421291 1.082051 -0.210646
v -0.421291 1.082051 -0.210646
v 0.421291 1.082051 0.210646
v 0.210646 1.082051 0.210646
v 0.000000 1.082051 0.210646
v -0.210646 1.082051 0.210646
v 0.210646 1.082051 0.000000
v 0.000000 1.082051 0.000000
v -0.210646 1.082051 0.000000
v -0.210646 1.082051 -0.210646
v 0.000000 1.082051 -0.210646
v 0.210646 1.082051 -0.210646
v 0.105323 1.082051 -0.421291
v 0.105323 1.082051 0.421291
v -0.421291 -0.017500 0.210646
v -0.421291 -0.017500 0.421291
v -0.210646 -0.017500 -0.421291
v -0.421291 -0.017500 -0.421291
v 0.421291 -0.017500 -0.210646
v 0.421291 -0.017500 -0.421291
v 0.210646 -0.017500 0.421291
v 0.421291 -0.017500 0.421291
v 0.210646 -0.017500 -0.421291
v 0.210646 -0.017500 0.210646
v -0.210646 -0.017500 0.421291
v -0.210646 -0.017500 0.210646
v -0.421291 -0.017500 -0.210646
v 0.421291 -0.017500 0.210646
v -0.210646 -0.017500 -0.210646
v 0.210646 -0.017500 -0.210646
v -0.421291 1.236019 -0.233939
v 0.421291 1.236019 -0.233939
v -0.421291 2.922618 -0.233939
v -0.421291 2.922618 -0.421291
v 0.421291 2.922618 -0.421291
v 0.421291 2.922618 -0.233939
v 0.167265 1.568816 -0.233939
v 0.275567 1.568816 -0.233939
v 0.167265 2.697151 -0.233939
v 0.275567 2.697151 -0.233939
v 0.167265 1.568816 -0.421291
v 0.275567 1.568816 -0.421291
v 0.275567 2.697151 -0.421291
v 0.167265 2.697151 -0.421291
v -0.041043 1.568816 -0.233939
v 0.067259 1.568816 -0.233939
v -0.041043 2.697151 -0.233939
v 0.067259 2.697151 -0.233939
v -0.041043 2.697151 -0.421291
v 0.067259 2.697151 -0.421291
v -0.041043 1.568816 -0.421291
v 0.067259 1.568816 -0.421291
v -0.245323 1.568816 -0.233939
v -0.137021 1.568816 -0.233939
v -0.245323 2.697151 -0.233939
v -0.137021 2.697151 -0.233939
v -0.245323 2.697151 -0.421291
v -0.137021 2.697151 -0.421291
v -0.245323 1.568816 -0.421291
v -0.137021 1.568816 -0.421291
vn -1.0000 -0.0000 -0.0000
vn -0.0000 -0.0000 -1.0000
vn 1.0000 -0.0000 -0.0000
vn -0.0000 -0.0000 1.0000
vn -0.0000 1.0000 -0.0000
vn -0.0000 -1.0000 -0.0000
vt 0.159343 0.403732
vt 0.103910 0.440215
vt 0.053997 0.440215
vt 0.211903 0.403732
vt 0.336687 0.440215
vt 0.311731 0.440215
vt 0.464118 0.403732
vt 0.519551 0.440215
vt 0.469637 0.440215
vt 0.627544 0.411898
vt 0.727371 0.448381
vt 0.702414 0.448381
vt 0.885278 0.004083
vt 0.835364 0.264628
vt 0.835364 0.004083
vt 0.367164 0.908580
vt 0.211903 0.708926
vt 0.367164 0.708926
vt 0.053997 0.808753
vt 0.004083 0.758839
vt 0.053997 0.758840
vt 0.004083 0.833710
vt 0.004083 0.858667
vt 0.411558 0.440215
vt 0.361644 0.700760
vt 0.361644 0.440215
vt 0.103910 0.808753
vt 0.103910 0.758840
vt 0.103910 0.858667
vt 0.103910 0.908580
vt 0.053997 0.858667
vt 0.053997 0.708926
vt 0.103910 0.708926
vt 0.153824 0.808753
vt 0.153824 0.758840
vt 0.153824 0.858667
vt 0.153824 0.908580
vt 0.153824 0.708926
vt 0.203737 0.833710
vt 0.203737 0.808753
vt 0.203737 0.758840
vt 0.004083 0.700760
vt 0.004083 0.440215
vt 0.419724 0.700760
vt 0.419724 0.440215
vt 0.885278 0.860128
vt 0.835364 0.810214
vt 0.885278 0.810214
vt 0.885278 0.918207
vt 0.835364 0.868294
vt 0.885278 0.868294
vt 0.943357 0.860128
vt 0.893444 0.810214
vt 0.943357 0.810214
vt 0.943357 0.918207
vt 0.893444 0.868294
vt 0.943357 0.868294
vt 0.885278 0.272793
vt 0.835364 0.533338
vt 0.835364 0.272793
vt 0.885278 0.541504
vt 0.835364 0.802048
vt 0.835364 0.541504
vt 0.943357 0.004083
vt 0.893444 0.264628
vt 0.893444 0.004083
vt 0.677458 0.448381
vt 0.627544 0.708926
vt 0.627544 0.448381
vt 0.203737 0.440215
vt 0.153824 0.700760
vt 0.153824 0.440215
vt 0.943357 0.272793
vt 0.893444 0.533338
vt 0.893444 0.272793
vt 0.619378 0.440215
vt 0.569464 0.700760
vt 0.569464 0.440215
vt 0.261817 0.440215
vt 0.211903 0.700760
vt 0.211903 0.440215
vt 0.943357 0.541504
vt 0.893444 0.802048
vt 0.893444 0.541504
vt 0.827199 0.448381
vt 0.777285 0.708926
vt 0.777285 0.448381
vt 0.425243 0.708926
vt 0.375329 0.969471
vt 0.375329 0.708926
vt 0.483323 0.708926
vt 0.433409 0.969471
vt 0.433409 0.708926
vt 0.203737 0.004083
vt 0.203737 0.403732
vt 0.995917 0.479268
vt 0.951523 0.279614
vt 0.995917 0.279614
vt 0.662074 0.324874
vt 0.627544 0.004083
vt 0.662074 0.057509
vt 0.827199 0.004083
vt 0.827199 0.403732
vt 0.785502 0.057509
vt 0.737097 0.057509
vt 0.759839 0.324874
vt 0.737097 0.324874
vt 0.687737 0.324874
vt 0.711434 0.057509
vt 0.711434 0.324874
vt 0.211903 0.004083
vt 0.253600 0.324874
vt 0.302005 0.324874
vt 0.279263 0.057509
vt 0.302005 0.057509
vt 0.351365 0.324874
vt 0.327668 0.057509
vt 0.351365 0.057509
vt 0.411558 0.004083
vt 0.377028 0.324874
vt 0.377028 0.057509
vt 0.419724 0.403732
vt 0.464118 0.004083
vt 0.535882 0.708926
vt 0.491488 0.976291
vt 0.491488 0.708926
vt 0.544048 0.976291
vt 0.588442 0.708926
vt 0.588442 0.976291
vt 0.004083 0.916746
vt 0.029746 0.961140
vt 0.004083 0.961140
vt 0.063574 0.916746
vt 0.037911 0.961140
vt 0.037911 0.916746
vt 0.671938 0.717092
vt 0.627544 0.984457
vt 0.627544 0.717092
vt 0.680104 0.984457
vt 0.724498 0.717092
vt 0.724498 0.984457
vt 0.785223 0.822211
vt 0.810886 0.866605
vt 0.785223 0.866605
vt 0.810886 0.874771
vt 0.785223 0.919165
vt 0.785223 0.874771
vt 0.777058 0.717092
vt 0.732664 0.984457
vt 0.732664 0.717092
vt 0.951523 0.271448
vt 0.995917 0.004083
vt 0.995917 0.271448
vt 0.785223 0.717092
vt 0.810886 0.761486
vt 0.785223 0.761486
vt 0.810886 0.769651
vt 0.785223 0.814046
vt 0.785223 0.769651
vt 0.004083 0.403732
vt 0.411558 0.403732
vt 0.619378 0.403732
vt 0.827199 0.411898
vt 0.885278 0.264628
vt 0.211903 0.908580
vt 0.004083 0.808753
vt 0.411558 0.700760
vt 0.053997 0.908580
vt 0.203737 0.858667
vt 0.053997 0.700760
vt 0.469637 0.700760
vt 0.835364 0.860128
vt 0.835364 0.918207
vt 0.893444 0.860128
vt 0.893444 0.918207
vt 0.885278 0.533338
vt 0.885278 0.802048
vt 0.943357 0.264628
vt 0.677458 0.708926
vt 0.203737 0.700760
vt 0.943357 0.533338
vt 0.619378 0.700760
vt 0.261817 0.700760
vt 0.943357 0.802048
vt 0.827199 0.708926
vt 0.425243 0.969471
vt 0.483323 0.969471
vt 0.159343 0.004083
vt 0.951523 0.479268
vt 0.627544 0.403732
vt 0.687737 0.057509
vt 0.759839 0.057509
vt 0.785502 0.324874
vt 0.327668 0.324874
vt 0.279263 0.324874
vt 0.253600 0.057509
vt 0.419724 0.004083
vt 0.535882 0.976291
vt 0.544048 0.708926
vt 0.029746 0.916746
vt 0.063574 0.961140
vt 0.671938 0.984457
vt 0.680104 0.717092
vt 0.810886 0.822211
vt 0.810886 0.919165
vt 0.777058 0.984457
vt 0.951523 0.004083
vt 0.810886 0.717092
vt 0.810886 0.814046
s 0
f 48/1/1 15/2/1 17/3/1
f 4/4/2 30/5/2 9/6/2
f 49/7/3 16/8/3 18/9/3
f 6/10/4 10/11/4 31/12/4
f 19/13/4 46/14/4 27/15/4
f 48/16/5 6/17/5 49/18/5
f 22/19/6 14/20/6 23/21/6
f 31/22/6 22/19/6 11/23/6
f 7/24/2 40/25/2 12/26/2
f 25/27/6 23/21/6 26/28/6
f 24/29/6 22/19/6 25/27/6
f 16/30/6 21/31/6 24/29/6
f 26/28/6 17/32/6 15/33/6
f 28/34/6 26/28/6 27/35/6
f 29/36/6 25/27/6 28/34/6
f 18/37/6 24/29/6 29/36/6
f 27/35/6 15/33/6 19/38/6
f 30/39/6 29/36/6 9/40/6
f 9/40/6 27/35/6 13/41/6
f 17/3/1 33/42/1 1/43/1
f 18/9/3 37/44/3 7/45/3
f 45/46/6 38/47/6 41/48/6
f 43/49/6 33/50/6 32/51/6
f 34/52/6 44/53/6 35/54/6
f 37/55/6 47/56/6 40/57/6
f 21/58/1 38/59/1 11/60/1
f 20/61/2 41/62/2 21/63/2
f 29/64/4 36/65/4 18/66/4
f 11/67/4 39/68/4 5/69/4
f 3/70/1 44/71/1 19/72/1
f 23/73/2 32/74/2 17/75/2
f 5/76/3 45/77/3 20/78/3
f 13/79/2 35/80/2 3/81/2
f 27/82/3 34/83/3 13/84/3
f 1/85/4 42/86/4 14/87/4
f 14/88/3 43/89/3 23/90/3
f 12/91/1 47/92/1 29/93/1
f 48/1/1 51/94/1 4/95/1
f 51/96/5 53/97/5 52/98/5
f 55/99/4 53/100/4 57/101/4
f 50/102/4 48/103/4 72/104/4
f 64/105/4 71/106/4 62/107/4
f 54/108/4 65/109/4 63/110/4
f 4/4/2 51/111/2 76/112/2
f 68/113/2 75/114/2 66/115/2
f 58/116/2 67/117/2 61/118/2
f 52/119/2 59/120/2 60/121/2
f 8/122/3 53/123/3 49/7/3
f 56/124/3 58/125/3 61/126/3
f 55/127/1 60/128/1 59/129/1
f 54/130/5 59/131/5 58/132/5
f 56/133/6 60/134/6 57/135/6
f 64/136/3 68/137/3 66/138/3
f 63/139/1 67/140/1 69/141/1
f 62/142/5 69/143/5 68/144/5
f 64/145/6 67/146/6 65/147/6
f 72/148/3 76/149/3 74/150/3
f 71/151/1 75/152/1 77/153/1
f 70/154/5 77/155/5 76/156/5
f 72/157/6 75/158/6 73/159/6
f 48/1/1 4/95/1 3/70/1
f 48/1/1 3/70/1 19/72/1
f 1/43/1 2/160/1 48/1/1
f 17/3/1 1/43/1 48/1/1
f 48/1/1 19/72/1 15/2/1
f 13/79/2 3/81/2 4/4/2
f 4/4/2 8/161/2 7/24/2
f 4/4/2 7/24/2 12/26/2
f 9/6/2 13/79/2 4/4/2
f 4/4/2 12/26/2 30/5/2
f 49/7/3 6/162/3 5/76/3
f 49/7/3 5/76/3 20/78/3
f 7/45/3 8/122/3 49/7/3
f 18/9/3 7/45/3 49/7/3
f 49/7/3 20/78/3 16/8/3
f 11/67/4 5/69/4 6/10/4
f 6/10/4 2/163/4 1/85/4
f 6/10/4 1/85/4 14/87/4
f 31/12/4 11/67/4 6/10/4
f 6/10/4 14/87/4 10/11/4
f 19/13/4 44/164/4 46/14/4
f 48/16/5 2/165/5 6/17/5
f 22/19/6 10/166/6 14/20/6
f 31/22/6 10/166/6 22/19/6
f 22/19/6 21/31/6 11/23/6
f 7/24/2 37/167/2 40/25/2
f 25/27/6 22/19/6 23/21/6
f 24/29/6 21/31/6 22/19/6
f 16/30/6 20/168/6 21/31/6
f 26/28/6 23/21/6 17/32/6
f 28/34/6 25/27/6 26/28/6
f 29/36/6 24/29/6 25/27/6
f 18/37/6 16/30/6 24/29/6
f 27/35/6 26/28/6 15/33/6
f 30/39/6 12/169/6 29/36/6
f 29/36/6 28/34/6 9/40/6
f 9/40/6 28/34/6 27/35/6
f 17/3/1 32/170/1 33/42/1
f 18/9/3 36/171/3 37/44/3
f 45/46/6 39/172/6 38/47/6
f 43/49/6 42/173/6 33/50/6
f 34/52/6 46/174/6 44/53/6
f 37/55/6 36/175/6 47/56/6
f 21/58/1 41/176/1 38/59/1
f 20/61/2 45/177/2 41/62/2
f 29/64/4 47/178/4 36/65/4
f 11/67/4 38/179/4 39/68/4
f 3/70/1 35/180/1 44/71/1
f 23/73/2 43/181/2 32/74/2
f 5/76/3 39/182/3 45/77/3
f 13/79/2 34/183/2 35/80/2
f 27/82/3 46/184/3 34/83/3
f 1/85/4 33/185/4 42/86/4
f 14/88/3 42/186/3 43/89/3
f 12/91/1 40/187/1 47/92/1
f 48/1/1 50/188/1 51/94/1
f 51/96/5 50/189/5 53/97/5
f 55/99/4 49/190/4 53/100/4
f 56/191/4 57/101/4 53/100/4
f 48/103/4 49/190/4 55/99/4
f 48/103/4 55/99/4 54/108/4
f 56/191/4 53/100/4 50/102/4
f 65/109/4 56/191/4 50/102/4
f 48/103/4 54/108/4 63/110/4
f 48/103/4 63/110/4 62/107/4
f 64/105/4 65/109/4 50/102/4
f 73/192/4 64/105/4 50/102/4
f 48/103/4 62/107/4 71/106/4
f 48/103/4 71/106/4 70/193/4
f 72/104/4 73/192/4 50/102/4
f 48/103/4 70/193/4 72/104/4
f 64/105/4 73/192/4 71/106/4
f 54/108/4 56/191/4 65/109/4
f 58/116/2 59/120/2 8/161/2
f 51/111/2 52/119/2 60/121/2
f 51/111/2 60/121/2 61/118/2
f 58/116/2 8/161/2 4/4/2
f 69/194/2 58/116/2 4/4/2
f 51/111/2 61/118/2 67/117/2
f 51/111/2 67/117/2 66/115/2
f 68/113/2 69/194/2 4/4/2
f 77/195/2 68/113/2 4/4/2
f 51/111/2 66/115/2 75/114/2
f 51/111/2 75/114/2 74/196/2
f 76/112/2 77/195/2 4/4/2
f 51/111/2 74/196/2 76/112/2
f 68/113/2 77/195/2 75/114/2
f 58/116/2 69/194/2 67/117/2
f 52/119/2 8/161/2 59/120/2
f 8/122/3 52/197/3 53/123/3
f 56/124/3 54/198/3 58/125/3
f 55/127/1 57/199/1 60/128/1
f 54/130/5 55/200/5 59/131/5
f 56/133/6 61/201/6 60/134/6
f 64/136/3 62/202/3 68/137/3
f 63/139/1 65/203/1 67/140/1
f 62/142/5 63/204/5 69/143/5
f 64/145/6 66/205/6 67/146/6
f 72/148/3 70/206/3 76/149/3
f 71/151/1 73/207/1 75/152/1
f 70/154/5 71/208/5 77/155/5
f 72/157/6 74/209/6 75/158/6
