# Blender 4.3.2
# www.blender.org
mtllib Cornell.mtl
o Cornell_Box
v 1.472637 -0.000000 -0.663536
v 1.472637 1.650000 -0.663536
v -0.108464 1.650000 -1.135364
v -0.108464 -0.000000 -1.135364
v 1.944464 -0.000000 -2.244637
v 1.944464 1.650000 -2.244637
v 0.363364 1.650000 -2.716465
v 0.363364 -0.000000 -2.716465
v -1.455526 0.000000 -2.477610
v -1.455526 3.300000 -2.477610
v -1.944390 3.300000 -4.053527
v -1.944390 -0.000000 -4.053526
v 0.120390 0.000000 -2.966474
v 0.120390 3.300000 -2.966475
v -0.368474 3.300000 -4.542391
v -0.368474 -0.000000 -4.542390
v -2.728000 0.000000 -5.591999
v -2.759999 0.000000 0.000001
v 2.767999 0.000000 -5.592000
v 2.768000 0.000000 -0.000000
v 2.768000 5.487999 -0.000000
v 2.767999 5.488000 -5.592000
v -2.792001 5.488000 -5.591999
v -2.791999 5.487999 0.000001
v 0.638000 5.472999 -2.270001
v 0.638000 5.472998 -3.320001
v -0.662000 5.472999 -2.270000
v -0.662000 5.472998 -3.320001
vn 0.9582 -0.0000 0.2860
vn -0.0000 1.0000 -0.0000
vn -0.9582 -0.0000 -0.2860
vn -0.0000 -1.0000 -0.0000
vn -0.2860 -0.0000 0.9582
vn 0.2860 -0.0000 -0.9582
vn 0.2963 -0.0000 0.9551
vn -0.2963 -0.0000 -0.9551
vn -0.9551 -0.0000 0.2963
vn 0.9551 -0.0000 -0.2963
vn -0.0000 -0.0000 1.0000
vn -1.0000 -0.0000 -0.0000
vn 1.0000 0.0087 0.0029
vt 0.891512 0.265570
vt 0.891512 0.387487
vt 0.992040 0.387487
vt 0.992040 0.265570
vt 0.894130 0.396468
vt 0.894130 0.512029
vt 0.989417 0.512029
vt 0.989417 0.396468
vt 0.992027 0.906919
vt 0.888173 0.906919
vt 0.888173 0.992553
vt 0.992027 0.992553
vt 0.992027 0.815819
vt 0.888173 0.815819
vt 0.888173 0.901453
vt 0.992027 0.901453
vt 0.988396 0.727251
vt 0.893396 0.727251
vt 0.893396 0.805584
vt 0.988396 0.805584
vt 0.988396 0.643917
vt 0.893396 0.643917
vt 0.893396 0.722251
vt 0.988396 0.722251
vt 0.647757 0.806109
vt 0.647757 0.991193
vt 0.756517 0.991193
vt 0.756517 0.806109
vt 0.989015 0.634854
vt 0.989015 0.519293
vt 0.893729 0.519293
vt 0.893729 0.634854
vt 0.636822 0.904485
vt 0.407512 0.904485
vt 0.407512 0.996601
vt 0.636822 0.996601
vt 0.891028 0.135263
vt 0.891028 0.257180
vt 0.991556 0.257180
vt 0.991556 0.135263
vt 0.766072 0.805222
vt 0.766072 0.990305
vt 0.874833 0.990305
vt 0.874833 0.805222
vt 0.637617 0.803204
vt 0.408308 0.803204
vt 0.408308 0.895320
vt 0.637617 0.895320
vt 0.879940 0.401740
vt 0.410313 0.401740
vt 0.410313 0.792105
vt 0.879940 0.792105
vt 0.879940 0.002500
vt 0.410313 0.002500
vt 0.410313 0.392865
vt 0.879940 0.392865
vt 0.397500 0.335833
vt 0.002500 0.335833
vt 0.002500 0.664167
vt 0.397500 0.664167
vt 0.397500 0.002500
vt 0.002500 0.002500
vt 0.002500 0.330833
vt 0.397500 0.330833
vt 0.397500 0.669167
vt 0.002500 0.669167
vt 0.002500 0.997500
vt 0.397500 0.997500
vt 0.891539 0.006945
vt 0.891539 0.128862
vt 0.992067 0.128862
vt 0.992067 0.006945
s 1
usemtl CornellBox
f 5/1/1 6/2/1 2/3/1 1/4/1
f 6/5/2 7/6/2 3/7/2 2/8/2
f 7/9/3 8/10/3 4/11/3 3/12/3
f 8/13/4 5/14/4 1/15/4 4/16/4
f 1/17/5 2/18/5 3/19/5 4/20/5
f 8/21/6 7/22/6 6/23/6 5/24/6
f 13/25/7 14/26/7 10/27/7 9/28/7
f 14/29/2 15/30/2 11/31/2 10/32/2
f 15/33/8 16/34/8 12/35/8 11/36/8
f 16/37/4 13/38/4 9/39/4 12/40/4
f 9/41/9 10/42/9 11/43/9 12/44/9
f 16/45/10 15/46/10 14/47/10 13/48/10
f 19/49/2 17/50/2 18/51/2 20/52/2
f 23/53/4 22/54/4 21/55/4 24/56/4
f 19/57/11 22/58/11 23/59/11 17/60/11
f 20/61/12 21/62/12 22/63/12 19/64/12
f 17/65/13 23/66/13 24/67/13 18/68/13
f 25/69/4 27/70/4 28/71/4 26/72/4
