# Blender 4.3.2
# www.blender.org
mtllib dynamitebox.mtl
o Cube.004
v -0.681177 0.452044 0.125337
v -0.681177 0.759828 0.125337
v -0.781641 0.452044 0.125337
v -0.781641 0.759828 0.125337
v -0.681177 0.452044 -0.659402
v -0.681177 0.759828 -0.659402
v -0.781641 0.452044 -0.659402
v -0.781641 0.759828 -0.659402
v -0.790694 0.453088 0.217107
v -0.790694 0.760871 0.217107
v -0.790694 0.453088 0.116643
v -0.790694 0.760871 0.116643
v 0.978398 0.453088 0.217107
v 0.978398 0.760871 0.217107
v 0.978398 0.453088 0.116643
v 0.978398 0.760871 0.116643
v -0.790694 0.448678 -0.663123
v -0.790694 0.756461 -0.663123
v -0.790694 0.448678 -0.763587
v -0.790694 0.756461 -0.763587
v 0.978398 0.448678 -0.663123
v 0.978398 0.756461 -0.663123
v 0.978398 0.448678 -0.763587
v 0.978398 0.756461 -0.763587
v 0.981902 0.450165 0.118572
v 0.981902 0.757948 0.118572
v 0.881438 0.450165 0.118572
v 0.881438 0.757948 0.118572
v 0.981902 0.450165 -0.662495
v 0.981902 0.757948 -0.662495
v 0.881438 0.450165 -0.662495
v 0.881438 0.757948 -0.662495
v -0.790694 0.009103 0.217107
v -0.790694 0.316886 0.217107
v -0.790694 0.009103 0.116643
v -0.790694 0.316886 0.116643
v 0.978398 0.009103 0.217107
v 0.978398 0.316886 0.217107
v 0.978398 0.009103 0.116643
v 0.978398 0.316886 0.116643
v -0.790694 0.004645 -0.663122
v -0.790694 0.312428 -0.663122
v -0.790694 0.004645 -0.763586
v -0.790694 0.312428 -0.763586
v 0.978398 0.004645 -0.663123
v 0.978398 0.312428 -0.663123
v 0.978398 0.004645 -0.763587
v 0.978398 0.312428 -0.763587
v 0.981902 0.004897 0.118572
v 0.981902 0.312680 0.118572
v 0.881438 0.004897 0.118572
v 0.881438 0.312680 0.118572
v 0.981902 0.004897 -0.662495
v 0.981902 0.312680 -0.662495
v 0.881438 0.004897 -0.662495
v 0.881438 0.312680 -0.662495
v -0.681177 0.005189 0.125337
v -0.681177 0.312972 0.125337
v -0.781641 0.005189 0.125337
v -0.781641 0.312972 0.125337
v -0.681177 0.005189 -0.659402
v -0.681177 0.312972 -0.659402
v -0.781641 0.005189 -0.659402
v -0.781641 0.312972 -0.659402
vn -0.0000 -0.0000 1.0000
vn -1.0000 -0.0000 -0.0000
vn -0.0000 -0.0000 -1.0000
vn 1.0000 -0.0000 -0.0000
vn -0.0000 -1.0000 -0.0000
vn -0.0000 1.0000 -0.0000
vt 0.625000 0.000000
vt 0.375000 0.250000
vt 0.375000 0.000000
vt 0.625000 0.250000
vt 0.375000 0.500000
vt 0.625000 0.500000
vt 0.375000 0.750000
vt 0.625000 0.750000
vt 0.375000 1.000000
vt 0.125000 0.750000
vt 0.125000 0.500000
vt 0.875000 0.500000
vt 0.875000 0.750000
vt 0.625000 1.000000
s 0
f 2/1/1 3/2/1 1/3/1
f 4/4/2 7/5/2 3/2/2
f 8/6/3 5/7/3 7/5/3
f 6/8/4 1/9/4 5/7/4
f 7/5/5 1/10/5 3/11/5
f 4/12/6 6/8/6 8/6/6
f 10/1/2 11/2/2 9/3/2
f 12/4/3 15/5/3 11/2/3
f 16/6/4 13/7/4 15/5/4
f 14/8/1 9/9/1 13/7/1
f 15/5/5 9/10/5 11/11/5
f 16/6/6 10/13/6 14/8/6
f 18/1/2 19/2/2 17/3/2
f 20/4/3 23/5/3 19/2/3
f 24/6/4 21/7/4 23/5/4
f 22/8/1 17/9/1 21/7/1
f 23/5/5 17/10/5 19/11/5
f 20/12/6 22/8/6 24/6/6
f 26/1/1 27/2/1 25/3/1
f 28/4/2 31/5/2 27/2/2
f 32/6/3 29/7/3 31/5/3
f 30/8/4 25/9/4 29/7/4
f 31/5/5 25/10/5 27/11/5
f 28/12/6 30/8/6 32/6/6
f 34/1/2 35/2/2 33/3/2
f 36/4/3 39/5/3 35/2/3
f 40/6/4 37/7/4 39/5/4
f 38/8/1 33/9/1 37/7/1
f 39/5/5 33/10/5 35/11/5
f 40/6/6 34/13/6 38/8/6
f 42/1/2 43/2/2 41/3/2
f 44/4/3 47/5/3 43/2/3
f 48/6/4 45/7/4 47/5/4
f 46/8/1 41/9/1 45/7/1
f 47/5/5 41/10/5 43/11/5
f 44/12/6 46/8/6 48/6/6
f 50/1/1 51/2/1 49/3/1
f 52/4/2 55/5/2 51/2/2
f 56/6/3 53/7/3 55/5/3
f 54/8/4 49/9/4 53/7/4
f 55/5/5 49/10/5 51/11/5
f 52/12/6 54/8/6 56/6/6
f 58/1/1 59/2/1 57/3/1
f 60/4/2 63/5/2 59/2/2
f 64/6/3 61/7/3 63/5/3
f 62/8/4 57/9/4 61/7/4
f 59/11/5 61/7/5 57/10/5
f 60/12/6 62/8/6 64/6/6
f 2/1/1 4/4/1 3/2/1
f 4/4/2 8/6/2 7/5/2
f 8/6/3 6/8/3 5/7/3
f 6/8/4 2/14/4 1/9/4
f 7/5/5 5/7/5 1/10/5
f 4/12/6 2/13/6 6/8/6
f 10/1/2 12/4/2 11/2/2
f 12/4/3 16/6/3 15/5/3
f 16/6/4 14/8/4 13/7/4
f 14/8/1 10/14/1 9/9/1
f 15/5/5 13/7/5 9/10/5
f 16/6/6 12/12/6 10/13/6
f 18/1/2 20/4/2 19/2/2
f 20/4/3 24/6/3 23/5/3
f 24/6/4 22/8/4 21/7/4
f 22/8/1 18/14/1 17/9/1
f 23/5/5 21/7/5 17/10/5
f 20/12/6 18/13/6 22/8/6
f 26/1/1 28/4/1 27/2/1
f 28/4/2 32/6/2 31/5/2
f 32/6/3 30/8/3 29/7/3
f 30/8/4 26/14/4 25/9/4
f 31/5/5 29/7/5 25/10/5
f 28/12/6 26/13/6 30/8/6
f 34/1/2 36/4/2 35/2/2
f 36/4/3 40/6/3 39/5/3
f 40/6/4 38/8/4 37/7/4
f 38/8/1 34/14/1 33/9/1
f 39/5/5 37/7/5 33/10/5
f 40/6/6 36/12/6 34/13/6
f 42/1/2 44/4/2 43/2/2
f 44/4/3 48/6/3 47/5/3
f 48/6/4 46/8/4 45/7/4
f 46/8/1 42/14/1 41/9/1
f 47/5/5 45/7/5 41/10/5
f 44/12/6 42/13/6 46/8/6
f 50/1/1 52/4/1 51/2/1
f 52/4/2 56/6/2 55/5/2
f 56/6/3 54/8/3 53/7/3
f 54/8/4 50/14/4 49/9/4
f 55/5/5 53/7/5 49/10/5
f 52/12/6 50/13/6 54/8/6
f 58/1/1 60/4/1 59/2/1
f 60/4/2 64/6/2 63/5/2
f 64/6/3 62/8/3 61/7/3
f 62/8/4 58/14/4 57/9/4
f 59/11/5 63/5/5 61/7/5
f 60/12/6 58/13/6 62/8/6
