# Blender 4.0.2
# www.blender.org
mtllib Error.mtl
o Plane
v -0.150000 0.200000 1.900001
v -0.150000 0.000000 1.900001
v -0.150000 0.200000 1.700000
v -0.150000 0.000000 1.700000
v -0.150000 0.200000 1.300000
v -0.150000 0.000000 1.300000
v -0.150000 0.400000 1.900001
v -0.150000 0.400000 1.700000
v -0.150000 0.600000 1.900001
v -0.150000 0.600000 1.700000
v -0.150000 0.800000 1.900001
v -0.150000 0.800000 1.700000
v -0.150000 1.000000 1.900001
v -0.150000 1.000000 1.700000
v -0.150000 0.400000 1.400001
v -0.150000 0.600000 1.400001
v -0.150000 0.800000 1.300000
v -0.150000 1.000000 1.300000
v 0.150000 0.200000 1.700000
v 0.150000 0.200000 1.900001
v 0.150000 0.000000 1.900001
v 0.150000 0.000000 1.700000
v 0.150000 0.000000 1.300000
v 0.150000 0.200000 1.300000
v 0.150000 0.400000 1.700000
v 0.150000 0.400000 1.900001
v 0.150000 0.600000 1.700000
v 0.150000 0.600000 1.900001
v 0.150000 0.800000 1.700000
v 0.150000 0.800000 1.900001
v 0.150000 1.000000 1.700000
v 0.150000 1.000000 1.900001
v 0.150000 0.400000 1.400001
v 0.150000 0.600000 1.400001
v 0.150000 0.800000 1.300000
v 0.150000 1.000000 1.300000
v -0.150000 0.400000 1.100000
v -0.150000 0.000000 1.100000
v -0.150000 0.400000 0.900001
v -0.150000 0.000000 0.900001
v -0.150000 0.500000 1.100000
v -0.150000 0.500000 0.900001
v -0.150000 0.800000 1.099999
v -0.150000 0.800000 0.900001
v -0.150000 1.000000 1.099999
v -0.150000 1.000000 0.900001
v -0.150000 0.800000 0.700000
v -0.150000 1.000000 0.700000
v -0.150000 0.800000 0.500001
v -0.150000 1.000000 0.500001
v -0.150000 0.600000 0.700000
v -0.150000 0.600000 0.500001
v -0.150000 0.500000 0.800000
v -0.150000 0.500000 0.599999
v -0.150000 0.400000 0.700000
v -0.150000 0.000000 0.700000
v -0.150000 0.000000 0.500001
v 0.150000 0.400000 0.900001
v 0.150000 0.400000 1.100000
v 0.150000 0.000000 1.100000
v 0.150000 0.000000 0.900001
v 0.150000 0.500000 0.900001
v 0.150000 0.500000 1.100000
v 0.150000 0.800000 0.900001
v 0.150000 0.800000 1.099999
v 0.150000 1.000000 0.900001
v 0.150000 1.000000 1.099999
v 0.150000 0.800000 0.700000
v 0.150000 1.000000 0.700000
v 0.150000 0.800000 0.500001
v 0.150000 1.000000 0.500001
v 0.150000 0.600000 0.700000
v 0.150000 0.600000 0.500001
v 0.150000 0.500000 0.599999
v 0.150000 0.500000 0.800000
v 0.150000 0.400000 0.700000
v 0.150000 0.000000 0.700000
v 0.150000 0.000000 0.500001
v -0.150000 0.200000 -0.499999
v -0.150000 -0.000000 -0.499999
v -0.150000 0.200000 -0.700000
v -0.150000 -0.000000 -0.700000
v -0.150000 0.800000 -0.499999
v -0.150000 0.800000 -0.700000
v -0.150000 1.000000 -0.499999
v -0.150000 1.000000 -0.700000
v -0.150000 0.200000 -0.900001
v -0.150000 -0.000000 -0.900001
v -0.150000 0.800000 -0.900001
v -0.150000 1.000000 -0.900001
v -0.150000 0.200000 -1.099999
v -0.150000 -0.000000 -1.099999
v -0.150000 0.800000 -1.099999
v -0.150000 1.000000 -1.099999
v 0.150000 0.200000 -0.700000
v 0.150000 0.200000 -0.499999
v 0.150000 -0.000000 -0.499999
v 0.150000 -0.000000 -0.700000
v 0.150000 0.800000 -0.700000
v 0.150000 0.800000 -0.499999
v 0.150000 1.000000 -0.700000
v 0.150000 1.000000 -0.499999
v 0.150000 -0.000000 -0.900001
v 0.150000 0.200000 -0.900001
v 0.150000 0.800000 -0.900001
v 0.150000 1.000000 -0.900001
v 0.150000 -0.000000 -1.099999
v 0.150000 0.200000 -1.099999
v 0.150000 0.800000 -1.099999
v 0.150000 1.000000 -1.099999
v -0.150000 0.400000 0.300000
v -0.150000 0.000000 0.300000
v -0.150000 0.400000 0.099999
v -0.150000 0.000000 0.099999
v -0.150000 0.500000 0.300000
v -0.150000 0.500000 0.099999
v -0.150000 0.800000 0.300000
v -0.150000 0.800000 0.099999
v -0.150000 1.000000 0.300000
v -0.150000 1.000000 0.099999
v -0.150000 0.800000 -0.099999
v -0.150000 1.000000 -0.100000
v -0.150000 0.800000 -0.300000
v -0.150000 1.000000 -0.300000
v -0.150000 0.600000 -0.099999
v -0.150000 0.600000 -0.300000
v -0.150000 0.500000 0.000001
v -0.150000 0.500000 -0.200000
v -0.150000 0.400000 -0.099999
v -0.150000 -0.000000 -0.099999
v -0.150000 -0.000000 -0.300000
v 0.150000 0.400000 0.099999
v 0.150000 0.400000 0.300000
v 0.150000 0.000000 0.300000
v 0.150000 0.000000 0.099999
v 0.150000 0.500000 0.099999
v 0.150000 0.500000 0.300000
v 0.150000 0.800000 0.099999
v 0.150000 0.800000 0.300000
v 0.150000 1.000000 0.099999
v 0.150000 1.000000 0.300000
v 0.150000 0.800000 -0.099999
v 0.150000 1.000000 -0.100000
v 0.150000 0.800000 -0.300000
v 0.150000 1.000000 -0.300000
v 0.150000 0.600000 -0.099999
v 0.150000 0.600000 -0.300000
v 0.150000 0.500000 -0.200000
v 0.150000 0.500000 0.000001
v 0.150000 0.400000 -0.099999
v 0.150000 -0.000000 -0.099999
v 0.150000 -0.000000 -0.300000
v -0.150000 0.400000 -1.300000
v -0.150000 -0.000000 -1.300000
v -0.150000 0.400000 -1.499999
v -0.150000 -0.000000 -1.499999
v -0.150000 0.500000 -1.300000
v -0.150000 0.500000 -1.499999
v -0.150000 0.800000 -1.300000
v -0.150000 0.800000 -1.499999
v -0.150000 1.000000 -1.300000
v -0.150000 1.000000 -1.499999
v -0.150000 0.800000 -1.700000
v -0.150000 1.000000 -1.700000
v -0.150000 0.800000 -1.900001
v -0.150000 1.000000 -1.900001
v -0.150000 0.600000 -1.700000
v -0.150000 0.600000 -1.900000
v -0.150000 0.500000 -1.599999
v -0.150000 0.500000 -1.800000
v -0.150000 0.400000 -1.700000
v -0.150000 -0.000000 -1.700000
v -0.150000 -0.000000 -1.900000
v 0.150000 0.400000 -1.499999
v 0.150000 0.400000 -1.300000
v 0.150000 -0.000000 -1.300000
v 0.150000 -0.000000 -1.499999
v 0.150000 0.500000 -1.499999
v 0.150000 0.500000 -1.300000
v 0.150000 0.800000 -1.499999
v 0.150000 0.800000 -1.300000
v 0.150000 1.000000 -1.499999
v 0.150000 1.000000 -1.300000
v 0.150000 0.800000 -1.700000
v 0.150000 1.000000 -1.700000
v 0.150000 0.800000 -1.900001
v 0.150000 1.000000 -1.900001
v 0.150000 0.600000 -1.700000
v 0.150000 0.600000 -1.900000
v 0.150000 0.500000 -1.800000
v 0.150000 0.500000 -1.599999
v 0.150000 0.400000 -1.700000
v 0.150000 -0.000000 -1.700000
v 0.150000 -0.000000 -1.900000
vn -1.0000 -0.0000 -0.0000
vn 1.0000 -0.0000 -0.0000
vn -0.0000 -0.0000 -1.0000
vn -0.0000 -0.0000 1.0000
vn -0.0000 1.0000 -0.0000
vn -0.0000 -1.0000 -0.0000
vn -0.0000 0.4472 -0.8944
vn -0.0000 -0.7071 -0.7071
vn -0.0000 0.7071 0.7071
vn -0.0000 -0.4472 0.8944
vt 0.694445 0.666259
vt 0.750001 0.610703
vt 0.750001 0.666259
vt 0.583334 0.666259
vt 0.694445 0.610703
vt 0.750001 0.721814
vt 0.750001 0.777370
vt 0.694445 0.721814
vt 0.750001 0.832925
vt 0.694445 0.777370
vt 0.750001 0.888480
vt 0.694445 0.832925
vt 0.611112 0.777370
vt 0.583334 0.888480
vt 0.694445 0.888480
vt 0.777778 0.610703
vt 0.833334 0.666259
vt 0.777778 0.666259
vt 0.833334 0.610703
vt 0.944445 0.666259
vt 0.777778 0.721814
vt 0.833334 0.721814
vt 0.777778 0.777370
vt 0.833334 0.777370
vt 0.777778 0.832925
vt 0.833334 0.832925
vt 0.777778 0.888480
vt 0.916667 0.777370
vt 0.944445 0.888480
vt 0.833334 0.888480
vt 0.861111 0.832925
vt 0.861111 0.805147
vt 0.833334 0.916258
vt 0.944445 0.916258
vt 0.777778 0.916258
vt 0.861111 0.721814
vt 0.861111 0.694037
vt 0.583334 0.832925
vt 0.694445 0.805147
vt 0.750001 0.582926
vt 0.972222 0.666259
vt 0.944445 0.610703
vt 0.972222 0.610703
vt 0.944445 0.777370
vt 0.916667 0.721814
vt 0.944445 0.721814
vt 0.944445 0.694037
vt 0.916667 0.805147
vt 0.583334 0.610703
vt 0.694445 0.582926
vt 0.611112 0.721814
vt 0.694445 0.694037
vt 0.972222 0.888480
vt 0.944445 0.832925
vt 0.972222 0.832925
vt 0.138891 0.805556
vt 0.194446 0.694445
vt 0.194446 0.805556
vt 0.194446 0.916667
vt 0.138891 0.833334
vt 0.194446 0.833334
vt 0.194446 0.972222
vt 0.138891 0.916667
vt 0.083336 0.972222
vt 0.138891 0.972222
vt 0.027780 0.972222
vt 0.083336 0.916667
vt 0.027780 0.861112
vt 0.027780 0.916667
vt 0.083336 0.861112
vt 0.055558 0.833334
vt 0.111113 0.833334
vt 0.083336 0.805556
vt 0.083336 0.694445
vt 0.222224 0.694445
vt 0.277780 0.805556
vt 0.222224 0.805556
vt 0.277780 0.833334
vt 0.222224 0.916667
vt 0.222224 0.833334
vt 0.277780 0.916667
vt 0.222224 0.972222
vt 0.333335 0.972222
vt 0.277780 0.972222
vt 0.333335 0.916667
vt 0.388890 0.972222
vt 0.388890 0.861112
vt 0.388890 0.916667
vt 0.333335 0.861112
vt 0.361113 0.833334
vt 0.333335 0.805556
vt 0.333335 0.694445
vt 0.388890 0.694445
vt 0.305557 0.833334
vt 0.354168 0.815973
vt 0.409724 0.704862
vt 0.416668 0.916667
vt 0.416668 0.861112
vt 0.472223 0.972222
vt 0.444446 0.944445
vt 0.472223 0.944445
vt 0.472223 0.902778
vt 0.444446 0.847223
vt 0.472223 0.847223
vt 0.277780 1.000000
vt 0.333335 1.000000
vt 0.034725 0.812501
vt 0.444446 0.791667
vt 0.472223 0.791667
vt 0.444446 0.902778
vt 0.416668 0.972222
vt 0.500001 0.722223
vt 0.472223 0.861112
vt 0.500001 0.861111
vt 0.444446 0.708334
vt 0.472223 0.708334
vt 0.388890 1.000000
vt 0.222224 1.000000
vt 0.062502 0.784723
vt 0.138891 0.694445
vt 0.194446 0.666668
vt 0.027780 0.694445
vt 0.083336 0.666668
vt 0.500001 0.972222
vt 0.861111 0.388891
vt 0.805556 0.444446
vt 0.805556 0.388891
vt 0.805556 0.222224
vt 0.805556 0.166669
vt 0.861112 0.222224
vt 0.916667 0.166669
vt 0.861112 0.166669
vt 0.916667 0.388891
vt 0.861111 0.444446
vt 0.972222 0.166669
vt 0.916667 0.222224
vt 0.972222 0.388891
vt 0.916667 0.444446
vt 0.972222 0.222224
vt 0.777778 0.444446
vt 0.722223 0.388891
vt 0.777778 0.388891
vt 0.777778 0.222224
vt 0.722223 0.222224
vt 0.777778 0.166669
vt 0.666667 0.166669
vt 0.722223 0.166669
vt 0.722223 0.444446
vt 0.666667 0.388891
vt 0.666667 0.222224
vt 0.611112 0.166669
vt 0.666667 0.444446
vt 0.611112 0.388891
vt 0.611112 0.222224
vt 0.777778 0.083336
vt 0.722223 0.111113
vt 0.722223 0.083336
vt 0.555557 0.111113
vt 0.555557 0.083336
vt 0.972222 0.444446
vt 0.916667 0.472224
vt 1.000000 0.083336
vt 0.944445 0.111113
vt 0.944445 0.083336
vt 0.777778 0.138891
vt 0.722223 0.138891
vt 0.583334 0.222224
vt 0.583334 0.388891
vt 0.861112 0.472224
vt 0.777778 0.111113
vt 0.611112 0.444446
vt 0.583334 0.444446
vt 0.805556 0.472224
vt 0.583334 0.166669
vt 0.666667 0.138891
vt 0.611112 0.138891
vt 0.138891 0.472224
vt 0.194446 0.361113
vt 0.194446 0.472224
vt 0.194446 0.583335
vt 0.138891 0.500001
vt 0.194446 0.500001
vt 0.194446 0.638890
vt 0.138891 0.583335
vt 0.083336 0.638890
vt 0.138891 0.638890
vt 0.027780 0.638890
vt 0.083336 0.583335
vt 0.027780 0.527779
vt 0.027780 0.583335
vt 0.083336 0.527779
vt 0.055558 0.500001
vt 0.111113 0.500001
vt 0.083336 0.472224
vt 0.083336 0.361113
vt 0.222224 0.361113
vt 0.277780 0.472224
vt 0.222224 0.472224
vt 0.277780 0.500001
vt 0.222224 0.583335
vt 0.222224 0.500001
vt 0.277780 0.583335
vt 0.222224 0.638890
vt 0.333335 0.638890
vt 0.277780 0.638890
vt 0.333335 0.583335
vt 0.388890 0.638890
vt 0.388890 0.527779
vt 0.388890 0.583335
vt 0.333335 0.527779
vt 0.361113 0.500001
vt 0.333335 0.472224
vt 0.333335 0.361113
vt 0.388890 0.361113
vt 0.305557 0.500001
vt 0.354168 0.482640
vt 0.409724 0.371529
vt 0.416668 0.583335
vt 0.416668 0.527779
vt 0.472223 0.638890
vt 0.444446 0.611112
vt 0.472223 0.611112
vt 0.472223 0.569446
vt 0.444446 0.513890
vt 0.472223 0.513890
vt 0.277780 0.666668
vt 0.333335 0.666668
vt 0.034725 0.479168
vt 0.444446 0.458335
vt 0.472223 0.458335
vt 0.444446 0.569446
vt 0.416668 0.638890
vt 0.500001 0.527779
vt 0.472223 0.388891
vt 0.472223 0.527779
vt 0.444446 0.375002
vt 0.472223 0.375002
vt 0.388890 0.666668
vt 0.222224 0.666668
vt 0.062502 0.451390
vt 0.138891 0.361113
vt 0.194446 0.333335
vt 0.027780 0.361113
vt 0.083336 0.333335
vt 0.500001 0.638890
vt 0.138891 0.138891
vt 0.194446 0.027780
vt 0.194446 0.138891
vt 0.194446 0.250002
vt 0.138891 0.166669
vt 0.194446 0.166669
vt 0.194446 0.305557
vt 0.138891 0.250002
vt 0.083336 0.305557
vt 0.138891 0.305557
vt 0.027780 0.305557
vt 0.083336 0.250002
vt 0.027780 0.194447
vt 0.027780 0.250002
vt 0.083336 0.194447
vt 0.055558 0.166669
vt 0.111113 0.166669
vt 0.083336 0.138891
vt 0.083336 0.027780
vt 0.222224 0.027780
vt 0.277780 0.138891
vt 0.222224 0.138891
vt 0.277780 0.166669
vt 0.222224 0.250002
vt 0.222224 0.166669
vt 0.277780 0.250002
vt 0.222224 0.305557
vt 0.333335 0.305557
vt 0.277780 0.305557
vt 0.333335 0.250002
vt 0.388890 0.305557
vt 0.388890 0.194447
vt 0.388890 0.250002
vt 0.333335 0.194447
vt 0.361113 0.166669
vt 0.333335 0.138891
vt 0.333335 0.027780
vt 0.388890 0.027780
vt 0.305557 0.166669
vt 0.354168 0.149308
vt 0.409724 0.038197
vt 0.416668 0.250002
vt 0.416668 0.194447
vt 0.472223 0.305557
vt 0.444446 0.277780
vt 0.472223 0.277780
vt 0.472223 0.236113
vt 0.444446 0.180558
vt 0.472223 0.180558
vt 0.277780 0.333335
vt 0.333335 0.333335
vt 0.034725 0.145836
vt 0.444446 0.125002
vt 0.472223 0.125002
vt 0.444446 0.236113
vt 0.416668 0.305557
vt 0.500001 0.055558
vt 0.472223 0.194447
vt 0.500001 0.194446
vt 0.444446 0.041669
vt 0.472223 0.041669
vt 0.388890 0.333335
vt 0.222224 0.333335
vt 0.062502 0.118058
vt 0.138891 0.027780
vt 0.194446 0.000003
vt 0.027780 0.027780
vt 0.083336 0.000003
vt 0.500001 0.305557
vt 0.583334 0.805147
vt 0.583334 0.582926
vt 0.611112 0.694037
vt 0.277780 0.694445
vt 0.444446 0.972222
vt 0.006947 0.840278
vt 0.472223 0.722223
vt 0.138891 0.666668
vt 0.027780 0.666668
vt 0.972222 0.472224
vt 1.000000 0.111113
vt 0.277780 0.361113
vt 0.444446 0.638890
vt 0.006947 0.506946
vt 0.500001 0.388891
vt 0.138891 0.333335
vt 0.027780 0.333335
vt 0.277780 0.027780
vt 0.444446 0.305557
vt 0.006947 0.173613
vt 0.472223 0.055558
vt 0.138891 0.000003
vt 0.027780 0.000003
s 0
f 3/1/1 2/2/1 1/3/1
f 5/4/1 4/5/1 3/1/1
f 7/6/1 3/1/1 1/3/1
f 9/7/1 8/8/1 7/6/1
f 11/9/1 10/10/1 9/7/1
f 13/11/1 12/12/1 11/9/1
f 16/13/1 8/8/1 10/10/1
f 18/14/1 12/12/1 14/15/1
f 21/16/2 19/17/2 20/18/2
f 22/19/2 24/20/2 19/17/2
f 19/17/2 26/21/2 20/18/2
f 25/22/2 28/23/2 26/21/2
f 27/24/2 30/25/2 28/23/2
f 29/26/2 32/27/2 30/25/2
f 25/22/2 34/28/2 27/24/2
f 29/26/2 36/29/2 31/30/2
f 12/31/3 27/24/3 10/32/3
f 1/3/4 26/21/4 7/6/4
f 14/33/5 36/29/5 18/34/5
f 2/2/4 20/18/4 1/3/4
f 13/35/5 31/30/5 14/33/5
f 8/36/3 19/17/3 3/37/3
f 17/38/6 29/39/6 12/12/6
f 4/5/6 21/40/6 2/2/6
f 11/9/4 32/27/4 13/11/4
f 7/6/4 28/23/4 9/7/4
f 5/41/3 23/42/3 6/43/3
f 16/44/3 33/45/3 15/46/3
f 3/37/5 24/20/5 5/47/5
f 10/32/5 34/28/5 16/48/5
f 6/49/6 22/50/6 4/5/6
f 15/51/6 25/52/6 8/8/6
f 9/7/4 30/25/4 11/9/4
f 18/53/3 35/54/3 17/55/3
f 39/56/1 38/57/1 37/58/1
f 43/59/1 42/60/1 41/61/1
f 45/62/1 44/63/1 43/59/1
f 48/64/1 44/63/1 46/65/1
f 50/66/1 47/67/1 48/64/1
f 52/68/1 47/67/1 49/69/1
f 51/70/1 54/71/1 53/72/1
f 41/61/1 39/56/1 37/58/1
f 55/73/1 56/74/1 39/56/1
f 39/56/1 42/60/1 53/72/1
f 55/73/1 53/72/1 54/71/1
f 60/75/2 58/76/2 59/77/2
f 62/78/2 65/79/2 63/80/2
f 64/81/2 67/82/2 65/79/2
f 64/81/2 69/83/2 66/84/2
f 68/85/2 71/86/2 69/83/2
f 68/85/2 73/87/2 70/88/2
f 72/89/2 74/90/2 73/87/2
f 58/76/2 63/80/2 59/77/2
f 76/91/2 77/92/2 78/93/2
f 58/76/2 75/94/2 62/78/2
f 75/94/2 76/91/2 74/90/2
f 55/95/7 78/93/7 57/96/7
f 49/97/3 73/87/3 52/98/3
f 42/99/5 75/100/5 53/101/5
f 37/58/4 63/80/4 41/61/4
f 51/102/4 68/103/4 47/104/4
f 46/105/5 69/83/5 48/106/5
f 52/68/8 74/107/8 54/71/8
f 47/104/6 64/108/6 44/109/6
f 43/59/4 63/80/4 65/79/4
f 53/101/9 72/110/9 51/102/9
f 50/111/3 70/88/3 49/97/3
f 56/112/10 58/113/10 39/114/10
f 44/109/3 62/115/3 42/116/3
f 38/57/4 59/77/4 37/58/4
f 48/106/5 71/86/5 50/117/5
f 45/118/5 66/84/5 46/105/5
f 55/73/8 74/107/8 76/119/8
f 40/120/6 60/121/6 38/57/6
f 43/59/4 67/82/4 45/62/4
f 57/122/6 77/123/6 56/74/6
f 40/124/3 58/113/3 61/99/3
f 81/125/1 80/126/1 79/127/1
f 83/128/1 81/125/1 79/127/1
f 85/129/1 84/130/1 83/128/1
f 90/131/1 84/130/1 86/132/1
f 87/133/1 82/134/1 81/125/1
f 94/135/1 89/136/1 90/131/1
f 91/137/1 88/138/1 87/133/1
f 91/137/1 89/136/1 93/139/1
f 97/140/2 95/141/2 96/142/2
f 95/141/2 100/143/2 96/142/2
f 99/144/2 102/145/2 100/143/2
f 99/144/2 106/146/2 101/147/2
f 98/148/2 104/149/2 95/141/2
f 105/150/2 110/151/2 106/146/2
f 103/152/2 108/153/2 104/149/2
f 105/150/2 108/153/2 109/154/2
f 89/155/6 99/156/6 84/157/6
f 84/157/3 95/158/3 81/159/3
f 92/160/6 103/161/6 88/138/6
f 81/162/5 104/163/5 87/164/5
f 85/165/5 101/147/5 86/166/5
f 93/167/3 108/153/3 91/168/3
f 88/138/6 98/169/6 82/134/6
f 83/128/4 102/145/4 85/129/4
f 87/164/4 105/170/4 89/155/4
f 80/126/4 96/142/4 79/127/4
f 91/168/3 107/171/3 92/172/3
f 82/134/6 97/173/6 80/126/6
f 94/174/3 109/154/3 93/167/3
f 90/175/5 110/151/5 94/176/5
f 86/166/5 106/146/5 90/175/5
f 79/127/4 100/143/4 83/128/4
f 113/177/1 112/178/1 111/179/1
f 117/180/1 116/181/1 115/182/1
f 119/183/1 118/184/1 117/180/1
f 122/185/1 118/184/1 120/186/1
f 124/187/1 121/188/1 122/185/1
f 126/189/1 121/188/1 123/190/1
f 125/191/1 128/192/1 127/193/1
f 115/182/1 113/177/1 111/179/1
f 129/194/1 130/195/1 113/177/1
f 113/177/1 116/181/1 127/193/1
f 129/194/1 127/193/1 128/192/1
f 134/196/2 132/197/2 133/198/2
f 136/199/2 139/200/2 137/201/2
f 138/202/2 141/203/2 139/200/2
f 138/202/2 143/204/2 140/205/2
f 142/206/2 145/207/2 143/204/2
f 142/206/2 147/208/2 144/209/2
f 146/210/2 148/211/2 147/208/2
f 132/197/2 137/201/2 133/198/2
f 150/212/2 151/213/2 152/214/2
f 132/197/2 149/215/2 136/199/2
f 149/215/2 150/212/2 148/211/2
f 129/216/7 152/214/7 131/217/7
f 123/218/3 147/208/3 126/219/3
f 116/220/5 149/221/5 127/222/5
f 111/179/4 137/201/4 115/182/4
f 125/223/4 142/224/4 121/225/4
f 120/226/5 143/204/5 122/227/5
f 126/189/8 148/228/8 128/192/8
f 121/225/6 138/229/6 118/230/6
f 117/180/4 137/201/4 139/200/4
f 127/222/9 146/231/9 125/223/9
f 124/232/3 144/209/3 123/218/3
f 113/233/10 151/234/10 132/235/10
f 118/230/3 136/236/3 116/237/3
f 112/178/4 133/198/4 111/179/4
f 122/227/5 145/207/5 124/238/5
f 119/239/5 140/205/5 120/226/5
f 128/192/8 150/240/8 129/194/8
f 114/241/6 134/242/6 112/178/6
f 117/180/4 141/203/4 119/183/4
f 131/243/6 151/244/6 130/195/6
f 114/245/3 132/235/3 135/220/3
f 155/246/1 154/247/1 153/248/1
f 159/249/1 158/250/1 157/251/1
f 161/252/1 160/253/1 159/249/1
f 164/254/1 160/253/1 162/255/1
f 166/256/1 163/257/1 164/254/1
f 168/258/1 163/257/1 165/259/1
f 167/260/1 170/261/1 169/262/1
f 157/251/1 155/246/1 153/248/1
f 171/263/1 172/264/1 155/246/1
f 155/246/1 158/250/1 169/262/1
f 171/263/1 169/262/1 170/261/1
f 176/265/2 174/266/2 175/267/2
f 178/268/2 181/269/2 179/270/2
f 180/271/2 183/272/2 181/269/2
f 180/271/2 185/273/2 182/274/2
f 184/275/2 187/276/2 185/273/2
f 184/275/2 189/277/2 186/278/2
f 188/279/2 190/280/2 189/277/2
f 174/266/2 179/270/2 175/267/2
f 192/281/2 193/282/2 194/283/2
f 174/266/2 191/284/2 178/268/2
f 191/284/2 192/281/2 190/280/2
f 171/285/7 194/283/7 173/286/7
f 165/287/3 189/277/3 168/288/3
f 158/289/5 191/290/5 169/291/5
f 153/248/4 179/270/4 157/251/4
f 167/292/4 184/293/4 163/294/4
f 162/295/5 185/273/5 164/296/5
f 168/258/8 190/297/8 170/261/8
f 163/294/6 180/298/6 160/299/6
f 159/249/4 179/270/4 181/269/4
f 169/291/9 188/300/9 167/292/9
f 166/301/3 186/278/3 165/287/3
f 172/302/10 174/303/10 155/304/10
f 160/299/3 178/305/3 158/306/3
f 154/247/4 175/267/4 153/248/4
f 164/296/5 187/276/5 166/307/5
f 161/308/5 182/274/5 162/295/5
f 170/261/8 192/309/8 171/263/8
f 156/310/6 176/311/6 154/247/6
f 159/249/4 183/272/4 161/252/4
f 173/312/6 193/313/6 172/264/6
f 156/314/3 174/303/3 177/289/3
f 3/1/1 4/5/1 2/2/1
f 5/4/1 6/49/1 4/5/1
f 7/6/1 8/8/1 3/1/1
f 9/7/1 10/10/1 8/8/1
f 11/9/1 12/12/1 10/10/1
f 13/11/1 14/15/1 12/12/1
f 16/13/1 15/51/1 8/8/1
f 18/14/1 17/38/1 12/12/1
f 21/16/2 22/19/2 19/17/2
f 22/19/2 23/42/2 24/20/2
f 19/17/2 25/22/2 26/21/2
f 25/22/2 27/24/2 28/23/2
f 27/24/2 29/26/2 30/25/2
f 29/26/2 31/30/2 32/27/2
f 25/22/2 33/45/2 34/28/2
f 29/26/2 35/54/2 36/29/2
f 12/31/3 29/26/3 27/24/3
f 1/3/4 20/18/4 26/21/4
f 14/33/5 31/30/5 36/29/5
f 2/2/4 21/16/4 20/18/4
f 13/35/5 32/27/5 31/30/5
f 8/36/3 25/22/3 19/17/3
f 17/38/6 35/315/6 29/39/6
f 4/5/6 22/50/6 21/40/6
f 11/9/4 30/25/4 32/27/4
f 7/6/4 26/21/4 28/23/4
f 5/41/3 24/20/3 23/42/3
f 16/44/3 34/28/3 33/45/3
f 3/37/5 19/17/5 24/20/5
f 10/32/5 27/24/5 34/28/5
f 6/49/6 23/316/6 22/50/6
f 15/51/6 33/317/6 25/52/6
f 9/7/4 28/23/4 30/25/4
f 18/53/3 36/29/3 35/54/3
f 39/56/1 40/120/1 38/57/1
f 43/59/1 44/63/1 42/60/1
f 45/62/1 46/65/1 44/63/1
f 48/64/1 47/67/1 44/63/1
f 50/66/1 49/69/1 47/67/1
f 52/68/1 51/70/1 47/67/1
f 51/70/1 52/68/1 54/71/1
f 41/61/1 42/60/1 39/56/1
f 55/73/1 57/122/1 56/74/1
f 55/73/1 39/56/1 53/72/1
f 60/75/2 61/318/2 58/76/2
f 62/78/2 64/81/2 65/79/2
f 64/81/2 66/84/2 67/82/2
f 64/81/2 68/85/2 69/83/2
f 68/85/2 70/88/2 71/86/2
f 68/85/2 72/89/2 73/87/2
f 72/89/2 75/94/2 74/90/2
f 58/76/2 62/78/2 63/80/2
f 76/91/2 58/76/2 77/92/2
f 75/94/2 58/76/2 76/91/2
f 55/95/7 76/91/7 78/93/7
f 49/97/3 70/88/3 73/87/3
f 42/99/5 62/319/5 75/100/5
f 37/58/4 59/77/4 63/80/4
f 51/102/4 72/110/4 68/103/4
f 46/105/5 66/84/5 69/83/5
f 52/68/8 73/320/8 74/107/8
f 47/104/6 68/103/6 64/108/6
f 43/59/4 41/61/4 63/80/4
f 53/101/9 75/100/9 72/110/9
f 50/111/3 71/86/3 70/88/3
f 56/112/10 77/321/10 58/113/10
f 44/109/3 64/108/3 62/115/3
f 38/57/4 60/75/4 59/77/4
f 48/106/5 69/83/5 71/86/5
f 45/118/5 67/82/5 66/84/5
f 55/73/8 54/71/8 74/107/8
f 40/120/6 61/322/6 60/121/6
f 43/59/4 65/79/4 67/82/4
f 57/122/6 78/323/6 77/123/6
f 40/124/3 39/114/3 58/113/3
f 81/125/1 82/134/1 80/126/1
f 83/128/1 84/130/1 81/125/1
f 85/129/1 86/132/1 84/130/1
f 90/131/1 89/136/1 84/130/1
f 87/133/1 88/138/1 82/134/1
f 94/135/1 93/139/1 89/136/1
f 91/137/1 92/160/1 88/138/1
f 91/137/1 87/133/1 89/136/1
f 97/140/2 98/148/2 95/141/2
f 95/141/2 99/144/2 100/143/2
f 99/144/2 101/147/2 102/145/2
f 99/144/2 105/150/2 106/146/2
f 98/148/2 103/152/2 104/149/2
f 105/150/2 109/154/2 110/151/2
f 103/152/2 107/171/2 108/153/2
f 105/150/2 104/149/2 108/153/2
f 89/155/6 105/170/6 99/156/6
f 84/157/3 99/156/3 95/158/3
f 92/160/6 107/324/6 103/161/6
f 81/162/5 95/325/5 104/163/5
f 85/165/5 102/145/5 101/147/5
f 93/167/3 109/154/3 108/153/3
f 88/138/6 103/161/6 98/169/6
f 83/128/4 100/143/4 102/145/4
f 87/164/4 104/163/4 105/170/4
f 80/126/4 97/140/4 96/142/4
f 91/168/3 108/153/3 107/171/3
f 82/134/6 98/169/6 97/173/6
f 94/174/3 110/151/3 109/154/3
f 90/175/5 106/146/5 110/151/5
f 86/166/5 101/147/5 106/146/5
f 79/127/4 96/142/4 100/143/4
f 113/177/1 114/241/1 112/178/1
f 117/180/1 118/184/1 116/181/1
f 119/183/1 120/186/1 118/184/1
f 122/185/1 121/188/1 118/184/1
f 124/187/1 123/190/1 121/188/1
f 126/189/1 125/191/1 121/188/1
f 125/191/1 126/189/1 128/192/1
f 115/182/1 116/181/1 113/177/1
f 129/194/1 131/243/1 130/195/1
f 129/194/1 113/177/1 127/193/1
f 134/196/2 135/326/2 132/197/2
f 136/199/2 138/202/2 139/200/2
f 138/202/2 140/205/2 141/203/2
f 138/202/2 142/206/2 143/204/2
f 142/206/2 144/209/2 145/207/2
f 142/206/2 146/210/2 147/208/2
f 146/210/2 149/215/2 148/211/2
f 132/197/2 136/199/2 137/201/2
f 150/212/2 132/197/2 151/213/2
f 149/215/2 132/197/2 150/212/2
f 129/216/7 150/212/7 152/214/7
f 123/218/3 144/209/3 147/208/3
f 116/220/5 136/327/5 149/221/5
f 111/179/4 133/198/4 137/201/4
f 125/223/4 146/231/4 142/224/4
f 120/226/5 140/205/5 143/204/5
f 126/189/8 147/328/8 148/228/8
f 121/225/6 142/224/6 138/229/6
f 117/180/4 115/182/4 137/201/4
f 127/222/9 149/221/9 146/231/9
f 124/232/3 145/207/3 144/209/3
f 113/233/10 130/329/10 151/234/10
f 118/230/3 138/229/3 136/236/3
f 112/178/4 134/196/4 133/198/4
f 122/227/5 143/204/5 145/207/5
f 119/239/5 141/203/5 140/205/5
f 128/192/8 148/228/8 150/240/8
f 114/241/6 135/330/6 134/242/6
f 117/180/4 139/200/4 141/203/4
f 131/243/6 152/331/6 151/244/6
f 114/245/3 113/233/3 132/235/3
f 155/246/1 156/310/1 154/247/1
f 159/249/1 160/253/1 158/250/1
f 161/252/1 162/255/1 160/253/1
f 164/254/1 163/257/1 160/253/1
f 166/256/1 165/259/1 163/257/1
f 168/258/1 167/260/1 163/257/1
f 167/260/1 168/258/1 170/261/1
f 157/251/1 158/250/1 155/246/1
f 171/263/1 173/312/1 172/264/1
f 171/263/1 155/246/1 169/262/1
f 176/265/2 177/332/2 174/266/2
f 178/268/2 180/271/2 181/269/2
f 180/271/2 182/274/2 183/272/2
f 180/271/2 184/275/2 185/273/2
f 184/275/2 186/278/2 187/276/2
f 184/275/2 188/279/2 189/277/2
f 188/279/2 191/284/2 190/280/2
f 174/266/2 178/268/2 179/270/2
f 192/281/2 174/266/2 193/282/2
f 191/284/2 174/266/2 192/281/2
f 171/285/7 192/281/7 194/283/7
f 165/287/3 186/278/3 189/277/3
f 158/289/5 178/333/5 191/290/5
f 153/248/4 175/267/4 179/270/4
f 167/292/4 188/300/4 184/293/4
f 162/295/5 182/274/5 185/273/5
f 168/258/8 189/334/8 190/297/8
f 163/294/6 184/293/6 180/298/6
f 159/249/4 157/251/4 179/270/4
f 169/291/9 191/290/9 188/300/9
f 166/301/3 187/276/3 186/278/3
f 172/302/10 193/335/10 174/303/10
f 160/299/3 180/298/3 178/305/3
f 154/247/4 176/265/4 175/267/4
f 164/296/5 185/273/5 187/276/5
f 161/308/5 183/272/5 182/274/5
f 170/261/8 190/297/8 192/309/8
f 156/310/6 177/336/6 176/311/6
f 159/249/4 181/269/4 183/272/4
f 173/312/6 194/337/6 193/313/6
f 156/314/3 155/304/3 174/303/3
