# Blender 4.3.2
# www.blender.org
mtllib fence3.mtl
o Cube
v 0.200832 0.415023 -0.222245
v 0.200832 -0.047603 -0.222245
v 0.194397 0.335145 -2.534892
v 0.400502 0.335145 -2.534892
v 0.400502 -0.127481 -2.534892
v 0.194397 -0.127481 -2.534892
v -0.005273 0.415023 -0.222245
v -0.005273 -0.047603 -0.222245
v 0.204884 2.077374 -2.140556
v 0.159551 1.649598 -2.267704
v -0.020655 2.077374 -2.140556
v -0.065989 1.649598 -2.267704
v 0.110490 0.404570 -2.380051
v -0.095615 0.404570 -2.380051
v 0.204884 2.077374 -2.337325
v 0.159551 1.649598 -2.464473
v -0.020655 2.077374 -2.337325
v -0.065989 1.649598 -2.464473
v -0.040805 2.188668 -2.105031
v 0.184734 2.188668 -2.105031
v -0.040805 2.188668 -2.301800
v 0.184734 2.188668 -2.301800
v -0.112770 -0.041468 -2.456633
v 0.112770 -0.041468 -2.456633
v -0.112770 -0.041468 -2.653402
v 0.112770 -0.041468 -2.653402
v -0.105332 0.880207 -2.374917
v 0.030293 0.685292 -1.702955
v 0.247536 0.685292 -1.702955
v 0.120207 0.880207 -2.374917
v -0.105332 0.880207 -2.571686
v -0.105332 0.407896 -2.571686
v 0.120207 0.880207 -2.571686
v 0.120207 0.407896 -2.571686
v 0.247536 1.147918 -1.702955
v 0.030293 1.147918 -1.702955
v -0.083454 -0.039622 -1.200037
v 0.122651 -0.039622 -1.200037
v 0.122651 0.423004 -1.200037
v -0.083454 0.423004 -1.200037
v 0.620571 -0.095646 -0.589469
v 0.623225 0.376997 -0.614467
v 0.415883 0.376997 -0.614467
v 0.413229 -0.095646 -0.589469
vn -0.0000 -0.5054 -0.8629
vn -0.0000 -0.0000 1.0000
vn 0.9790 -0.0000 0.2038
vn -0.9790 -0.0000 -0.2038
vn -0.0000 -0.9978 0.0657
vn -0.0000 0.9978 -0.0657
vn -0.0000 -0.1692 0.9856
vn 0.9800 -0.0463 -0.1938
vn -0.0000 0.4260 0.9047
vn -0.9858 -0.0000 0.1681
vn -0.0000 -0.0000 -1.0000
vn -0.0000 0.2849 -0.9586
vn 0.9944 -0.1054 -0.0000
vn 0.9840 0.1782 -0.0000
vn -0.9944 0.1054 -0.0000
vn -0.0000 1.0000 -0.0000
vn -0.0000 -0.3041 0.9526
vn -0.9840 -0.1782 -0.0000
vn -0.0000 0.3041 -0.9526
vn -0.0000 -1.0000 -0.0000
vn -0.9983 0.0296 0.0511
vn -0.0000 0.1789 -0.9839
vn 0.9999 -0.0165 -0.0000
vn 0.9987 -0.0511 -0.0000
vn 1.0000 -0.0000 -0.0000
vn -0.0000 0.1380 -0.9904
vn -0.9987 0.0511 -0.0000
vn -0.9985 -0.0209 0.0503
vn -0.0000 -0.1380 0.9904
vn -0.0000 -0.0108 0.9999
vn -0.9403 0.0232 0.3397
vn -0.0000 0.8161 0.5780
vn 0.9453 -0.0000 -0.3263
vn -0.0000 -0.8187 -0.5742
vn -0.9968 -0.0000 0.0797
vn -0.0000 1.0000 0.0082
vn 0.9968 -0.0000 -0.0797
vn -0.0000 -1.0000 -0.0082
vn -0.0000 0.0528 0.9986
vn 0.9881 -0.0000 -0.1539
vn -0.9779 0.0428 0.2047
vn -0.9999 0.0165 -0.0000
vn 0.9987 -0.0036 0.0506
vn 0.9985 -0.0209 0.0503
vn -1.0000 -0.0000 -0.0000
vn -0.9426 -0.0000 0.3339
vn 0.9430 -0.0229 -0.3320
vt 0.678799 0.693896
vt 0.725452 0.496990
vt 0.725452 0.698314
vt 0.781448 0.492403
vt 0.825907 0.592175
vt 0.781448 0.592175
vt 0.102552 0.707033
vt 0.011724 0.989607
vt 0.002818 0.703624
vt 0.126055 0.707149
vt 0.216828 0.988731
vt 0.117094 0.992156
vt 0.266355 0.704843
vt 0.275719 0.993360
vt 0.231425 0.997182
vt 0.360579 0.704843
vt 0.351215 0.993360
vt 0.316285 0.701021
vt 0.509985 0.762835
vt 0.462388 0.858098
vt 0.465543 0.761608
vt 0.658422 0.225008
vt 0.533291 0.119968
vt 0.558728 0.026988
vt 0.671382 0.715563
vt 0.620170 0.520151
vt 0.668706 0.516808
vt 0.253608 0.224998
vt 0.379030 0.119969
vt 0.251078 0.324759
vt 0.831542 0.592022
vt 0.876001 0.492403
vt 0.876001 0.592022
vt 0.408146 0.518711
vt 0.451025 0.610686
vt 0.402419 0.612784
vt 0.516326 0.028050
vt 0.523215 0.003880
vt 0.565617 0.002818
vt 0.395869 0.028061
vt 0.421407 0.121038
vt 0.913752 0.057104
vt 0.956189 0.105756
vt 0.913752 0.105756
vt 0.622845 0.495747
vt 0.671382 0.492404
vt 0.353492 0.026992
vt 0.389047 0.003886
vt 0.451357 0.492403
vt 0.456752 0.516613
vt 0.956189 0.051469
vt 0.913752 0.002818
vt 0.956189 0.002818
vt 0.438135 0.389417
vt 0.410981 0.485699
vt 0.396740 0.389084
vt 0.405531 0.881648
vt 0.456752 0.977335
vt 0.408146 0.979433
vt 0.474219 0.389413
vt 0.501395 0.485700
vt 0.458993 0.486763
vt 0.490889 0.121031
vt 0.514055 0.286501
vt 0.471652 0.287563
vt 0.449751 0.777941
vt 0.401145 0.780039
vt 0.398342 0.286499
vt 0.511020 0.493746
vt 0.466279 0.658989
vt 0.462388 0.492403
vt 0.514912 0.660331
vt 0.010757 0.384981
vt 0.002818 0.486768
vt 0.570432 0.507523
vt 0.614534 0.737732
vt 0.570432 0.753573
vt 0.900182 0.384974
vt 0.660937 0.324769
vt 0.564796 0.507128
vt 0.520547 0.742603
vt 0.522564 0.492403
vt 0.216828 0.492403
vt 0.117094 0.495828
vt 0.351215 0.492403
vt 0.011724 0.492403
vt 0.275719 0.492404
vt 0.231425 0.496226
vt 0.731087 0.594224
vt 0.775812 0.492655
vt 0.775812 0.594475
vt 0.677017 0.492404
vt 0.825907 0.492403
vt 0.111459 0.993016
vt 0.225789 0.703724
vt 0.310649 0.701021
vt 0.395509 0.997182
vt 0.511020 0.859441
vt 0.624631 0.718784
vt 0.831542 0.492403
vt 0.956189 0.057104
vt 0.346670 0.002818
vt 0.402751 0.494502
vt 0.913752 0.051469
vt 0.453358 0.486768
vt 0.454137 0.879550
vt 0.515456 0.389105
vt 0.440719 0.287567
vt 0.612525 0.492403
vt 0.908117 0.486763
vt 0.564796 0.758031
vt 0.395509 0.496226
vt 0.111459 0.495813
vt 0.731087 0.492403
s 0
usemtl Material
f 28/1/1 10/2/1 29/3/1
f 1/4/2 8/5/2 2/6/2
f 38/7/3 4/8/3 39/9/3
f 37/10/4 3/11/4 6/12/4
f 38/13/5 6/14/5 5/15/5
f 39/16/6 3/17/6 40/18/6
f 14/19/7 24/20/7 13/21/7
f 35/22/8 10/23/8 9/24/8
f 36/25/9 9/26/9 11/27/9
f 36/28/10 12/29/10 28/30/10
f 6/31/11 4/32/11 5/33/11
f 17/34/12 16/35/12 18/36/12
f 10/23/13 15/37/13 9/24/13
f 9/24/14 22/38/14 20/39/14
f 12/29/15 17/40/15 18/41/15
f 20/42/16 21/43/16 19/44/16
f 11/27/17 20/45/17 19/46/17
f 11/47/18 21/48/18 17/40/18
f 17/34/19 22/49/19 15/50/19
f 23/51/20 26/52/20 24/53/20
f 32/54/21 23/55/21 14/56/21
f 32/57/22 26/58/22 25/59/22
f 34/60/23 24/61/23 26/62/23
f 16/63/24 30/64/24 33/65/24
f 30/64/25 34/60/25 33/65/25
f 18/36/26 33/66/26 31/67/26
f 33/66/11 32/57/11 31/67/11
f 18/41/27 27/68/27 12/29/27
f 27/68/28 32/54/28 14/56/28
f 12/69/29 30/70/29 10/71/29
f 27/72/30 13/21/30 30/70/30
f 43/73/31 28/30/31 44/74/31
f 43/75/32 35/76/32 36/77/32
f 42/78/33 29/79/33 35/22/33
f 44/80/34 29/81/34 41/82/34
f 7/83/35 37/10/35 8/84/35
f 7/85/36 39/16/36 40/18/36
f 1/86/37 38/7/37 39/9/37
f 8/87/38 38/13/38 2/88/38
f 41/89/39 43/90/39 44/91/39
f 28/1/1 12/92/1 10/2/1
f 1/4/2 7/93/2 8/5/2
f 38/7/3 5/94/3 4/8/3
f 37/10/4 40/95/4 3/11/4
f 38/13/5 37/96/5 6/14/5
f 39/16/6 4/97/6 3/17/6
f 14/19/7 23/98/7 24/20/7
f 35/22/40 29/79/40 10/23/40
f 36/25/9 35/99/9 9/26/9
f 36/28/41 11/47/41 12/29/41
f 6/31/11 3/100/11 4/32/11
f 17/34/12 15/50/12 16/35/12
f 10/23/13 16/63/13 15/37/13
f 9/24/14 15/37/14 22/38/14
f 12/29/15 11/47/15 17/40/15
f 20/42/16 22/101/16 21/43/16
f 11/27/17 9/26/17 20/45/17
f 11/47/18 19/102/18 21/48/18
f 17/34/19 21/103/19 22/49/19
f 23/51/20 25/104/20 26/52/20
f 32/54/42 25/105/42 23/55/42
f 32/57/22 34/106/22 26/58/22
f 34/60/43 13/107/43 24/61/43
f 16/63/24 10/23/24 30/64/24
f 30/64/44 13/107/44 34/60/44
f 18/36/26 16/35/26 33/66/26
f 33/66/11 34/106/11 32/57/11
f 18/41/27 31/108/27 27/68/27
f 27/68/45 31/108/45 32/54/45
f 12/69/29 27/72/29 30/70/29
f 27/72/30 14/19/30 13/21/30
f 43/73/46 36/28/46 28/30/46
f 43/75/32 42/109/32 35/76/32
f 42/78/47 41/110/47 29/79/47
f 44/80/34 28/111/34 29/81/34
f 7/83/35 40/95/35 37/10/35
f 7/85/36 1/112/36 39/16/36
f 1/86/37 2/113/37 38/7/37
f 8/87/38 37/96/38 38/13/38
f 41/89/39 42/114/39 43/90/39
