# Blender v3.0.1 OBJ File: ''
# www.blender.org
mtllib FlashlightBody1.mtl
o Cylinder
v 0.248911 1.119480 1.503535
v 0.574084 0.818797 -1.438918
v 0.217044 0.976162 -1.438918
v 0.658370 0.939011 1.503535
v 0.843724 0.536777 -1.438918
v 0.967599 0.615586 1.503535
v 1.057703 0.188136 0.190284
v 1.040898 0.186497 -0.330354
v 1.014413 0.052840 -0.508956
v 1.010323 -0.127180 -0.509985
v 0.976162 -0.217044 -1.438918
v 1.050774 -0.231378 0.187742
v 0.939011 -0.658370 1.503535
v 0.818797 -0.574084 -1.438918
v 0.536777 -0.843724 -1.438918
v 0.198443 -1.129519 1.503535
v 0.173038 -0.984915 -1.438918
v -0.217044 -0.976162 -1.438918
v -0.658370 -0.939011 1.503535
v -0.574084 -0.818797 -1.438918
v -0.843724 -0.536777 -1.438918
v -0.967599 -0.615586 1.503535
v -0.984915 -0.173038 -1.438918
v -1.129519 -0.198443 1.503535
v -0.976162 0.217044 -1.438918
v -1.119480 0.248911 1.503535
v -0.818797 0.574084 -1.438918
v -0.615586 0.967598 1.503535
v -0.536777 0.843724 -1.438918
v -0.583249 -0.371063 1.449498
v 0.371063 -0.583249 1.449498
v 0.583249 0.371062 1.449498
v -0.173038 0.984915 -1.438918
v -0.648894 0.454960 -1.438918
v -0.773606 0.172008 -3.938746
v -0.773606 0.172007 -1.438918
v 0.150038 0.674800 1.449498
v 0.396852 0.566016 1.449498
v 0.680851 0.119617 1.449498
v 0.674800 -0.150038 1.449498
v 1.129519 0.198443 1.503535
v 0.566017 -0.396852 1.449498
v 1.119480 -0.248911 1.503535
v 0.119618 -0.680851 1.449498
v 0.615586 -0.967599 1.503535
v -0.150038 -0.674800 1.449498
v -0.396852 -0.566017 1.449498
v -0.248911 -1.119480 1.503535
v -0.680851 -0.119618 1.449498
v -0.674800 0.150038 1.449498
v -0.939011 0.658370 1.503535
v -0.371063 0.583248 1.449498
v -0.566017 0.396852 1.449498
v -0.119618 0.680851 1.449498
v -0.198443 1.129519 1.503535
v 0.172007 0.773606 -1.438918
v 0.454960 0.648894 -1.438918
v 0.668649 0.425394 -1.438918
v 0.780543 0.137132 -1.438918
v 0.984915 0.173038 -1.438918
v 0.773606 -0.172007 -1.438918
v 0.648894 -0.454960 -1.438918
v 0.425394 -0.668649 -1.438918
v 0.137132 -0.780543 -1.438918
v -0.172007 -0.773606 -1.438918
v -0.454960 -0.648894 -1.438918
v -0.668649 -0.425394 -1.438918
v -0.780543 -0.137132 -1.438918
v -0.425394 0.668649 -1.438918
v -0.137132 0.780543 -1.438918
v 0.137132 -0.780542 -3.938746
v -0.780543 -0.137131 -3.938746
v -0.137132 0.780544 -3.938746
v 0.648894 -0.454959 -3.938746
v -0.648894 0.454961 -3.938746
v 0.425394 -0.668648 -3.938746
v -0.425395 0.668650 -3.938746
v 0.454960 0.648895 -3.938746
v 0.172007 0.773607 -3.938746
v -0.172007 -0.773605 -3.938746
v -0.454960 -0.648893 -3.938746
v 0.780543 0.137133 -3.938746
v 0.668649 0.425396 -3.938746
v -0.668649 -0.425393 -3.938746
v 0.773606 -0.172006 -3.938746
v 1.082018 0.052298 0.389289
v 1.291376 -0.089079 0.354038
v 1.296016 0.089865 0.366811
v 1.077377 -0.126646 0.376516
v 1.264773 -0.193811 0.165264
v 1.301332 0.098081 -0.508180
v 1.271702 0.225704 0.167806
v 1.249328 -0.183790 -0.329434
v 1.035330 -0.221357 -0.306956
v 1.254896 0.224065 -0.352832
v 1.297242 -0.081939 -0.509209
vt 0.206215 0.000465
vt 0.241572 0.406425
vt 0.196923 0.405675
vt 0.257419 0.310721
vt 0.310346 0.715182
vt 0.272298 0.715906
vt 0.301053 0.309890
vt 0.358768 0.490525
vt 0.358704 0.562213
vt 0.377054 0.586951
vt 0.401835 0.587210
vt 0.413696 0.715182
vt 0.416509 0.491140
vt 0.476424 0.310721
vt 0.463265 0.715906
vt 0.175031 0.811633
vt 0.115040 0.406826
vt 0.163271 0.406425
vt 0.058256 0.812093
vt 0.061446 0.406826
vt 0.010648 0.406425
vt 0.682044 0.309599
vt 0.638455 0.715690
vt 0.632436 0.310382
vt 0.578738 0.310657
vt 0.576873 0.716005
vt 0.529125 0.310382
vt 0.519975 0.715690
vt 0.491149 0.309599
vt -0.000000 0.001325
vt 0.046941 0.405675
vt 0.017108 0.406425
vt 0.085417 0.000000
vt 0.091590 0.405270
vt 0.465011 0.233912
vt 0.333055 0.207663
vt 0.359303 0.075703
vt 0.144256 0.405270
vt 0.718986 0.310217
vt 0.695346 0.654879
vt 0.695346 0.310902
vt 0.430717 0.061498
vt 0.381424 -0.000000
vt 0.443005 0.000000
vt 0.393597 0.061498
vt 0.333055 0.101951
vt 0.324530 0.023566
vt 0.318850 0.136246
vt 0.280986 0.067112
vt 0.318850 0.173367
vt 0.257419 0.124006
vt 0.257419 0.185589
vt 0.359303 0.233911
vt 0.280986 0.242485
vt 0.393597 0.248117
vt 0.324530 0.286031
vt 0.430717 0.248118
vt 0.381424 0.309598
vt 0.443005 0.309599
vt 0.491259 0.207664
vt 0.499898 0.286032
vt 0.505464 0.173369
vt 0.543443 0.242487
vt 0.567009 0.124009
vt 0.567009 0.185592
vt 0.491259 0.101953
vt 0.505464 0.136248
vt 0.465011 0.075704
vt 0.543443 0.067114
vt 0.499898 0.023568
vt 0.808963 0.113703
vt 0.836972 0.161831
vt 0.808963 0.156260
vt 0.816422 0.211442
vt 0.792677 0.195576
vt 0.762585 0.225668
vt 0.778451 0.249413
vt 0.728840 0.269963
vt 0.723268 0.241954
vt 0.675141 0.269963
vt 0.680712 0.241954
vt 0.625529 0.249413
vt 0.641395 0.225668
vt 0.611303 0.195576
vt 0.587559 0.211442
vt 0.567009 0.161831
vt 0.595018 0.156260
vt 0.595018 0.113703
vt 0.567009 0.108132
vt 0.587559 0.058521
vt 0.611303 0.074386
vt 0.625529 0.020550
vt 0.641395 0.044295
vt 0.675141 0.000000
vt 0.680712 0.028009
vt 0.723268 0.028009
vt 0.728840 0.000000
vt 0.778451 0.020550
vt 0.762585 0.044295
vt 0.792677 0.074386
vt 0.816422 0.058521
vt 0.836972 0.108132
vt 0.455079 0.883473
vt 0.303797 0.913565
vt 0.273705 0.762283
vt 0.955963 0.653939
vt 0.994185 0.309599
vt 0.994185 0.653574
vt 0.754369 0.309759
vt 0.718986 0.654194
vt 0.913489 0.653990
vt 0.955963 0.309963
vt 0.796106 0.309599
vt 0.754369 0.653736
vt 0.873232 0.653722
vt 0.913489 0.310015
vt 0.837846 0.309759
vt 0.873232 0.654193
vt 0.837846 0.653736
vt 0.796106 0.653575
vt 0.958650 1.000000
vt 0.997967 0.655654
vt 0.997967 0.999581
vt 0.816536 0.999538
vt 0.846685 0.654879
vt 0.846685 0.998822
vt 0.916094 1.000000
vt 0.958650 0.656073
vt 0.777188 0.655980
vt 0.816536 0.655594
vt 0.876777 0.999581
vt 0.916094 0.656073
vt 0.777188 0.999924
vt 0.734632 0.655978
vt 0.846685 0.998806
vt 0.876777 0.655654
vt 0.695346 0.999532
vt 0.734632 0.999922
vt 0.256927 0.480735
vt 0.232770 0.455680
vt 0.256927 0.450815
vt 0.377518 0.463143
vt 0.357995 0.309599
vt 0.419577 0.309890
vt 0.225190 0.648877
vt 0.246710 0.619938
vt 0.254796 0.645596
vt 0.179944 0.625353
vt 0.214884 0.647654
vt 0.175031 0.650699
vt 0.176964 0.553741
vt 0.205080 0.527671
vt 0.207013 0.554617
vt 0.215277 0.526926
vt 0.244490 0.551846
vt 0.214884 0.555128
vt 0.209993 0.626229
vt 0.217104 0.623219
vt 0.232770 0.446400
vt 0.257155 0.410840
vt 0.257155 0.450815
vt 0.231092 0.427297
vt 0.214690 0.526795
vt 0.175031 0.499753
vt 0.257419 0.001325
vt 0.359998 0.714927
vt 0.414854 0.559248
vt 0.119719 0.812093
vt 0.000000 0.811633
vt 0.695346 0.714792
vt 0.476424 0.714792
vt 0.034213 0.000465
vt 0.145816 0.000000
vt 0.303797 0.732192
vt 0.343114 0.715906
vt 0.385670 0.715906
vt 0.424987 0.732192
vt 0.455079 0.762283
vt 0.471364 0.801600
vt 0.471364 0.844156
vt 0.424987 0.913565
vt 0.385670 0.929851
vt 0.343114 0.929851
vt 0.273705 0.883473
vt 0.257419 0.844157
vt 0.257419 0.801600
vt 0.873232 0.309746
vt 0.873232 0.310217
vt 0.846685 0.654879
vt 0.695346 0.655589
vt 0.232770 0.485599
vt 0.402145 0.465019
vt 0.175031 0.526795
vt 0.254796 0.526795
vt 0.232770 0.406425
vt 0.175031 0.431625
vt 0.188696 0.406768
vt 0.213476 0.406425
vt 0.232770 0.498966
vt 0.190025 0.525517
vn 0.2168 0.9749 -0.0498
vn 0.5734 0.8178 -0.0498
vn 0.8427 0.5361 -0.0498
vn 0.8434 0.5349 -0.0514
vn 0.9615 0.2724 -0.0376
vn 0.9581 0.2825 -0.0466
vn 0.9787 -0.2051 0.0019
vn 0.9954 0.0842 -0.0447
vn 0.9779 -0.2040 -0.0466
vn 0.9298 -0.3653 -0.0458
vn 0.8184 -0.5728 -0.0473
vn 0.8178 -0.5734 -0.0496
vn 0.5361 -0.8427 -0.0498
vn 0.1728 -0.9837 -0.0498
vn -0.2168 -0.9749 -0.0498
vn -0.5734 -0.8178 -0.0498
vn -0.8427 -0.5361 -0.0498
vn -0.9837 -0.1728 -0.0498
vn -0.9749 0.2168 -0.0498
vn -0.8178 0.5734 -0.0498
vn -0.5361 0.8427 -0.0498
vn 0.0560 0.0356 0.9978
vn -0.0356 0.0560 0.9978
vn -0.0560 -0.0356 0.9978
vn -0.1728 0.9837 -0.0498
vn -0.8188 0.5741 0.0000
vn -0.9762 0.2170 0.0000
vn -0.0144 -0.0648 0.9978
vn -0.0676 -0.0965 0.9930
vn -0.0256 -0.1150 0.9930
vn -0.0381 -0.0543 0.9978
vn -0.0653 -0.0115 0.9978
vn -0.0994 -0.0632 0.9930
vn -0.0648 0.0144 0.9978
vn -0.1160 -0.0204 0.9930
vn -0.0543 0.0381 0.9978
vn -0.1150 0.0256 0.9930
vn -0.0965 0.0676 0.9930
vn -0.0115 0.0653 0.9978
vn -0.0632 0.0994 0.9930
vn 0.0144 0.0648 0.9978
vn -0.0204 0.1160 0.9930
vn 0.0381 0.0543 0.9978
vn 0.0256 0.1150 0.9930
vn 0.0676 0.0965 0.9930
vn 0.0653 0.0115 0.9978
vn 0.0994 0.0632 0.9930
vn 0.0648 -0.0144 0.9978
vn 0.1160 0.0204 0.9930
vn 0.0965 -0.0676 0.9930
vn 0.1150 -0.0256 0.9930
vn 0.0356 -0.0560 0.9978
vn 0.0543 -0.0381 0.9978
vn 0.0115 -0.0653 0.9978
vn 0.0632 -0.0994 0.9930
vn 0.0204 -0.1160 0.9930
vn -0.0000 0.0000 -1.0000
vn 0.5368 -0.8437 -0.0000
vn 0.8188 -0.5741 -0.0000
vn -0.5368 0.8437 0.0000
vn 0.1730 -0.9849 -0.0000
vn -0.1730 0.9849 0.0000
vn -0.2170 -0.9762 -0.0000
vn 0.2170 0.9762 0.0000
vn 0.5741 0.8188 0.0000
vn -0.5741 -0.8188 -0.0000
vn 0.8437 0.5368 0.0000
vn -0.8437 -0.5368 -0.0000
vn 0.9849 0.1730 0.0000
vn -0.9849 -0.1730 -0.0000
vn 0.9762 -0.2170 -0.0000
vn 0.0289 0.3869 0.9217
vn 0.1761 -0.4939 0.8515
vn 0.0087 0.4767 0.8790
vn 0.9977 0.0464 -0.0487
vn 0.9830 0.1772 -0.0482
vn 0.9741 -0.2209 -0.0477
vn 0.1853 -0.5816 0.7921
vn 0.1913 -0.9557 0.2238
vn -0.1720 0.9289 -0.3279
vn -0.0900 0.4383 -0.8943
vn -0.0601 0.3967 -0.9160
vn -0.1321 0.9403 0.3137
vn -0.1367 0.9488 0.2847
vn 0.0782 -0.5433 -0.8359
vn 0.1498 -0.9507 -0.2716
vn 0.1457 -0.9637 -0.2239
vn -0.1984 0.9054 -0.3754
vn 0.1909 -0.9571 0.2179
vn 0.0697 -0.4267 -0.9017
vn 0.9958 -0.0611 -0.0683
vn 0.9817 0.1838 -0.0490
vn 0.9295 -0.3666 -0.0405
vn 0.9935 -0.1033 -0.0483
vn 0.8774 -0.4782 -0.0371
vn 0.9525 -0.0234 0.3037
vn 0.9910 0.1299 -0.0324
vn 0.9913 -0.0164 -0.1306
vn 0.9924 0.1041 0.0650
usemtl Default_OBJ
s 1
f 1/1/1 2/2/2 3/3/1
f 4/4/2 5/5/3 2/6/2
f 6/7/4 7/8/5 8/9/6
f 9/10/7 10/11/8 11/12/9
f 12/13/10 13/14/11 14/15/12
f 13/16/11 15/17/13 14/18/12
f 15/17/13 16/19/14 17/20/14
f 16/19/14 18/21/15 17/20/14
f 18/22/15 19/23/16 20/24/16
f 19/23/16 21/25/17 20/24/16
f 22/26/17 23/27/18 21/25/17
f 24/28/18 25/29/19 23/27/18
f 26/30/19 27/31/20 25/32/19
f 27/31/20 28/33/21 29/34/21
f 30/35/22 31/36/23 32/37/24
f 28/33/21 33/38/25 29/34/21
f 33/38/25 1/1/1 3/3/1
f 34/39/26 35/40/27 36/41/27
f 37/42/28 4/43/29 1/44/30
f 32/37/24 4/43/29 38/45/31
f 39/46/32 6/47/33 32/37/24
f 40/48/34 41/49/35 39/46/32
f 42/50/36 43/51/37 40/48/34
f 31/36/23 13/52/38 42/50/36
f 44/53/39 45/54/40 31/36/23
f 46/55/41 16/56/42 44/53/39
f 47/57/43 48/58/44 46/55/41
f 30/35/22 19/59/45 47/57/43
f 49/60/46 22/61/47 30/35/22
f 50/62/48 24/63/49 49/60/46
f 50/62/48 51/64/50 26/65/51
f 52/66/52 51/64/50 53/67/53
f 54/68/54 28/69/55 52/66/52
f 37/42/28 55/70/56 54/68/54
f 56/71/57 2/72/57 57/73/57
f 57/73/57 5/74/57 58/75/57
f 59/76/57 5/74/57 60/77/57
f 59/76/57 11/78/57 61/79/57
f 61/79/57 14/80/57 62/81/57
f 62/81/57 15/82/57 63/83/57
f 64/84/57 15/82/57 17/85/57
f 64/84/57 18/86/57 65/87/57
f 66/88/57 18/86/57 20/89/57
f 66/88/57 21/90/57 67/91/57
f 67/91/57 23/92/57 68/93/57
f 68/93/57 25/94/57 36/95/57
f 34/96/57 25/94/57 27/97/57
f 34/96/57 29/98/57 69/99/57
f 70/100/57 29/98/57 33/101/57
f 70/100/57 3/102/57 56/71/57
f 71/103/57 72/104/57 73/105/57
f 63/106/58 74/107/59 62/108/59
f 69/109/60 75/110/26 34/39/26
f 64/111/61 76/112/58 63/106/58
f 70/113/62 77/114/60 69/109/60
f 65/115/63 71/116/61 64/111/61
f 56/117/64 78/118/65 79/119/64
f 56/117/64 73/120/62 70/113/62
f 66/121/66 80/122/63 65/123/63
f 58/124/67 78/125/65 57/126/65
f 67/127/68 81/128/66 66/121/66
f 58/124/67 82/129/69 83/130/67
f 68/131/70 84/132/68 67/127/68
f 59/133/69 85/134/71 82/129/69
f 36/135/27 72/136/70 68/131/70
f 62/137/59 85/134/71 61/138/71
f 86/139/72 87/140/73 88/141/74
f 86/142/75 41/143/76 43/144/77
f 89/145/78 90/146/79 87/147/73
f 8/148/80 91/149/81 9/150/82
f 7/151/83 88/152/74 92/153/84
f 10/154/85 93/155/86 94/156/87
f 8/148/80 92/153/84 95/157/88
f 94/156/87 90/146/79 12/158/89
f 9/159/82 96/160/90 10/161/85
f 95/162/91 88/163/91 90/164/91
f 1/1/1 4/165/2 2/2/2
f 4/4/2 6/7/4 5/5/3
f 60/166/92 5/5/3 6/7/4
f 6/7/4 41/143/76 7/8/5
f 8/9/6 60/166/92 6/7/4
f 10/11/8 94/167/93 11/12/9
f 14/15/12 11/12/9 94/167/93
f 12/13/10 43/144/77 13/14/11
f 14/15/12 94/167/93 12/13/10
f 13/16/11 45/168/13 15/17/13
f 15/17/13 45/168/13 16/19/14
f 16/19/14 48/169/15 18/21/15
f 18/22/15 48/170/15 19/23/16
f 19/23/16 22/26/17 21/25/17
f 22/26/17 24/28/18 23/27/18
f 24/28/18 26/171/19 25/29/19
f 26/30/19 51/172/20 27/31/20
f 27/31/20 51/172/20 28/33/21
f 32/37/24 38/45/31 37/42/28
f 37/42/28 54/68/54 52/66/52
f 52/66/52 53/67/53 50/62/48
f 50/62/48 49/60/46 30/35/22
f 30/35/22 47/57/43 46/55/41
f 46/55/41 44/53/39 31/36/23
f 31/36/23 42/50/36 40/48/34
f 40/48/34 39/46/32 32/37/24
f 32/37/24 37/42/28 52/66/52
f 52/66/52 50/62/48 30/35/22
f 30/35/22 46/55/41 31/36/23
f 31/36/23 40/48/34 32/37/24
f 32/37/24 52/66/52 30/35/22
f 28/33/21 55/173/25 33/38/25
f 33/38/25 55/173/25 1/1/1
f 34/39/26 75/110/26 35/40/27
f 37/42/28 38/45/31 4/43/29
f 32/37/24 6/47/33 4/43/29
f 39/46/32 41/49/35 6/47/33
f 40/48/34 43/51/37 41/49/35
f 42/50/36 13/52/38 43/51/37
f 31/36/23 45/54/40 13/52/38
f 44/53/39 16/56/42 45/54/40
f 46/55/41 48/58/44 16/56/42
f 47/57/43 19/59/45 48/58/44
f 30/35/22 22/61/47 19/59/45
f 49/60/46 24/63/49 22/61/47
f 50/62/48 26/65/51 24/63/49
f 50/62/48 53/67/53 51/64/50
f 52/66/52 28/69/55 51/64/50
f 54/68/54 55/70/56 28/69/55
f 37/42/28 1/44/30 55/70/56
f 56/71/57 3/102/57 2/72/57
f 57/73/57 2/72/57 5/74/57
f 59/76/57 58/75/57 5/74/57
f 59/76/57 60/77/57 11/78/57
f 61/79/57 11/78/57 14/80/57
f 62/81/57 14/80/57 15/82/57
f 64/84/57 63/83/57 15/82/57
f 64/84/57 17/85/57 18/86/57
f 66/88/57 65/87/57 18/86/57
f 66/88/57 20/89/57 21/90/57
f 67/91/57 21/90/57 23/92/57
f 68/93/57 23/92/57 25/94/57
f 34/96/57 36/95/57 25/94/57
f 34/96/57 27/97/57 29/98/57
f 70/100/57 69/99/57 29/98/57
f 70/100/57 33/101/57 3/102/57
f 73/105/57 79/174/57 78/175/57
f 78/175/57 83/176/57 82/177/57
f 82/177/57 85/178/57 74/179/57
f 74/179/57 76/180/57 71/103/57
f 71/103/57 80/181/57 81/182/57
f 81/182/57 84/183/57 72/104/57
f 72/104/57 35/184/57 75/185/57
f 75/185/57 77/186/57 73/105/57
f 73/105/57 78/175/57 82/177/57
f 82/177/57 74/179/57 71/103/57
f 71/103/57 81/182/57 72/104/57
f 72/104/57 75/185/57 73/105/57
f 73/105/57 82/177/57 71/103/57
f 63/106/58 76/112/58 74/107/59
f 69/109/60 77/114/60 75/110/26
f 64/111/61 71/116/61 76/112/58
f 70/113/62 73/120/62 77/114/60
f 65/115/63 80/187/63 71/116/61
f 56/117/64 57/188/65 78/118/65
f 56/117/64 79/119/64 73/120/62
f 66/121/66 81/128/66 80/122/63
f 58/124/67 83/130/67 78/125/65
f 67/127/68 84/132/68 81/128/66
f 58/124/67 59/133/69 82/129/69
f 68/131/70 72/136/70 84/132/68
f 59/133/69 61/138/71 85/134/71
f 36/135/27 35/189/27 72/136/70
f 62/137/59 74/190/59 85/134/71
f 86/139/72 89/191/78 87/140/73
f 43/144/77 12/13/10 89/192/94
f 86/142/75 7/8/5 41/143/76
f 43/144/77 89/192/94 86/142/75
f 89/145/78 12/158/89 90/146/79
f 8/148/80 95/157/88 91/149/81
f 7/151/83 86/193/72 88/152/74
f 10/154/85 96/194/90 93/155/86
f 8/148/80 7/151/83 92/153/84
f 94/156/87 93/155/86 90/146/79
f 9/159/82 91/195/81 96/160/90
f 90/164/95 93/196/95 96/197/95
f 96/197/96 91/198/96 95/162/96
f 95/162/97 92/199/97 88/163/97
f 88/163/98 87/200/98 90/164/98
f 90/164/99 96/197/99 95/162/99
f 8/9/6 9/10/7 60/166/92
f 60/166/92 9/10/7 11/12/9
