# Blender 4.3.2
# www.blender.org
mtllib GenericPicture.mtl
o Cube
v 0.039983 1.710000 -1.370000
v 0.039983 -1.710000 -1.366605
v 0.039983 1.710000 1.370000
v 0.039983 -1.710000 1.370000
v -0.039983 1.710000 -1.370000
v -0.039983 -1.710000 -1.373395
v -0.039983 1.710000 1.370000
v -0.039983 -1.710000 1.370000
v 0.039983 1.500000 -1.190000
v 0.039983 -0.940000 -1.190000
v 0.039983 -0.940000 1.190000
v 0.039983 1.500000 1.190000
vn -0.0000 1.0000 -0.0000
vn -0.0000 -0.0000 1.0000
vn -1.0000 -0.0000 -0.0000
vn -0.0000 -1.0000 -0.0000
vn 1.0000 -0.0000 -0.0000
vn 0.0424 -0.0000 -0.9991
vt 0.250000 0.500000
vt 0.750000 0.500000
s 0
usemtl Material.002
f 1/1/1 5/1/1 7/1/1 3/1/1
f 4/1/2 3/1/2 7/1/2 8/1/2
f 8/1/3 7/1/3 5/1/3 6/1/3
f 6/1/4 2/1/4 4/1/4 8/1/4
f 2/1/5 10/1/5 11/1/5 4/1/5
f 6/1/6 5/1/6 1/1/6 2/1/6
f 1/1/5 9/1/5 10/1/5 2/1/5
f 4/1/5 11/1/5 12/1/5 3/1/5
f 9/2/5 12/2/5 11/2/5 10/2/5
f 3/1/5 12/1/5 9/1/5 1/1/5
