# Blender 4.3.2
# www.blender.org
mtllib lockerDoor.mtl
o Door
v 0.897946 5.619071 1.014295
v 0.897946 -0.001275 1.014295
v -0.897946 5.619071 1.014295
v -0.897946 -0.001275 1.014295
v -0.897946 -0.001275 0.809547
v -0.897946 5.619071 0.809547
v 0.897946 -0.001275 0.809547
v 0.897946 5.619071 0.809547
v -0.706830 4.745923 1.014295
v -0.706830 4.891702 1.014295
v 0.706830 4.745923 1.014295
v 0.706830 4.891702 1.014295
v -0.706830 4.745923 0.809547
v -0.706830 4.891702 0.809547
v 0.706830 4.745923 0.809547
v 0.706830 4.891702 0.809547
v -0.706830 4.461478 1.014295
v -0.706830 4.601619 1.014295
v 0.706830 4.461478 1.014295
v 0.706830 4.601619 1.014295
v 0.706830 4.601619 0.809547
v 0.706830 4.461478 0.809547
v -0.706830 4.461478 0.809547
v -0.706830 4.601619 0.809547
v 0.706830 5.041290 1.014295
v 0.706830 5.205000 1.014295
v -0.706830 5.041290 1.014295
v -0.706830 5.205000 1.014295
v 0.706830 5.205000 0.809547
v 0.706830 5.041290 0.809547
v -0.706830 5.041290 0.809547
v -0.706830 5.205000 0.809547
vn -1.0000 -0.0000 -0.0000
vn -0.0000 1.0000 -0.0000
vn 1.0000 -0.0000 -0.0000
vn -0.0000 -0.0000 1.0000
vn -0.0000 -0.0000 -1.0000
vn -0.0000 -1.0000 -0.0000
vt 0.555096 0.500000
vt 0.500000 0.000000
vt 0.500000 0.500000
vt 0.555095 1.000000
vt 0.555095 0.500000
vt 0.555095 0.000000
vt 0.610191 0.500000
vt 0.610191 0.000000
vt 0.610191 1.000000
vt -0.000000 0.500000
vt 0.036837 0.053209
vt 0.000000 0.000000
vt 0.051401 0.446791
vt 0.064709 0.053209
vt 0.051401 0.053209
vt 0.090515 0.446791
vt 0.077677 0.053209
vt 0.077677 0.446791
vt 0.102982 0.446791
vt 0.036837 0.553209
vt 0.000000 1.000000
vt 0.051401 0.946791
vt 0.064709 0.553209
vt 0.051401 0.553209
vt 0.102982 0.946791
vt 0.500000 1.000000
vt 0.090515 0.553209
vt 0.077677 0.946791
vt 0.090515 0.946791
vt 0.610191 0.393581
vt 0.665287 0.000000
vt 0.665287 0.787163
vt 0.610191 0.787163
vt 0.720382 0.787163
vt 0.734946 0.842258
vt 0.734946 0.787163
vt 0.734946 0.897354
vt 0.720382 0.842258
vt 0.720382 0.897354
vt 0.720382 0.952449
vt 0.733351 0.897354
vt 0.720382 0.393581
vt 0.665287 0.393581
vt 0.788447 0.055096
vt 0.775478 0.000000
vt 0.775478 0.055096
vt 0.775478 0.055095
vt 0.787945 0.110191
vt 0.787945 0.055095
vt 0.720382 -0.000000
vt 0.787945 0.165287
vt 0.775478 0.110191
vt 0.775478 0.165287
vt 0.775478 0.787163
vt 0.555096 0.000000
vt 0.064709 0.446791
vt 0.036837 0.446791
vt 0.090515 0.053209
vt 0.102982 0.053209
vt 0.064709 0.946791
vt 0.036837 0.946791
vt 0.077677 0.553209
vt 0.102982 0.553209
vt 0.733351 0.952449
vt 0.788447 0.000000
vt 0.775478 0.393581
s 1
usemtl Material.001
f 4/1/1 6/2/1 5/3/1
f 4/3/2 7/4/2 5/5/2
f 1/6/3 7/7/3 8/8/3
f 3/5/2 8/9/2 6/7/2
f 3/10/4 26/11/4 1/12/4
f 27/13/4 12/14/4 25/15/4
f 18/16/4 11/17/4 9/18/4
f 17/19/4 4/3/4 2/2/4
f 32/20/5 6/10/5 8/21/5
f 30/22/5 14/23/5 31/24/5
f 22/25/5 7/26/5 5/3/5
f 24/27/5 15/28/5 21/29/5
f 25/30/2 31/31/2 27/8/2
f 32/32/6 26/30/6 28/33/6
f 26/34/1 30/35/1 25/36/1
f 27/37/3 32/38/3 28/39/3
f 16/40/1 11/41/1 12/39/1
f 15/42/2 9/31/2 11/43/2
f 9/44/3 14/45/3 10/46/3
f 10/32/6 16/42/6 12/43/6
f 20/47/1 22/48/1 19/49/1
f 19/42/2 23/45/2 17/50/2
f 17/51/3 24/52/3 18/53/3
f 24/54/6 20/42/6 18/34/6
f 4/1/1 3/55/1 6/2/1
f 4/3/2 2/26/2 7/4/2
f 1/6/3 2/5/3 7/7/3
f 3/5/2 1/4/2 8/9/2
f 3/10/4 10/56/4 27/13/4
f 3/10/4 27/13/4 28/57/4
f 25/15/4 12/14/4 1/12/4
f 3/10/4 28/57/4 26/11/4
f 26/11/4 25/15/4 1/12/4
f 27/13/4 10/56/4 12/14/4
f 18/16/4 20/58/4 11/17/4
f 1/12/4 12/14/4 11/17/4
f 1/12/4 11/17/4 20/58/4
f 10/56/4 3/10/4 4/3/4
f 9/18/4 10/56/4 4/3/4
f 2/2/4 1/12/4 20/58/4
f 2/2/4 20/58/4 19/59/4
f 18/16/4 9/18/4 4/3/4
f 2/2/4 19/59/4 17/19/4
f 17/19/4 18/16/4 4/3/4
f 31/24/5 14/23/5 6/10/5
f 8/21/5 16/60/5 30/22/5
f 8/21/5 30/22/5 29/61/5
f 32/20/5 31/24/5 6/10/5
f 8/21/5 29/61/5 32/20/5
f 30/22/5 16/60/5 14/23/5
f 5/3/5 6/10/5 14/23/5
f 5/3/5 14/23/5 13/62/5
f 16/60/5 8/21/5 7/26/5
f 15/28/5 16/60/5 7/26/5
f 5/3/5 13/62/5 24/27/5
f 5/3/5 24/27/5 23/63/5
f 21/29/5 15/28/5 7/26/5
f 5/3/5 23/63/5 22/25/5
f 22/25/5 21/29/5 7/26/5
f 24/27/5 13/62/5 15/28/5
f 25/30/2 30/43/2 31/31/2
f 32/32/6 29/43/6 26/30/6
f 26/34/1 29/38/1 30/35/1
f 27/37/3 31/35/3 32/38/3
f 16/40/1 15/64/1 11/41/1
f 15/42/2 13/50/2 9/31/2
f 9/44/3 13/65/3 14/45/3
f 10/32/6 14/34/6 16/42/6
f 20/47/1 21/52/1 22/48/1
f 19/42/2 22/66/2 23/45/2
f 17/51/3 23/48/3 24/52/3
f 24/54/6 21/66/6 20/42/6
