# Blender 4.3.2
# www.blender.org
mtllib minesign2legsflipped.mtl
o Cube.001
v 0.060874 0.812685 1.715448
v 0.060874 3.440587 1.715448
v 0.060874 0.812685 -1.715448
v 0.060874 3.440587 -1.715448
v -0.060874 0.812685 1.715448
v -0.060874 3.440587 1.715448
v -0.060874 0.812685 -1.715448
v -0.060874 3.440587 -1.715448
v 0.060874 0.812685 1.128950
v 0.060874 0.812685 1.404869
v 0.060874 3.440587 1.418386
v 0.060874 3.440587 1.081665
v -0.060874 0.812685 1.413505
v -0.060874 0.812685 1.073619
v -0.060874 3.440587 1.073619
v -0.060874 3.440587 1.413505
v -0.370944 2.750407 1.073619
v -0.060874 2.250407 1.073619
v -0.060874 2.250407 1.413505
v -0.060874 2.750407 1.073619
v -0.060874 2.750407 1.413505
v -0.370944 2.250407 1.093904
v -0.370944 2.750407 1.413505
v -0.370944 2.250407 1.412226
v -0.060874 0.008674 1.093904
v -0.060874 0.008674 1.412226
v -0.370944 0.008674 1.093904
v -0.370944 0.008674 1.412226
v -0.060874 2.286832 -1.715448
v -0.060874 1.768619 1.073619
v -0.060874 2.500407 1.073619
v -0.060874 3.018619 1.073619
v -0.060874 1.786832 -1.715448
v -0.060874 1.527725 1.073619
v -0.060874 2.375407 1.073619
v -0.060874 2.884513 1.073619
v -0.060874 2.786832 -1.715448
v -0.060874 2.009513 1.073619
v -0.060874 2.625407 1.073619
v -0.060874 3.152725 1.073619
v -0.060874 0.812685 -1.110139
v -0.060874 3.440587 -1.110139
v -0.060874 0.812685 -1.429987
v -0.060874 3.440587 -1.429987
v -0.060874 2.286832 -1.110139
v -0.060874 2.286832 -1.429987
v -0.060874 2.786832 -1.110139
v -0.060874 2.786832 -1.429987
v -0.360863 2.786832 -1.110139
v -0.360863 2.286832 -1.110139
v -0.360863 2.786832 -1.429987
v -0.360863 2.286832 -1.429987
v -0.060874 -0.009992 -1.429987
v -0.060874 -0.009992 -1.110139
v -0.360863 -0.009992 -1.429987
v -0.360863 -0.009992 -1.110139
vn 1.0000 -0.0000 -0.0000
vn -0.0000 -0.0000 -1.0000
vn -1.0000 -0.0000 -0.0000
vn -0.0000 -0.0000 1.0000
vn -0.0000 -1.0000 -0.0000
vn -0.0000 1.0000 -0.0000
vn -0.0653 -0.0000 -0.9979
vn -0.0653 -0.0003 -0.9979
vn -0.0006 -0.0007 1.0000
vn -0.0035 -0.0023 1.0000
vn -0.0030 -0.0002 1.0000
vn -0.0041 -0.0013 1.0000
vn -0.0653 -0.0090 -0.9978
vn -0.0653 -0.0045 -0.9979
vn -0.0000 -0.0405 -0.9992
vn -0.0000 -0.0006 1.0000
vt 0.388722 0.741194
vt 0.234289 0.492299
vt 0.388722 0.492299
vt 0.199297 0.747776
vt 0.388722 0.857050
vt 0.388722 0.904406
vt 0.176045 0.813144
vt 0.192716 0.747776
vt 0.192716 0.996671
vt 0.003291 0.492299
vt 0.192716 0.741194
vt 0.003291 0.741194
vt 0.823955 0.192716
vt 0.807284 0.003291
vt 0.824432 0.003291
vt 0.823685 0.388722
vt 0.807284 0.199297
vt 0.823955 0.199297
vt 0.996709 0.388722
vt 0.842721 0.199297
vt 0.963289 0.199297
vt 0.842276 0.388722
vt 0.215698 0.492299
vt 0.231679 0.741194
vt 0.216445 0.741194
vt 0.036711 0.809694
vt 0.157279 0.824983
vt 0.157279 0.836823
vt 0.157279 0.775040
vt 0.157279 0.747776
vt 0.199297 0.741194
vt 0.157279 0.883316
vt 0.157279 0.860501
vt 0.176045 0.996671
vt 0.807284 0.877730
vt 0.826050 0.395303
vt 0.826050 0.877730
vt 0.396423 0.539655
vt 0.414069 0.492299
vt 0.413998 0.539655
vt 0.015130 0.485718
vt 0.003291 0.485717
vt 0.050650 0.003291
vt 0.396423 0.751975
vt 0.316907 0.003291
vt 0.269551 0.485717
vt 0.269551 0.003291
vt 0.850206 0.395304
vt 0.832631 0.877730
vt 0.832631 0.395304
vt 0.529227 0.485717
vt 0.316907 0.485717
vt 0.444891 0.492299
vt 0.462537 0.704619
vt 0.444961 0.704619
vt 0.262969 0.485717
vt 0.050647 0.485718
vt 0.019051 0.809694
vt 0.036711 0.747776
vt 0.003291 0.809694
vt 0.019051 0.747776
vt 0.019051 0.857051
vt 0.036711 0.996671
vt 0.019051 0.996671
vt 0.529227 0.492298
vt 0.511568 0.709836
vt 0.511568 0.492298
vt 0.420650 0.492299
vt 0.438310 0.539655
vt 0.420650 0.539655
vt 0.583165 0.003291
vt 0.535809 0.470034
vt 0.535809 0.003291
vt 0.856787 0.862047
vt 0.874447 0.395304
vt 0.874447 0.862047
vt 0.535809 0.943358
vt 0.583165 0.476615
vt 0.583165 0.943358
vt 0.898687 0.395304
vt 0.881028 0.862047
vt 0.881028 0.395304
vt 0.800703 0.470034
vt 0.583165 0.470034
vt 0.800702 0.943358
vt 0.420650 0.757193
vt 0.980949 0.192716
vt 0.963289 0.192716
vt 0.839666 0.003291
vt 0.388722 0.996670
vt 0.199297 0.996670
vt 0.388722 0.747775
vt 0.388722 0.809694
vt 0.176045 0.860501
vt 0.176045 0.747776
vt 0.192716 0.492299
vt 0.807284 0.192716
vt 0.807284 0.388722
vt 0.980949 0.199297
vt 0.996709 0.199297
vt 0.157279 0.996671
vt 0.036711 0.857051
vt 0.157279 0.928948
vt 0.157279 0.787741
vt 0.157279 0.906132
vt 0.157279 0.800443
vt 0.157279 0.813144
vt 0.157279 0.848662
vt 0.199297 0.492299
vt 0.807284 0.395303
vt 0.395303 0.492299
vt 0.038808 0.485718
vt 0.026969 0.485718
vt 0.003291 0.003291
vt 0.413998 0.751975
vt 0.850206 0.877730
vt 0.529227 0.003291
vt 0.463656 0.492299
vt 0.262969 0.003291
vt 0.003291 0.996671
vt 0.003291 0.904407
vt 0.003291 0.857051
vt 0.003291 0.747776
vt 0.529227 0.709836
vt 0.438310 0.492299
vt 0.856787 0.395304
vt 0.535809 0.476615
vt 0.898687 0.862047
vt 0.800703 0.003291
vt 0.800702 0.476615
vt 0.438310 0.757193
vt 0.996709 0.003291
vt 0.996709 0.192716
vt 0.842721 0.192716
s 1
f 3/1/1 4/3/1 12/2/1
f 4/4/2 33/6/2 29/5/2
f 21/7/3 5/9/3 6/8/3
f 6/10/4 5/12/4 1/11/4
f 13/13/5 10/15/5 1/14/5
f 11/16/6 16/18/6 6/17/6
f 4/19/6 42/21/6 15/20/6
f 12/22/6 15/20/6 16/18/6
f 11/23/1 10/25/1 9/24/1
f 47/26/3 31/28/3 39/27/3
f 40/29/3 21/7/3 15/30/3
f 1/31/1 10/25/1 11/23/1
f 38/32/3 13/34/3 18/33/3
f 21/35/6 20/37/6 17/36/6
f 22/38/3 24/40/3 23/39/3
f 39/41/7 22/43/8 20/42/7
f 24/40/3 22/38/3 27/44/3
f 19/45/9 21/47/4 23/46/10
f 25/48/5 26/50/5 28/49/5
f 19/45/9 24/52/12 28/51/11
f 19/53/1 26/55/1 25/54/1
f 22/43/8 18/57/14 25/56/13
f 48/58/3 47/26/3 42/59/3
f 37/60/3 46/62/3 44/61/3
f 46/62/3 43/64/3 41/63/3
f 46/65/1 45/67/1 54/66/1
f 51/68/3 52/70/3 50/69/3
f 45/71/4 47/73/4 49/72/4
f 47/74/6 48/76/6 51/75/6
f 48/77/2 46/79/2 52/78/2
f 53/80/5 54/82/5 56/81/5
f 45/71/4 50/84/4 56/83/4
f 52/78/2 46/79/2 53/85/2
f 50/69/3 52/70/3 55/86/3
f 43/87/5 9/89/5 41/88/5
f 9/89/5 10/15/5 13/13/5
f 3/1/1 12/2/1 9/24/1
f 7/90/2 4/4/2 3/91/2
f 4/4/2 37/93/2 8/92/2
f 4/4/2 29/5/2 37/93/2
f 33/6/2 4/4/2 7/90/2
f 5/9/3 19/94/3 13/34/3
f 21/7/3 6/8/3 16/95/3
f 5/9/3 21/7/3 19/94/3
f 6/10/4 1/11/4 2/96/4
f 13/13/5 1/14/5 5/97/5
f 11/16/6 6/17/6 2/98/6
f 44/99/6 4/19/6 8/100/6
f 4/19/6 15/20/6 12/22/6
f 42/21/6 4/19/6 44/99/6
f 12/22/6 16/18/6 11/16/6
f 11/23/1 9/24/1 12/2/1
f 14/101/3 45/102/3 41/63/3
f 47/26/3 15/30/3 42/59/3
f 14/101/3 47/26/3 45/102/3
f 34/103/3 47/26/3 14/101/3
f 47/26/3 40/29/3 15/30/3
f 47/26/3 32/104/3 40/29/3
f 30/105/3 47/26/3 34/103/3
f 38/32/3 47/26/3 30/105/3
f 47/26/3 36/106/3 32/104/3
f 47/26/3 20/107/3 36/106/3
f 18/33/3 47/26/3 38/32/3
f 35/108/3 47/26/3 18/33/3
f 47/26/3 39/27/3 20/107/3
f 31/28/3 47/26/3 35/108/3
f 21/7/3 36/106/3 20/107/3
f 21/7/3 32/104/3 36/106/3
f 15/30/3 21/7/3 16/95/3
f 21/7/3 40/29/3 32/104/3
f 1/31/1 11/23/1 2/109/1
f 13/34/3 34/103/3 14/101/3
f 13/34/3 30/105/3 34/103/3
f 18/33/3 13/34/3 19/94/3
f 13/34/3 38/32/3 30/105/3
f 21/35/6 17/36/6 23/110/6
f 22/38/3 23/39/3 17/111/3
f 22/43/8 35/112/7 18/57/14
f 22/43/8 31/113/7 35/112/7
f 20/42/15 22/43/15 17/114/15
f 22/43/8 39/41/7 31/113/7
f 24/40/3 27/44/3 28/115/3
f 19/45/9 23/46/10 24/52/12
f 25/48/5 28/49/5 27/116/5
f 19/45/9 28/51/11 26/117/16
f 19/53/1 25/54/1 18/118/1
f 22/43/2 25/56/2 27/119/2
f 48/58/3 42/59/3 44/61/3
f 43/64/3 33/121/3 7/120/3
f 43/64/3 29/122/3 33/121/3
s 0
f 44/61/3 46/62/3 48/58/3
s 1
f 46/62/3 29/122/3 43/64/3
f 37/60/3 44/61/3 8/123/3
f 46/62/3 37/60/3 29/122/3
f 46/62/3 41/63/3 45/102/3
f 46/65/1 54/66/1 53/124/1
f 51/68/3 50/69/3 49/125/3
f 45/71/4 49/72/4 50/84/4
f 47/74/6 51/75/6 49/126/6
f 48/77/2 52/78/2 51/127/2
f 53/80/5 56/81/5 55/128/5
f 45/71/4 56/83/4 54/129/4
f 52/78/2 53/85/2 55/130/2
f 50/69/3 55/86/3 56/131/3
f 9/89/5 7/133/5 3/132/5
f 9/89/5 43/87/5 7/133/5
f 41/88/5 9/89/5 14/134/5
f 9/89/5 13/13/5 14/134/5
