# Blender 4.3.2
# www.blender.org
mtllib Picture_part2.mtl
o part2
v 1.403104 2.257364 -1.781761
v 1.302969 2.257364 -1.781761
v 1.403104 1.994398 -1.556362
v 1.302969 -0.599143 -1.558831
v 1.302969 -0.507991 -1.403113
v 1.302969 -0.367464 -0.981533
v 1.302969 0.152865 -0.609327
v 1.302969 -0.671289 -1.784668
v 1.403104 -0.511163 -1.404500
v 1.403104 -0.368965 -0.977906
v 1.403104 0.150605 -0.611473
v 1.403104 -0.598670 -1.556362
v 1.403104 -0.664307 -1.778861
v 1.302969 1.997577 -1.359955
v 1.302969 1.784281 -1.245103
v 1.302969 1.778812 -0.955238
v 1.302969 1.450663 -0.643497
v 1.302969 1.171736 -1.026337
v 1.302969 0.881871 -1.217758
v 1.302969 0.641228 -1.009930
v 1.302969 0.706858 -0.785695
v 1.302969 0.416993 -0.233310
v 1.302969 2.257364 -1.228696
v 1.302969 0.149343 -0.277064
v 1.403104 1.789750 -1.239634
v 1.403104 1.778811 -0.944300
v 1.403104 1.439725 -0.648966
v 1.403104 1.171736 -1.026337
v 1.403104 0.887340 -1.206819
v 1.403104 0.635759 -0.998992
v 1.403104 0.706858 -0.785695
v 1.403104 0.427931 -0.227841
v 1.403104 2.257364 -1.223227
v 1.403104 0.148890 -0.277064
v 1.403104 1.994398 -1.365425
vn -1.0000 -0.0000 -0.0000
vn -0.5948 0.6491 0.4743
vn -0.8603 -0.4939 -0.1268
vn -0.8240 0.5023 -0.2623
vn -0.7232 0.6288 -0.2855
vn 0.7390 0.6140 -0.2771
vn 0.8919 -0.0368 -0.4507
vn 0.8573 -0.4380 -0.2706
vn -0.5410 -0.4278 -0.7241
vn -0.0000 -1.0000 -0.0000
vn 0.5734 -0.4404 -0.6908
vn 0.8232 -0.0077 -0.5677
vn -0.8198 -0.4921 -0.2928
vn -0.8516 -0.0194 -0.5238
vn 0.6472 -0.7028 -0.2954
vn 0.5560 0.0475 -0.8299
vn -0.6137 -0.7108 -0.3438
vn 0.7529 0.4535 -0.4769
vn -0.5861 0.1356 -0.7988
vn -0.8464 -0.0237 -0.5320
vn -0.7532 0.4529 -0.4771
vn 0.8502 -0.4967 -0.1746
vn 0.6300 -0.7743 -0.0597
vn -0.5584 -0.3858 -0.7344
vn -0.6303 -0.7744 -0.0550
vn 0.6303 -0.3227 -0.7061
vn -0.5840 0.6225 -0.5211
vn 0.8293 0.4999 -0.2498
vn 0.5870 0.6190 -0.5217
vn 0.6556 0.6080 -0.4478
vn 0.6835 0.6703 -0.2890
vn 0.5296 0.6834 0.5025
vn -0.0013 0.0009 1.0000
vn -0.0000 0.0010 1.0000
vn -0.6796 0.6738 -0.2902
vn -0.6305 0.6212 -0.4655
vn 1.0000 -0.0000 -0.0000
vt 0.999617 0.999495
vt 0.806982 0.553719
vt 0.677532 0.395488
vt 0.940124 0.178834
vt 0.999617 0.999495
vt 0.999617 0.999496
vt 0.999617 0.999495
vt 0.999617 0.999495
vt 0.888784 0.930512
vt 0.999617 0.999495
vt 0.790325 0.927123
vt 0.999617 0.999495
vt 0.691488 0.816546
vt 0.876510 0.635767
vt 0.816839 0.728775
vt 0.999617 0.999495
vt 0.550289 0.486313
vt 0.736114 0.577076
vt 0.999617 0.999495
vt 0.566382 0.395135
vt 0.999617 0.999495
vt 0.999617 0.999495
vt 0.990444 0.150156
vt 0.994658 0.997162
vt 0.930997 0.997281
vt 0.798634 0.225547
s 1
usemtl Material.002
f 3/1/1 1/1/1 13/1/2
f 30/2/3 9/4/5 11/3/4
f 5/5/6 15/7/8 19/6/7
f 33/1/9 1/1/1 3/1/1
f 1/1/10 33/1/9 23/5/11
f 14/8/12 23/5/11 33/1/9
f 14/8/12 35/1/14 25/9/13
f 16/1/15 15/7/8 25/9/13
f 17/10/16 16/1/15 26/11/17
f 18/12/18 17/10/16 27/13/19
f 18/12/18 28/15/21 29/14/20
f 20/16/22 19/6/7 29/14/20
f 21/6/23 20/16/22 30/2/3
f 21/6/23 31/18/25 32/17/24
f 22/19/26 32/17/24 34/20/27
f 7/5/28 24/1/29 34/20/27
f 6/21/30 7/5/28 11/3/4
f 9/4/5 5/5/6 6/21/30
f 4/22/31 5/5/6 9/4/5
f 13/1/2 8/1/32 4/22/31
f 13/1/2 1/1/34 2/1/33
f 3/1/1 13/1/2 12/1/35
f 12/23/35 35/25/14 3/24/1
f 25/9/13 27/13/19 26/11/17
f 12/23/35 25/9/13 35/25/14
f 11/3/4 9/4/5 10/26/36
f 9/4/5 25/9/13 12/23/35
f 25/9/13 28/15/21 27/13/19
f 25/9/13 29/14/20 28/15/21
f 32/17/24 11/3/4 34/20/27
f 30/2/3 32/17/24 31/18/25
f 9/4/5 29/14/20 25/9/13
f 30/2/3 11/3/4 32/17/24
f 9/4/5 30/2/3 29/14/20
f 2/1/37 4/22/31 8/1/32
f 5/5/6 7/5/28 6/21/30
f 2/1/37 5/5/6 4/22/31
f 14/8/12 2/1/37 23/5/11
f 17/10/16 15/7/8 16/1/15
f 15/7/8 2/1/37 14/8/12
f 7/5/28 22/19/26 24/1/29
f 22/19/26 20/16/22 21/6/23
f 7/5/28 20/16/22 22/19/26
f 15/7/8 5/5/6 2/1/37
f 18/12/18 15/7/8 17/10/16
f 7/5/28 19/6/7 20/16/22
f 19/6/7 15/7/8 18/12/18
f 5/5/6 19/6/7 7/5/28
f 33/1/9 3/1/1 35/1/14
f 1/1/10 23/5/11 2/1/10
f 14/8/12 33/1/9 35/1/14
f 14/8/12 25/9/13 15/7/8
f 16/1/15 25/9/13 26/11/17
f 17/10/16 26/11/17 27/13/19
f 18/12/18 27/13/19 28/15/21
f 18/12/18 29/14/20 19/6/7
f 20/16/22 29/14/20 30/2/3
f 21/6/23 30/2/3 31/18/25
f 21/6/23 32/17/24 22/19/26
f 22/19/26 34/20/27 24/1/29
f 7/5/28 34/20/27 11/3/4
f 6/21/30 11/3/4 10/26/36
f 9/4/5 6/21/30 10/26/36
f 4/22/31 9/4/5 12/23/35
f 13/1/2 4/22/31 12/1/35
f 13/1/2 2/1/33 8/1/32
