# Blender 4.3.2
# www.blender.org
mtllib Rails_Straight_2.mtl
o Rails_Straight_2
v 1.158372 0.080000 -0.140000
v 1.158372 0.000000 -0.140000
v 1.158372 0.080000 0.140000
v 1.158372 0.000000 0.140000
v -1.141628 0.080000 -0.140000
v -1.141628 0.000000 -0.140000
v -1.141628 0.080000 0.140000
v -1.141628 0.000000 0.140000
v 1.147407 0.083159 -1.158597
v 1.147359 0.003206 -1.161337
v 1.152291 0.073567 -0.878804
v 1.152243 -0.006386 -0.881544
v -1.152243 0.083159 -1.118456
v -1.152291 0.003206 -1.121197
v -1.147359 0.073567 -0.838663
v -1.147407 -0.006386 -0.841403
v 1.126867 0.080000 1.171139
v 1.126867 0.000000 1.171139
v 1.103032 0.080000 1.450123
v 1.103032 0.000000 1.450123
v -1.164786 0.080000 0.975358
v -1.164786 0.000000 0.975358
v -1.188620 0.080000 1.254343
v -1.188620 0.000000 1.254343
v -0.968850 0.280000 -1.500000
v -1.013937 0.080000 -1.500000
v -0.968850 0.280000 1.500000
v -1.013937 0.080000 1.500000
v -0.831150 0.280000 -1.500000
v -0.786063 0.080000 -1.500000
v -0.831150 0.280000 1.500000
v -0.786063 0.080000 1.500000
v -0.968850 0.260000 -1.500000
v -0.831150 0.260000 1.500000
v -0.968850 0.260000 1.500000
v -0.831150 0.260000 -1.500000
v -0.954434 0.240000 -1.500000
v -0.954434 0.240000 1.500000
v -0.845565 0.240000 -1.500000
v -0.845565 0.240000 1.500000
v -0.979943 0.148000 -1.500000
v -0.979943 0.148000 1.500000
v -0.820058 0.148000 -1.500000
v -0.820058 0.148000 1.500000
v -1.013937 0.106000 -1.500000
v -1.013937 0.106000 1.500000
v -0.786063 0.106000 -1.500000
v -0.786063 0.106000 1.500000
v -0.938728 0.291195 1.500000
v -0.861272 0.291195 1.500000
v -0.938728 0.291195 -1.500000
v -0.861272 0.291195 -1.500000
v 0.968850 0.280000 -1.500000
v 1.013937 0.080000 -1.500000
v 0.968850 0.280000 1.500000
v 1.013937 0.080000 1.500000
v 0.831150 0.280000 -1.500000
v 0.786063 0.080000 -1.500000
v 0.831150 0.280000 1.500000
v 0.786063 0.080000 1.500000
v 0.968850 0.260000 -1.500000
v 0.831150 0.260000 1.500000
v 0.968850 0.260000 1.500000
v 0.831150 0.260000 -1.500000
v 0.954434 0.240000 -1.500000
v 0.954434 0.240000 1.500000
v 0.845565 0.240000 -1.500000
v 0.845565 0.240000 1.500000
v 0.979942 0.148000 -1.500000
v 0.979942 0.148000 1.500000
v 0.820058 0.148000 -1.500000
v 0.820058 0.148000 1.500000
v 1.013937 0.106000 -1.500000
v 1.013937 0.106000 1.500000
v 0.786063 0.106000 -1.500000
v 0.786063 0.106000 1.500000
v 0.938728 0.291195 1.500000
v 0.861272 0.291195 1.500000
v 0.938728 0.291195 -1.500000
v 0.861272 0.291195 -1.500000
vn -0.0000 1.0000 -0.0000
vn -0.0000 -0.0000 1.0000
vn -1.0000 -0.0000 -0.0000
vn -0.0000 -1.0000 -0.0000
vn 1.0000 -0.0000 -0.0000
vn -0.0000 -0.0000 -1.0000
vn 0.0006 0.9994 0.0343
vn 0.0174 -0.0343 0.9993
vn -0.9998 -0.0000 0.0175
vn -0.0006 -0.9994 -0.0343
vn 0.9998 -0.0000 -0.0175
vn -0.0174 0.0343 -0.9993
vn -0.0851 -0.0000 0.9964
vn -0.9964 -0.0000 -0.0851
vn 0.9964 -0.0000 0.0851
vn 0.0851 -0.0000 -0.9964
vn 0.8211 0.5708 -0.0000
vn 0.1770 0.9842 -0.0000
vn -0.8211 0.5708 -0.0000
vn -0.8112 -0.5847 -0.0000
vn 0.8112 -0.5847 -0.0000
vn 0.9636 0.2672 -0.0000
vn -0.9636 0.2672 -0.0000
vn -0.7773 0.6291 -0.0000
vn 0.7773 0.6291 -0.0000
vn -0.1770 0.9842 -0.0000
vt 0.932832 0.008688
vt 0.932832 0.491312
vt 0.859389 0.491312
vt 0.859389 0.008688
vt 0.542764 0.008688
vt 0.561111 0.008688
vt 0.561111 0.536158
vt 0.542764 0.536158
vt 0.855940 0.500718
vt 0.874253 0.500718
vt 0.874253 0.580985
vt 0.855940 0.580985
vt 0.990891 0.008688
vt 0.990891 0.491312
vt 0.942448 0.491312
vt 0.942448 0.008688
vt 0.914466 0.500718
vt 0.932780 0.500718
vt 0.932780 0.580985
vt 0.914466 0.580985
vt 0.514162 0.008688
vt 0.532509 0.008688
vt 0.532509 0.536158
vt 0.514162 0.536158
vt 0.646553 0.008688
vt 0.646553 0.491312
vt 0.573110 0.491312
vt 0.573110 0.008688
vt 0.425859 0.008688
vt 0.444206 0.008688
vt 0.444206 0.536158
vt 0.425859 0.536158
vt 0.972577 0.500718
vt 0.990891 0.500718
vt 0.990891 0.580985
vt 0.972577 0.580985
vt 0.705270 0.008688
vt 0.705270 0.491312
vt 0.656828 0.491312
vt 0.656828 0.008688
vt 0.827370 0.500718
vt 0.845684 0.500718
vt 0.845684 0.580985
vt 0.827370 0.580985
vt 0.455293 0.008688
vt 0.473640 0.008688
vt 0.473640 0.536158
vt 0.455293 0.536158
vt 0.789619 0.008688
vt 0.789619 0.491312
vt 0.716177 0.491312
vt 0.716177 0.008688
vt 0.485142 0.008688
vt 0.503489 0.008688
vt 0.503489 0.536158
vt 0.485142 0.536158
vt 0.885897 0.500718
vt 0.904210 0.500718
vt 0.904210 0.580985
vt 0.885897 0.580985
vt 0.848725 0.008688
vt 0.848725 0.491312
vt 0.800282 0.491312
vt 0.800282 0.008688
vt 0.944008 0.500718
vt 0.962321 0.500718
vt 0.962321 0.580985
vt 0.944008 0.580985
vt 0.396425 0.008688
vt 0.414772 0.008688
vt 0.414772 0.536158
vt 0.396425 0.536158
vt 0.344756 0.752898
vt 0.338435 0.752898
vt 0.338435 0.008688
vt 0.344756 0.008688
vt 0.696784 0.541033
vt 0.727625 0.541033
vt 0.727625 0.545513
vt 0.696784 0.545513
vt 0.105049 0.008688
vt 0.105049 0.752898
vt 0.100860 0.752898
vt 0.100860 0.008688
vt 0.008688 0.752898
vt 0.008688 0.008688
vt 0.041504 0.008688
vt 0.041504 0.752898
vt 0.159789 0.008688
vt 0.159789 0.752898
vt 0.155600 0.752898
vt 0.155600 0.008688
vt 0.583208 0.541033
vt 0.614049 0.541033
vt 0.614049 0.545513
vt 0.583208 0.545513
vt 0.586437 0.536554
vt 0.610820 0.536554
vt 0.164160 0.008688
vt 0.164160 0.752898
vt 0.109420 0.008688
vt 0.109420 0.752898
vt 0.700012 0.536554
vt 0.724396 0.536554
vt 0.694299 0.515948
vt 0.730109 0.515948
vt 0.128368 0.008688
vt 0.128369 0.752898
vt 0.183109 0.008688
vt 0.183109 0.752898
vt 0.580724 0.515948
vt 0.616534 0.515948
vt 0.573110 0.506541
vt 0.624148 0.506541
vt 0.191477 0.008688
vt 0.191477 0.752898
vt 0.136737 0.008688
vt 0.136737 0.752898
vt 0.686685 0.506541
vt 0.737723 0.506541
vt 0.686685 0.500718
vt 0.737723 0.500718
vt 0.142183 0.008688
vt 0.142183 0.752898
vt 0.196923 0.008688
vt 0.196923 0.752898
vt 0.573110 0.500718
vt 0.624148 0.500718
vt 0.322182 0.752898
vt 0.322182 0.008688
vt 0.315862 0.008688
vt 0.315862 0.752898
vt 0.607303 0.548020
vt 0.589955 0.548020
vt 0.720878 0.548020
vt 0.703530 0.548020
vt 0.356194 0.752898
vt 0.356194 0.008688
vt 0.362514 0.008688
vt 0.362514 0.752898
vt 0.638847 0.515619
vt 0.638847 0.511140
vt 0.669688 0.511140
vt 0.669688 0.515619
vt 0.266630 0.752898
vt 0.262441 0.752898
vt 0.262441 0.008688
vt 0.266630 0.008688
vt 0.088892 0.752898
vt 0.056076 0.752898
vt 0.056076 0.008688
vt 0.088892 0.008688
vt 0.213210 0.752898
vt 0.209021 0.752898
vt 0.209021 0.008688
vt 0.213210 0.008688
vt 0.752422 0.515619
vt 0.752422 0.511140
vt 0.783263 0.511140
vt 0.783263 0.515619
vt 0.755651 0.520099
vt 0.780035 0.520099
vt 0.217581 0.752898
vt 0.217581 0.008688
vt 0.271001 0.752898
vt 0.271001 0.008688
vt 0.642076 0.520099
vt 0.666459 0.520099
vt 0.636362 0.540704
vt 0.672172 0.540704
vt 0.289950 0.752898
vt 0.289950 0.008688
vt 0.236529 0.752898
vt 0.236529 0.008688
vt 0.749938 0.540704
vt 0.785748 0.540704
vt 0.742324 0.550111
vt 0.793362 0.550111
vt 0.244898 0.752898
vt 0.244898 0.008688
vt 0.298318 0.752898
vt 0.298318 0.008688
vt 0.628748 0.550111
vt 0.679786 0.550111
vt 0.628748 0.555935
vt 0.679786 0.555935
vt 0.303764 0.752898
vt 0.303764 0.008688
vt 0.250344 0.752898
vt 0.250344 0.008688
vt 0.742324 0.555935
vt 0.793362 0.555935
vt 0.378768 0.752898
vt 0.378768 0.008688
vt 0.385088 0.008688
vt 0.385088 0.752898
vt 0.759169 0.508632
vt 0.776517 0.508632
vt 0.645593 0.508632
vt 0.662942 0.508632
s 1
usemtl Straight_2
f 1/1/1 5/2/1 7/3/1 3/4/1
f 4/5/2 3/6/2 7/7/2 8/8/2
f 8/9/3 7/10/3 5/11/3 6/12/3
f 6/13/4 2/14/4 4/15/4 8/16/4
f 2/17/5 1/18/5 3/19/5 4/20/5
f 6/21/6 5/22/6 1/23/6 2/24/6
f 9/25/7 13/26/7 15/27/7 11/28/7
f 12/29/8 11/30/8 15/31/8 16/32/8
f 16/33/9 15/34/9 13/35/9 14/36/9
f 14/37/10 10/38/10 12/39/10 16/40/10
f 10/41/11 9/42/11 11/43/11 12/44/11
f 14/45/12 13/46/12 9/47/12 10/48/12
f 17/49/1 21/50/1 23/51/1 19/52/1
f 20/53/13 19/54/13 23/55/13 24/56/13
f 24/57/14 23/58/14 21/59/14 22/60/14
f 22/61/4 18/62/4 20/63/4 24/64/4
f 18/65/15 17/66/15 19/67/15 20/68/15
f 22/69/16 21/70/16 17/71/16 18/72/16
f 29/73/17 52/74/18 50/75/18 31/76/17
f 35/77/2 34/78/2 31/79/2 27/80/2
f 34/81/5 36/82/5 29/83/17 31/84/17
f 30/85/4 32/86/4 28/87/4 26/88/4
f 33/89/3 35/90/3 27/91/19 25/92/19
f 36/93/6 33/94/6 25/95/6 29/96/6
f 39/97/6 37/98/6 33/94/6 36/93/6
f 37/99/20 38/100/20 35/90/20 33/89/20
f 40/101/21 39/102/21 36/82/21 34/81/21
f 38/103/2 40/104/2 34/78/2 35/77/2
f 42/105/2 44/106/2 40/104/2 38/103/2
f 44/107/22 43/108/22 39/102/22 40/101/22
f 41/109/23 42/110/23 38/100/23 37/99/23
f 43/111/6 41/112/6 37/98/6 39/97/6
f 47/113/6 45/114/6 41/112/6 43/111/6
f 45/115/24 46/116/24 42/110/24 41/109/24
f 48/117/25 47/118/25 43/108/25 44/107/25
f 46/119/2 48/120/2 44/106/2 42/105/2
f 28/121/2 32/122/2 48/120/2 46/119/2
f 32/123/5 30/124/5 47/118/5 48/117/5
f 26/125/3 28/126/3 46/116/3 45/115/3
f 30/127/6 26/128/6 45/114/6 47/113/6
f 51/129/26 49/130/26 50/75/18 52/74/18
f 27/131/19 49/130/26 51/129/26 25/132/19
f 25/95/6 51/133/6 52/134/6 29/96/6
f 31/79/2 50/135/2 49/136/2 27/80/2
f 57/137/19 59/138/19 78/139/26 80/140/26
f 63/141/2 55/142/2 59/143/2 62/144/2
f 62/145/3 59/146/19 57/147/19 64/148/3
f 58/149/4 54/150/4 56/151/4 60/152/4
f 61/153/5 53/154/17 55/155/17 63/156/5
f 64/157/6 57/158/6 53/159/6 61/160/6
f 67/161/6 64/157/6 61/160/6 65/162/6
f 65/163/21 61/153/21 63/156/21 66/164/21
f 68/165/20 62/145/20 64/148/20 67/166/20
f 66/167/2 63/141/2 62/144/2 68/168/2
f 70/169/2 66/167/2 68/168/2 72/170/2
f 72/171/23 68/165/23 67/166/23 71/172/23
f 69/173/22 65/163/22 66/164/22 70/174/22
f 71/175/6 67/161/6 65/162/6 69/176/6
f 75/177/6 71/175/6 69/176/6 73/178/6
f 73/179/25 69/173/25 70/174/25 74/180/25
f 76/181/24 72/171/24 71/172/24 75/182/24
f 74/183/2 70/169/2 72/170/2 76/184/2
f 56/185/2 74/183/2 76/184/2 60/186/2
f 60/187/3 76/181/3 75/182/3 58/188/3
f 54/189/5 73/179/5 74/180/5 56/190/5
f 58/191/6 75/177/6 73/178/6 54/192/6
f 79/193/18 80/140/26 78/139/26 77/194/18
f 55/195/17 53/196/17 79/193/18 77/194/18
f 53/159/6 57/158/6 80/197/6 79/198/6
f 59/143/2 55/142/2 77/199/2 78/200/2
