# Blender 4.3.2
# www.blender.org
mtllib Rails_Straight_8.mtl
o Rails_Straight_8
v 1.097560 0.080000 -0.433686
v 1.097560 0.000000 -0.433686
v 1.154456 0.080000 -0.159528
v 1.154456 0.000000 -0.159528
v -1.154456 0.080000 0.033672
v -1.154456 0.000000 0.033672
v -1.097560 0.080000 0.307831
v -1.097560 0.000000 0.307831
v 0.605327 0.082578 -1.641893
v 0.596760 0.003047 -1.643088
v 0.812139 0.057489 -1.454811
v 0.803571 -0.022042 -1.456006
v -0.806623 0.210972 -0.063814
v -0.815190 0.131441 -0.065009
v -0.599811 0.185882 0.123268
v -0.608379 0.106351 0.122073
v 1.293252 0.080000 1.514133
v 1.293252 0.000000 1.514133
v 1.139578 0.080000 1.748194
v 1.139578 0.000000 1.748194
v -0.629384 0.080000 0.251806
v -0.629384 0.000000 0.251806
v -0.783058 0.080000 0.485867
v -0.783058 0.000000 0.485867
v -0.968850 0.280000 -1.500000
v -1.013937 0.080000 -1.500000
v -0.968850 0.280000 1.500000
v -1.013937 0.080000 1.500000
v -0.831150 0.280000 -1.500000
v -0.786063 0.080000 -1.500000
v -0.831150 0.280000 1.500000
v -0.786063 0.080000 1.500000
v -0.968850 0.260000 -1.500000
v -0.831150 0.260000 1.500000
v -0.968850 0.260000 1.500000
v -0.831150 0.260000 -1.500000
v -0.954434 0.240000 -1.500000
v -0.954434 0.240000 1.500000
v -0.845565 0.240000 -1.500000
v -0.845565 0.240000 1.500000
v -0.979943 0.148000 -1.500000
v -0.979943 0.148000 1.500000
v -0.820058 0.148000 -1.500000
v -0.820058 0.148000 1.500000
v -1.013937 0.106000 -1.500000
v -1.013937 0.106000 1.500000
v -0.786063 0.106000 -1.500000
v -0.786063 0.106000 1.500000
v -0.938728 0.291195 1.500000
v -0.861272 0.291195 1.500000
v -0.938728 0.291195 -1.500000
v -0.861272 0.291195 -1.500000
v 0.968850 0.280000 -1.500000
v 1.013937 0.080000 -1.500000
v 0.968850 0.280000 1.500000
v 1.013937 0.080000 1.500000
v 0.831150 0.280000 -1.500000
v 0.786063 0.080000 -1.500000
v 0.831150 0.280000 1.500000
v 0.786063 0.080000 1.500000
v 0.968850 0.260000 -1.500000
v 0.831150 0.260000 1.500000
v 0.968850 0.260000 1.500000
v 0.831150 0.260000 -1.500000
v 0.954434 0.240000 -1.500000
v 0.954434 0.240000 1.500000
v 0.845565 0.240000 -1.500000
v 0.845565 0.240000 1.500000
v 0.979942 0.148000 -1.500000
v 0.979942 0.148000 1.500000
v 0.820058 0.148000 -1.500000
v 0.820058 0.148000 1.500000
v 1.013937 0.106000 -1.500000
v 1.013937 0.106000 1.500000
v 0.786063 0.106000 -1.500000
v 0.786063 0.106000 1.500000
v 0.938728 0.291195 1.500000
v 0.861272 0.291195 1.500000
v 0.938728 0.291195 -1.500000
v 0.861272 0.291195 -1.500000
vn -0.0000 1.0000 -0.0000
vn 0.2032 -0.0000 0.9791
vn -0.9791 -0.0000 0.2032
vn -0.0000 -1.0000 -0.0000
vn 0.9791 -0.0000 -0.2032
vn -0.2032 -0.0000 -0.9791
vn 0.1071 0.9941 0.0149
vn 0.7386 -0.0896 0.6681
vn -0.6656 0.0605 0.7439
vn -0.1071 -0.9941 -0.0149
vn 0.6656 -0.0605 -0.7439
vn -0.7386 0.0896 -0.6681
vn -0.5488 -0.0000 0.8359
vn -0.8359 -0.0000 -0.5488
vn 0.8359 -0.0000 0.5488
vn 0.5488 -0.0000 -0.8359
vn 0.8211 0.5708 -0.0000
vn 0.1770 0.9842 -0.0000
vn -0.0000 -0.0000 1.0000
vn 1.0000 -0.0000 -0.0000
vn -1.0000 -0.0000 -0.0000
vn -0.8211 0.5708 -0.0000
vn -0.0000 -0.0000 -1.0000
vn -0.8112 -0.5847 -0.0000
vn 0.8112 -0.5847 -0.0000
vn 0.9636 0.2672 -0.0000
vn -0.9636 0.2672 -0.0000
vn -0.7773 0.6291 -0.0000
vn 0.7773 0.6291 -0.0000
vn -0.1770 0.9842 -0.0000
vt 0.932832 0.008688
vt 0.932832 0.491312
vt 0.859389 0.491312
vt 0.859389 0.008688
vt 0.542764 0.008688
vt 0.561111 0.008688
vt 0.561111 0.536158
vt 0.542764 0.536158
vt 0.855940 0.500718
vt 0.874253 0.500718
vt 0.874253 0.580985
vt 0.855940 0.580985
vt 0.990891 0.008688
vt 0.990891 0.491312
vt 0.942448 0.491312
vt 0.942448 0.008688
vt 0.914466 0.500718
vt 0.932780 0.500718
vt 0.932780 0.580985
vt 0.914466 0.580985
vt 0.514162 0.008688
vt 0.532509 0.008688
vt 0.532509 0.536158
vt 0.514162 0.536158
vt 0.646553 0.008688
vt 0.646553 0.491312
vt 0.573110 0.491312
vt 0.573110 0.008688
vt 0.425859 0.008688
vt 0.444206 0.008688
vt 0.444206 0.536158
vt 0.425859 0.536158
vt 0.972577 0.500718
vt 0.990891 0.500718
vt 0.990891 0.580985
vt 0.972577 0.580985
vt 0.705270 0.008688
vt 0.705270 0.491312
vt 0.656828 0.491312
vt 0.656828 0.008688
vt 0.827370 0.500718
vt 0.845684 0.500718
vt 0.845684 0.580985
vt 0.827370 0.580985
vt 0.455293 0.008688
vt 0.473640 0.008688
vt 0.473640 0.536158
vt 0.455293 0.536158
vt 0.789619 0.008688
vt 0.789619 0.491312
vt 0.716177 0.491312
vt 0.716177 0.008688
vt 0.485142 0.008688
vt 0.503489 0.008688
vt 0.503489 0.536158
vt 0.485142 0.536158
vt 0.885897 0.500718
vt 0.904210 0.500718
vt 0.904210 0.580985
vt 0.885897 0.580985
vt 0.848725 0.008688
vt 0.848725 0.491312
vt 0.800282 0.491312
vt 0.800282 0.008688
vt 0.944008 0.500718
vt 0.962321 0.500718
vt 0.962321 0.580985
vt 0.944008 0.580985
vt 0.396425 0.008688
vt 0.414772 0.008688
vt 0.414772 0.536158
vt 0.396425 0.536158
vt 0.344756 0.752898
vt 0.338435 0.752898
vt 0.338435 0.008688
vt 0.344756 0.008688
vt 0.696784 0.541033
vt 0.727625 0.541033
vt 0.727625 0.545513
vt 0.696784 0.545513
vt 0.105049 0.008688
vt 0.105049 0.752898
vt 0.100860 0.752898
vt 0.100860 0.008688
vt 0.008688 0.752898
vt 0.008688 0.008688
vt 0.041504 0.008688
vt 0.041504 0.752898
vt 0.159789 0.008688
vt 0.159789 0.752898
vt 0.155600 0.752898
vt 0.155600 0.008688
vt 0.583208 0.541033
vt 0.614049 0.541033
vt 0.614049 0.545513
vt 0.583208 0.545513
vt 0.586437 0.536554
vt 0.610820 0.536554
vt 0.164160 0.008688
vt 0.164160 0.752898
vt 0.109420 0.008688
vt 0.109420 0.752898
vt 0.700012 0.536554
vt 0.724396 0.536554
vt 0.694299 0.515948
vt 0.730109 0.515948
vt 0.128368 0.008688
vt 0.128369 0.752898
vt 0.183109 0.008688
vt 0.183109 0.752898
vt 0.580724 0.515948
vt 0.616534 0.515948
vt 0.573110 0.506541
vt 0.624148 0.506541
vt 0.191477 0.008688
vt 0.191477 0.752898
vt 0.136737 0.008688
vt 0.136737 0.752898
vt 0.686685 0.506541
vt 0.737723 0.506541
vt 0.686685 0.500718
vt 0.737723 0.500718
vt 0.142183 0.008688
vt 0.142183 0.752898
vt 0.196923 0.008688
vt 0.196923 0.752898
vt 0.573110 0.500718
vt 0.624148 0.500718
vt 0.322182 0.752898
vt 0.322182 0.008688
vt 0.315862 0.008688
vt 0.315862 0.752898
vt 0.607303 0.548020
vt 0.589955 0.548020
vt 0.720878 0.548020
vt 0.703530 0.548020
vt 0.356194 0.752898
vt 0.356194 0.008688
vt 0.362514 0.008688
vt 0.362514 0.752898
vt 0.638847 0.515619
vt 0.638847 0.511140
vt 0.669688 0.511140
vt 0.669688 0.515619
vt 0.266630 0.752898
vt 0.262441 0.752898
vt 0.262441 0.008688
vt 0.266630 0.008688
vt 0.088892 0.752898
vt 0.056076 0.752898
vt 0.056076 0.008688
vt 0.088892 0.008688
vt 0.213210 0.752898
vt 0.209021 0.752898
vt 0.209021 0.008688
vt 0.213210 0.008688
vt 0.752422 0.515619
vt 0.752422 0.511140
vt 0.783263 0.511140
vt 0.783263 0.515619
vt 0.755651 0.520099
vt 0.780035 0.520099
vt 0.217581 0.752898
vt 0.217581 0.008688
vt 0.271001 0.752898
vt 0.271001 0.008688
vt 0.642076 0.520099
vt 0.666459 0.520099
vt 0.636362 0.540704
vt 0.672172 0.540704
vt 0.289950 0.752898
vt 0.289950 0.008688
vt 0.236529 0.752898
vt 0.236529 0.008688
vt 0.749938 0.540704
vt 0.785748 0.540704
vt 0.742324 0.550111
vt 0.793362 0.550111
vt 0.244898 0.752898
vt 0.244898 0.008688
vt 0.298318 0.752898
vt 0.298318 0.008688
vt 0.628748 0.550111
vt 0.679786 0.550111
vt 0.628748 0.555935
vt 0.679786 0.555935
vt 0.303764 0.752898
vt 0.303764 0.008688
vt 0.250344 0.752898
vt 0.250344 0.008688
vt 0.742324 0.555935
vt 0.793362 0.555935
vt 0.378768 0.752898
vt 0.378768 0.008688
vt 0.385088 0.008688
vt 0.385088 0.752898
vt 0.759169 0.508632
vt 0.776517 0.508632
vt 0.645593 0.508632
vt 0.662942 0.508632
s 1
usemtl Straight_8
f 1/1/1 5/2/1 7/3/1 3/4/1
f 4/5/2 3/6/2 7/7/2 8/8/2
f 8/9/3 7/10/3 5/11/3 6/12/3
f 6/13/4 2/14/4 4/15/4 8/16/4
f 2/17/5 1/18/5 3/19/5 4/20/5
f 6/21/6 5/22/6 1/23/6 2/24/6
f 9/25/7 13/26/7 15/27/7 11/28/7
f 12/29/8 11/30/8 15/31/8 16/32/8
f 16/33/9 15/34/9 13/35/9 14/36/9
f 14/37/10 10/38/10 12/39/10 16/40/10
f 10/41/11 9/42/11 11/43/11 12/44/11
f 14/45/12 13/46/12 9/47/12 10/48/12
f 17/49/1 21/50/1 23/51/1 19/52/1
f 20/53/13 19/54/13 23/55/13 24/56/13
f 24/57/14 23/58/14 21/59/14 22/60/14
f 22/61/4 18/62/4 20/63/4 24/64/4
f 18/65/15 17/66/15 19/67/15 20/68/15
f 22/69/16 21/70/16 17/71/16 18/72/16
f 29/73/17 52/74/18 50/75/18 31/76/17
f 35/77/19 34/78/19 31/79/19 27/80/19
f 34/81/20 36/82/20 29/83/17 31/84/17
f 30/85/4 32/86/4 28/87/4 26/88/4
f 33/89/21 35/90/21 27/91/22 25/92/22
f 36/93/23 33/94/23 25/95/23 29/96/23
f 39/97/23 37/98/23 33/94/23 36/93/23
f 37/99/24 38/100/24 35/90/24 33/89/24
f 40/101/25 39/102/25 36/82/25 34/81/25
f 38/103/19 40/104/19 34/78/19 35/77/19
f 42/105/19 44/106/19 40/104/19 38/103/19
f 44/107/26 43/108/26 39/102/26 40/101/26
f 41/109/27 42/110/27 38/100/27 37/99/27
f 43/111/23 41/112/23 37/98/23 39/97/23
f 47/113/23 45/114/23 41/112/23 43/111/23
f 45/115/28 46/116/28 42/110/28 41/109/28
f 48/117/29 47/118/29 43/108/29 44/107/29
f 46/119/19 48/120/19 44/106/19 42/105/19
f 28/121/19 32/122/19 48/120/19 46/119/19
f 32/123/20 30/124/20 47/118/20 48/117/20
f 26/125/21 28/126/21 46/116/21 45/115/21
f 30/127/23 26/128/23 45/114/23 47/113/23
f 51/129/30 49/130/30 50/75/18 52/74/18
f 27/131/22 49/130/30 51/129/30 25/132/22
f 25/95/23 51/133/23 52/134/23 29/96/23
f 31/79/19 50/135/19 49/136/19 27/80/19
f 57/137/22 59/138/22 78/139/30 80/140/30
f 63/141/19 55/142/19 59/143/19 62/144/19
f 62/145/21 59/146/22 57/147/22 64/148/21
f 58/149/4 54/150/4 56/151/4 60/152/4
f 61/153/20 53/154/17 55/155/17 63/156/20
f 64/157/23 57/158/23 53/159/23 61/160/23
f 67/161/23 64/157/23 61/160/23 65/162/23
f 65/163/25 61/153/25 63/156/25 66/164/25
f 68/165/24 62/145/24 64/148/24 67/166/24
f 66/167/19 63/141/19 62/144/19 68/168/19
f 70/169/19 66/167/19 68/168/19 72/170/19
f 72/171/27 68/165/27 67/166/27 71/172/27
f 69/173/26 65/163/26 66/164/26 70/174/26
f 71/175/23 67/161/23 65/162/23 69/176/23
f 75/177/23 71/175/23 69/176/23 73/178/23
f 73/179/29 69/173/29 70/174/29 74/180/29
f 76/181/28 72/171/28 71/172/28 75/182/28
f 74/183/19 70/169/19 72/170/19 76/184/19
f 56/185/19 74/183/19 76/184/19 60/186/19
f 60/187/21 76/181/21 75/182/21 58/188/21
f 54/189/20 73/179/20 74/180/20 56/190/20
f 58/191/23 75/177/23 73/178/23 54/192/23
f 79/193/18 80/140/30 78/139/30 77/194/18
f 55/195/17 53/196/17 79/193/18 77/194/18
f 53/159/23 57/158/23 80/197/23 79/198/23
f 59/143/19 55/142/19 77/199/19 78/200/19
