# Blender 4.3.2
# www.blender.org
mtllib Rails_Straight_6.mtl
o Rails_Straight_6
v 0.241624 0.055170 0.239280
v 0.240295 -0.024811 0.238140
v 0.078441 0.054640 0.466812
v 0.077111 -0.025341 0.465672
v -1.627002 0.105341 -1.100764
v -1.628332 0.025360 -1.101904
v -1.790186 0.104811 -0.873232
v -1.791516 0.024830 -0.874372
v 1.150000 0.080000 -1.140000
v 1.150000 0.000000 -1.140000
v 1.150000 0.080000 -0.860000
v 1.150000 0.000000 -0.860000
v -1.150000 0.080000 -1.140000
v -1.150000 0.000000 -1.140000
v -1.150000 0.080000 -0.860000
v -1.150000 0.000000 -0.860000
v 1.112030 0.080000 0.990831
v 1.112030 0.000000 0.990831
v 1.064590 0.080000 1.266783
v 1.064590 0.000000 1.266783
v -1.154717 0.080000 0.601144
v -1.154717 0.000000 0.601144
v -1.202158 0.080000 0.877096
v -1.202158 0.000000 0.877096
v -0.968850 0.280000 -1.500000
v -1.013937 0.080000 -1.500000
v -0.968850 0.280000 1.500000
v -1.013937 0.080000 1.500000
v -0.831150 0.280000 -1.500000
v -0.786063 0.080000 -1.500000
v -0.831150 0.280000 1.500000
v -0.786063 0.080000 1.500000
v -0.968850 0.260000 -1.500000
v -0.831150 0.260000 1.500000
v -0.968850 0.260000 1.500000
v -0.831150 0.260000 -1.500000
v -0.954434 0.240000 -1.500000
v -0.954434 0.240000 1.500000
v -0.845565 0.240000 -1.500000
v -0.845565 0.240000 1.500000
v -0.979943 0.148000 -1.500000
v -0.979943 0.148000 1.500000
v -0.820058 0.148000 -1.500000
v -0.820058 0.148000 1.500000
v -1.013937 0.106000 -1.500000
v -1.013937 0.106000 1.500000
v -0.786063 0.106000 -1.500000
v -0.786063 0.106000 1.500000
v -0.938728 0.291195 1.500000
v -0.861272 0.291195 1.500000
v -0.938728 0.291195 -1.500000
v -0.861272 0.291195 -1.500000
v 0.968850 0.280000 -1.500000
v 1.013937 0.080000 -1.500000
v 0.968850 0.280000 1.500000
v 1.013937 0.080000 1.500000
v 0.831150 0.280000 -1.500000
v 0.786063 0.080000 -1.500000
v 0.831150 0.280000 1.500000
v 0.786063 0.080000 1.500000
v 0.968850 0.260000 -1.500000
v 0.831150 0.260000 1.500000
v 0.968850 0.260000 1.500000
v 0.831150 0.260000 -1.500000
v 0.954434 0.240000 -1.500000
v 0.954434 0.240000 1.500000
v 0.845565 0.240000 -1.500000
v 0.845565 0.240000 1.500000
v 0.979942 0.148000 -1.500000
v 0.979942 0.148000 1.500000
v 0.820058 0.148000 -1.500000
v 0.820058 0.148000 1.500000
v 1.013937 0.106000 -1.500000
v 1.013937 0.106000 1.500000
v 0.786063 0.106000 -1.500000
v 0.786063 0.106000 1.500000
v 0.938728 0.291195 1.500000
v 0.861272 0.291195 1.500000
v 0.938728 0.291195 -1.500000
v 0.861272 0.291195 -1.500000
vn 0.0166 0.9998 0.0142
vn -0.5828 -0.0019 0.8126
vn -0.8124 0.0218 -0.5826
vn -0.0166 -0.9998 -0.0142
vn 0.8124 -0.0218 0.5826
vn 0.5828 0.0019 -0.8126
vn -0.0000 1.0000 -0.0000
vn -0.0000 -0.0000 1.0000
vn -1.0000 -0.0000 -0.0000
vn -0.0000 -1.0000 -0.0000
vn 1.0000 -0.0000 -0.0000
vn -0.0000 -0.0000 -1.0000
vn -0.1694 -0.0000 0.9855
vn -0.9855 -0.0000 -0.1694
vn 0.9855 -0.0000 0.1694
vn 0.1694 -0.0000 -0.9855
vn 0.8211 0.5708 -0.0000
vn 0.1770 0.9842 -0.0000
vn -0.8211 0.5708 -0.0000
vn -0.8112 -0.5847 -0.0000
vn 0.8112 -0.5847 -0.0000
vn 0.9636 0.2672 -0.0000
vn -0.9636 0.2672 -0.0000
vn -0.7773 0.6291 -0.0000
vn 0.7773 0.6291 -0.0000
vn -0.1770 0.9842 -0.0000
vt 0.932832 0.008688
vt 0.932832 0.491312
vt 0.859389 0.491312
vt 0.859389 0.008688
vt 0.542764 0.008688
vt 0.561111 0.008688
vt 0.561111 0.536158
vt 0.542764 0.536158
vt 0.855940 0.500718
vt 0.874253 0.500718
vt 0.874253 0.580985
vt 0.855940 0.580985
vt 0.990891 0.008688
vt 0.990891 0.491312
vt 0.942448 0.491312
vt 0.942448 0.008688
vt 0.914466 0.500718
vt 0.932780 0.500718
vt 0.932780 0.580985
vt 0.914466 0.580985
vt 0.514162 0.008688
vt 0.532509 0.008688
vt 0.532509 0.536158
vt 0.514162 0.536158
vt 0.646553 0.008688
vt 0.646553 0.491312
vt 0.573110 0.491312
vt 0.573110 0.008688
vt 0.425859 0.008688
vt 0.444206 0.008688
vt 0.444206 0.536158
vt 0.425859 0.536158
vt 0.972577 0.500718
vt 0.990891 0.500718
vt 0.990891 0.580985
vt 0.972577 0.580985
vt 0.705270 0.008688
vt 0.705270 0.491312
vt 0.656828 0.491312
vt 0.656828 0.008688
vt 0.827370 0.500718
vt 0.845684 0.500718
vt 0.845684 0.580985
vt 0.827370 0.580985
vt 0.455293 0.008688
vt 0.473640 0.008688
vt 0.473640 0.536158
vt 0.455293 0.536158
vt 0.789619 0.008688
vt 0.789619 0.491312
vt 0.716177 0.491312
vt 0.716177 0.008688
vt 0.485142 0.008688
vt 0.503489 0.008688
vt 0.503489 0.536158
vt 0.485142 0.536158
vt 0.885897 0.500718
vt 0.904210 0.500718
vt 0.904210 0.580985
vt 0.885897 0.580985
vt 0.848725 0.008688
vt 0.848725 0.491312
vt 0.800282 0.491312
vt 0.800282 0.008688
vt 0.944008 0.500718
vt 0.962321 0.500718
vt 0.962321 0.580985
vt 0.944008 0.580985
vt 0.396425 0.008688
vt 0.414772 0.008688
vt 0.414772 0.536158
vt 0.396425 0.536158
vt 0.344756 0.752898
vt 0.338435 0.752898
vt 0.338435 0.008688
vt 0.344756 0.008688
vt 0.696784 0.541033
vt 0.727625 0.541033
vt 0.727625 0.545513
vt 0.696784 0.545513
vt 0.105049 0.008688
vt 0.105049 0.752898
vt 0.100860 0.752898
vt 0.100860 0.008688
vt 0.008688 0.752898
vt 0.008688 0.008688
vt 0.041504 0.008688
vt 0.041504 0.752898
vt 0.159789 0.008688
vt 0.159789 0.752898
vt 0.155600 0.752898
vt 0.155600 0.008688
vt 0.583208 0.541033
vt 0.614049 0.541033
vt 0.614049 0.545513
vt 0.583208 0.545513
vt 0.586437 0.536554
vt 0.610820 0.536554
vt 0.164160 0.008688
vt 0.164160 0.752898
vt 0.109420 0.008688
vt 0.109420 0.752898
vt 0.700012 0.536554
vt 0.724396 0.536554
vt 0.694299 0.515948
vt 0.730109 0.515948
vt 0.128368 0.008688
vt 0.128369 0.752898
vt 0.183109 0.008688
vt 0.183109 0.752898
vt 0.580724 0.515948
vt 0.616534 0.515948
vt 0.573110 0.506541
vt 0.624148 0.506541
vt 0.191477 0.008688
vt 0.191477 0.752898
vt 0.136737 0.008688
vt 0.136737 0.752898
vt 0.686685 0.506541
vt 0.737723 0.506541
vt 0.686685 0.500718
vt 0.737723 0.500718
vt 0.142183 0.008688
vt 0.142183 0.752898
vt 0.196923 0.008688
vt 0.196923 0.752898
vt 0.573110 0.500718
vt 0.624148 0.500718
vt 0.322182 0.752898
vt 0.322182 0.008688
vt 0.315862 0.008688
vt 0.315862 0.752898
vt 0.607303 0.548020
vt 0.589955 0.548020
vt 0.720878 0.548020
vt 0.703530 0.548020
vt 0.356194 0.752898
vt 0.356194 0.008688
vt 0.362514 0.008688
vt 0.362514 0.752898
vt 0.638847 0.515619
vt 0.638847 0.511140
vt 0.669688 0.511140
vt 0.669688 0.515619
vt 0.266630 0.752898
vt 0.262441 0.752898
vt 0.262441 0.008688
vt 0.266630 0.008688
vt 0.088892 0.752898
vt 0.056076 0.752898
vt 0.056076 0.008688
vt 0.088892 0.008688
vt 0.213210 0.752898
vt 0.209021 0.752898
vt 0.209021 0.008688
vt 0.213210 0.008688
vt 0.752422 0.515619
vt 0.752422 0.511140
vt 0.783263 0.511140
vt 0.783263 0.515619
vt 0.755651 0.520099
vt 0.780035 0.520099
vt 0.217581 0.752898
vt 0.217581 0.008688
vt 0.271001 0.752898
vt 0.271001 0.008688
vt 0.642076 0.520099
vt 0.666459 0.520099
vt 0.636362 0.540704
vt 0.672172 0.540704
vt 0.289950 0.752898
vt 0.289950 0.008688
vt 0.236529 0.752898
vt 0.236529 0.008688
vt 0.749938 0.540704
vt 0.785748 0.540704
vt 0.742324 0.550111
vt 0.793362 0.550111
vt 0.244898 0.752898
vt 0.244898 0.008688
vt 0.298318 0.752898
vt 0.298318 0.008688
vt 0.628748 0.550111
vt 0.679786 0.550111
vt 0.628748 0.555935
vt 0.679786 0.555935
vt 0.303764 0.752898
vt 0.303764 0.008688
vt 0.250344 0.752898
vt 0.250344 0.008688
vt 0.742324 0.555935
vt 0.793362 0.555935
vt 0.378768 0.752898
vt 0.378768 0.008688
vt 0.385088 0.008688
vt 0.385088 0.752898
vt 0.759169 0.508632
vt 0.776517 0.508632
vt 0.645593 0.508632
vt 0.662942 0.508632
s 1
usemtl Straight_6
f 1/1/1 5/2/1 7/3/1 3/4/1
f 4/5/2 3/6/2 7/7/2 8/8/2
f 8/9/3 7/10/3 5/11/3 6/12/3
f 6/13/4 2/14/4 4/15/4 8/16/4
f 2/17/5 1/18/5 3/19/5 4/20/5
f 6/21/6 5/22/6 1/23/6 2/24/6
f 9/25/7 13/26/7 15/27/7 11/28/7
f 12/29/8 11/30/8 15/31/8 16/32/8
f 16/33/9 15/34/9 13/35/9 14/36/9
f 14/37/10 10/38/10 12/39/10 16/40/10
f 10/41/11 9/42/11 11/43/11 12/44/11
f 14/45/12 13/46/12 9/47/12 10/48/12
f 17/49/7 21/50/7 23/51/7 19/52/7
f 20/53/13 19/54/13 23/55/13 24/56/13
f 24/57/14 23/58/14 21/59/14 22/60/14
f 22/61/10 18/62/10 20/63/10 24/64/10
f 18/65/15 17/66/15 19/67/15 20/68/15
f 22/69/16 21/70/16 17/71/16 18/72/16
f 29/73/17 52/74/18 50/75/18 31/76/17
f 35/77/8 34/78/8 31/79/8 27/80/8
f 34/81/11 36/82/11 29/83/17 31/84/17
f 30/85/10 32/86/10 28/87/10 26/88/10
f 33/89/9 35/90/9 27/91/19 25/92/19
f 36/93/12 33/94/12 25/95/12 29/96/12
f 39/97/12 37/98/12 33/94/12 36/93/12
f 37/99/20 38/100/20 35/90/20 33/89/20
f 40/101/21 39/102/21 36/82/21 34/81/21
f 38/103/8 40/104/8 34/78/8 35/77/8
f 42/105/8 44/106/8 40/104/8 38/103/8
f 44/107/22 43/108/22 39/102/22 40/101/22
f 41/109/23 42/110/23 38/100/23 37/99/23
f 43/111/12 41/112/12 37/98/12 39/97/12
f 47/113/12 45/114/12 41/112/12 43/111/12
f 45/115/24 46/116/24 42/110/24 41/109/24
f 48/117/25 47/118/25 43/108/25 44/107/25
f 46/119/8 48/120/8 44/106/8 42/105/8
f 28/121/8 32/122/8 48/120/8 46/119/8
f 32/123/11 30/124/11 47/118/11 48/117/11
f 26/125/9 28/126/9 46/116/9 45/115/9
f 30/127/12 26/128/12 45/114/12 47/113/12
f 51/129/26 49/130/26 50/75/18 52/74/18
f 27/131/19 49/130/26 51/129/26 25/132/19
f 25/95/12 51/133/12 52/134/12 29/96/12
f 31/79/8 50/135/8 49/136/8 27/80/8
f 57/137/19 59/138/19 78/139/26 80/140/26
f 63/141/8 55/142/8 59/143/8 62/144/8
f 62/145/9 59/146/19 57/147/19 64/148/9
f 58/149/10 54/150/10 56/151/10 60/152/10
f 61/153/11 53/154/17 55/155/17 63/156/11
f 64/157/12 57/158/12 53/159/12 61/160/12
f 67/161/12 64/157/12 61/160/12 65/162/12
f 65/163/21 61/153/21 63/156/21 66/164/21
f 68/165/20 62/145/20 64/148/20 67/166/20
f 66/167/8 63/141/8 62/144/8 68/168/8
f 70/169/8 66/167/8 68/168/8 72/170/8
f 72/171/23 68/165/23 67/166/23 71/172/23
f 69/173/22 65/163/22 66/164/22 70/174/22
f 71/175/12 67/161/12 65/162/12 69/176/12
f 75/177/12 71/175/12 69/176/12 73/178/12
f 73/179/25 69/173/25 70/174/25 74/180/25
f 76/181/24 72/171/24 71/172/24 75/182/24
f 74/183/8 70/169/8 72/170/8 76/184/8
f 56/185/8 74/183/8 76/184/8 60/186/8
f 60/187/9 76/181/9 75/182/9 58/188/9
f 54/189/11 73/179/11 74/180/11 56/190/11
f 58/191/12 75/177/12 73/178/12 54/192/12
f 79/193/18 80/140/26 78/139/26 77/194/18
f 55/195/17 53/196/17 79/193/18 77/194/18
f 53/159/12 57/158/12 80/197/12 79/198/12
f 59/143/8 55/142/8 77/199/8 78/200/8
