# Blender 4.3.2
# www.blender.org
mtllib ropewheelstand3.mtl
o Cube
v -0.081013 -0.021968 2.287206
v -0.053847 1.293984 2.346632
v -0.077738 -0.010513 2.448309
v -0.064092 1.269574 2.409073
v 0.063851 0.000047 2.275154
v 0.040178 1.274624 2.326895
v 0.083572 0.003619 2.441880
v 0.027638 1.278430 2.421349
v -0.003258 -0.006912 2.495094
v -0.009622 1.269574 2.409073
v -0.001224 -0.015389 2.239916
v -0.006032 1.291367 2.341989
v 0.329376 1.606642 2.502760
v 0.422678 1.606642 2.502760
v 0.406546 1.658356 2.169878
v 0.313245 1.658356 2.169878
v -0.337628 1.612268 2.314964
v -0.345685 1.619738 2.353648
v -0.305717 1.607655 2.302414
v -0.323643 1.623704 2.343805
v -0.099940 -0.030052 2.372414
v -0.060681 1.299636 2.373755
v 0.100663 -0.018928 2.355319
v 0.053385 1.273774 2.355894
v 0.000000 1.257868 2.379606
v 0.000000 -0.016273 2.370189
v 0.406546 1.658356 2.256040
v 0.313245 1.604619 2.256040
v -0.356946 1.613289 2.336544
v -0.310077 1.623731 2.327513
v -0.060681 1.299636 2.384751
v 0.102975 -0.018057 2.395381
v -0.304322 1.470899 2.347948
v -0.099940 -0.030052 2.391248
v 0.039995 1.270312 2.391501
v -0.299745 1.454491 2.353244
v 0.000000 -0.016273 2.389022
v 0.422678 1.606642 2.435431
v 0.329376 1.660379 2.435431
v -0.308790 1.403951 2.450509
v -0.253688 1.370253 2.428915
v -0.225454 1.405113 2.435223
v -0.180707 1.346363 2.447630
v -0.228593 1.455330 2.352521
v -0.263219 1.481523 2.356919
v -0.204519 1.433932 2.385994
v -0.250414 1.480888 2.395803
v -0.307186 1.440159 2.366614
v -0.341973 1.473291 2.354674
v -0.310580 1.420722 2.403602
v -0.354177 1.470299 2.382665
v -0.319553 1.633209 2.727745
v -0.284771 1.575621 2.724866
v -0.412855 1.633209 2.727745
v -0.378073 1.575621 2.724866
v -0.295327 1.491236 2.397734
v -0.348044 1.502183 2.411374
vn -0.6571 -0.7231 0.2129
vn -0.6882 -0.4137 0.5961
vn -0.7927 -0.5315 -0.2984
vn 0.6255 -0.4711 0.6219
vn -0.0533 0.6371 0.7689
vn 0.0279 -0.5647 0.8248
vn 0.6268 -0.5206 -0.5797
vn 0.9396 -0.0723 0.3346
vn 0.6951 -0.6829 -0.2246
vn -0.6054 -0.6240 -0.4941
vn -0.2337 0.7833 -0.5761
vn 0.0357 -0.5988 -0.8001
vn 0.0712 -0.9968 -0.0365
vn -0.5984 -0.4298 -0.6761
vn -0.4940 0.4137 -0.7647
vn 0.0174 -0.2987 -0.9542
vn 0.1700 -0.1809 0.9687
vn -0.2200 0.4462 0.8675
vn -0.6792 -0.7265 -0.1041
vn 0.2502 -0.2302 -0.9404
vn -0.5774 -0.5688 0.5857
vn 0.6882 0.3891 0.6123
vn -0.4687 0.6216 -0.6277
vn -0.4176 0.6292 0.6556
vn 0.0704 0.9913 0.1113
vn 0.8660 0.2003 -0.4582
vn 0.9880 0.0636 -0.1409
vn 0.4890 0.8720 -0.0236
vn -0.8539 0.4699 -0.2237
vn 0.2213 0.4625 0.8585
vn -0.3343 0.7650 0.5505
vn -0.5328 0.2660 0.8033
vn 0.3949 0.3178 -0.8620
vn 0.5769 0.2500 -0.7776
vn 0.5931 0.7511 0.2900
vn 0.6577 0.6315 0.4106
vn -0.8308 -0.4326 0.3503
vn -0.5713 -0.7441 -0.3463
vn -0.4535 -0.8896 -0.0535
vn -0.1375 0.9451 -0.2963
vn 0.0689 -0.9934 0.0915
vn -0.9242 -0.3745 -0.0745
vn 0.7001 -0.6734 0.2375
vn -0.5178 -0.1991 -0.8320
vn 0.7673 0.2659 0.5836
vn 0.2337 0.8854 0.4019
vn -0.8441 -0.5312 -0.0732
vn -0.4321 -0.6793 -0.5931
vn 0.6351 0.6976 0.3317
vn 0.4251 0.5442 -0.7233
vn 0.1371 -0.2931 0.9462
vn -0.1274 -0.3760 -0.9178
vn -0.4384 -0.5442 0.7153
vn 0.3335 0.8478 0.4124
vn 0.7254 -0.1356 0.6748
vn 0.7317 0.2870 -0.6182
vn -0.7454 0.5833 0.3226
vt 0.922739 0.703745
vt 0.914859 0.018931
vt 0.926672 0.003323
vt 0.420974 0.865794
vt 0.598723 0.220872
vt 0.468460 0.881073
vt 0.633171 0.661177
vt 0.649808 0.013296
vt 0.679503 0.671222
vt 0.096744 0.872264
vt 0.168169 0.186841
vt 0.144482 0.871015
vt 0.058111 0.935086
vt 0.003323 0.960590
vt 0.008534 0.915203
vt 0.003443 0.077860
vt 0.016400 0.004168
vt 0.023326 0.080504
vt 0.581622 0.212621
vt 0.468594 0.013004
vt 0.072784 0.994477
vt 0.104368 0.961171
vt 0.193207 0.197185
vt 0.172066 0.866353
vt 0.626524 0.226523
vt 0.502338 0.889933
vt 0.726971 0.613561
vt 0.783121 0.647838
vt 0.740494 0.666973
vt 0.746121 0.879729
vt 0.726971 0.886573
vt 0.789767 0.607664
vt 0.824819 0.875912
vt 0.808770 0.876511
vt 0.367501 0.003323
vt 0.252019 0.902831
vt 0.238329 0.892642
vt 0.243405 0.878911
vt 0.953914 0.604823
vt 0.951064 0.533491
vt 0.978584 0.589294
vt 0.034251 0.007615
vt 0.042879 0.076804
vt 0.726971 0.342835
vt 0.777514 0.399022
vt 0.794918 0.458233
vt 0.125505 0.958632
vt 0.135766 0.878911
vt 0.145131 0.967585
vt 0.890620 0.748893
vt 0.916141 0.743857
vt 0.900741 0.783204
vt 0.938837 0.294297
vt 0.982393 0.016155
vt 0.954720 0.293948
vt 0.686499 0.930876
vt 0.633171 0.692536
vt 0.686499 0.677868
vt 0.822288 0.558351
vt 0.822288 0.590269
vt 0.807881 0.572408
vt 0.063152 0.926542
vt 0.109409 0.952626
vt 0.807881 0.551704
vt 0.807881 0.472612
vt 0.822827 0.545697
vt 0.018187 0.896380
vt 0.665881 0.010979
vt 0.700084 0.668714
vt 0.838256 0.701904
vt 0.852982 0.006103
vt 0.883974 0.696967
vt 0.720325 0.652218
vt 0.678991 0.003323
vt 0.038917 0.879570
vt 0.092796 0.878911
vt 0.808795 0.407787
vt 0.818704 0.338268
vt 0.829961 0.416313
vt 0.114144 0.920061
vt 0.151777 0.934789
vt 0.194672 0.893670
vt 0.183025 0.931824
vt 0.938837 0.301148
vt 0.954516 0.526844
vt 0.938837 0.526788
vt 0.261579 0.887241
vt 0.268709 0.904618
vt 0.258665 0.899736
vt 0.929717 0.889151
vt 0.912094 0.896078
vt 0.693146 0.957157
vt 0.708970 0.731869
vt 0.708970 0.983699
vt 0.932190 0.703905
vt 0.932190 0.003417
vt 0.935021 0.889299
vt 0.930688 0.710551
vt 0.937920 0.740188
vt 0.726971 0.579697
vt 0.763473 0.453977
vt 0.748536 0.595507
vt 0.120791 0.976774
vt 0.134553 0.996677
vt 0.762258 0.588675
vt 0.801235 0.497031
vt 0.143522 0.183617
vt 0.060106 0.091877
vt 0.024255 0.089427
vt 0.782711 0.247474
vt 0.750726 0.316604
vt 0.726971 0.331621
vt 0.767662 0.032607
vt 0.831609 0.192466
vt 0.817151 0.225329
vt 0.947799 0.739464
vt 0.947799 0.894313
vt 0.017942 0.096947
vt 0.231682 0.897255
vt 0.201319 0.927505
vt 0.201319 0.878911
vt 0.836886 0.905697
vt 0.883974 0.723462
vt 0.877800 0.923625
vt 0.954446 0.905751
vt 0.987617 0.733975
vt 0.987617 0.924174
vt 0.726971 0.058331
vt 0.980808 0.643802
vt 0.938837 0.659060
vt 0.807881 0.465966
vt 0.890620 0.693166
vt 0.633171 0.012707
vt 0.023778 0.994477
vt 0.003323 0.003323
vt 0.420974 0.003323
vt 0.770928 0.602154
vt 0.824819 0.602154
vt 0.414327 0.007135
vt 0.238329 0.910875
vt 0.938837 0.535895
vt 0.769551 0.419826
vt 0.737171 0.338268
vt 0.120791 0.883221
vt 0.938837 0.003323
vt 0.678331 0.948210
vt 0.838256 0.003323
vt 0.807881 0.339757
vt 0.151777 0.878911
vt 0.975811 0.300944
vt 0.268709 0.878911
vt 0.693204 0.677868
vt 0.946047 0.715419
vt 0.749220 0.435822
vt 0.775869 0.003323
vt 0.231682 0.945849
vt 0.836886 0.710551
vt 0.962280 0.710551
s 1
f 34/1/1 4/2/2 31/3/3
f 7/4/4 10/5/5 9/6/6
f 5/7/7 24/8/8 23/9/9
f 1/10/10 12/11/11 11/12/12
f 26/13/13 5/14/7 23/15/9
f 49/16/14 17/17/15 33/18/16
f 8/19/17 13/20/18 10/5/5
f 1/21/10 26/13/13 21/22/19
f 11/12/12 6/23/20 5/24/7
f 9/6/6 4/25/2 3/26/21
f 27/27/22 16/28/23 28/29/24
f 28/29/24 12/30/11 25/31/25
f 38/32/26 8/33/17 35/34/27
f 16/35/23 6/23/20 12/11/11
f 30/36/28 17/37/15 29/38/29
f 56/39/30 18/40/31 57/41/32
f 33/18/16 19/42/33 45/43/34
f 30/44/28 56/45/30 42/46/35
f 45/47/34 30/48/28 47/49/36
f 40/50/37 50/51/38 41/52/39
f 6/53/20 27/54/22 24/55/8
f 35/56/27 39/57/40 38/58/26
f 24/59/8 25/60/25 35/61/27
f 21/22/19 37/62/41 34/63/1
f 51/64/42 29/65/29 49/66/14
f 26/13/13 32/67/43 37/62/41
f 23/9/9 35/68/27 32/69/43
f 21/70/19 2/71/44 1/72/10
f 7/73/4 35/68/27 8/74/17
f 37/62/41 7/75/4 9/76/6
f 57/77/32 29/78/29 51/79/42
f 3/80/21 37/62/41 9/76/6
f 38/81/26 13/82/18 14/83/45
f 13/84/18 25/85/25 10/86/5
f 20/87/46 29/88/29 18/89/31
f 41/52/39 31/90/3 4/91/2
f 24/92/8 28/93/24 25/94/25
f 21/95/19 31/3/3 22/96/47
f 50/51/38 22/97/47 31/90/3
f 51/98/42 48/99/48 50/51/38
f 12/100/11 46/101/49 25/102/25
f 44/103/50 47/49/36 46/104/49
f 46/101/49 10/105/5 25/102/25
f 46/101/49 42/46/35 43/106/51
f 2/107/44 44/108/50 12/11/11
f 36/109/52 45/43/34 44/108/50
f 43/110/51 4/111/2 10/112/5
f 55/113/53 40/114/37 41/115/39
f 22/97/47 36/116/52 2/117/44
f 49/16/14 36/109/52 48/118/48
f 52/119/54 55/120/53 53/121/55
f 40/122/37 52/123/54 42/124/35
f 42/125/35 53/126/55 43/127/51
f 53/128/55 41/115/39 43/110/51
f 56/39/30 40/129/37 42/130/35
f 40/131/37 57/77/32 51/79/42
f 34/1/1 3/132/21 4/2/2
f 7/4/4 8/19/17 10/5/5
f 5/7/7 6/133/20 24/8/8
f 1/10/10 2/107/44 12/11/11
f 26/13/13 11/134/12 5/14/7
f 49/16/14 29/135/29 17/17/15
f 8/19/17 14/136/45 13/20/18
f 1/21/10 11/134/12 26/13/13
f 11/12/12 12/11/11 6/23/20
f 9/6/6 10/5/5 4/25/2
f 27/27/22 15/137/56 16/28/23
f 28/29/24 16/28/23 12/30/11
f 38/32/26 14/138/45 8/33/17
f 16/35/23 15/139/56 6/23/20
f 30/36/28 19/140/33 17/37/15
f 56/39/30 20/141/46 18/40/31
f 33/18/16 17/17/15 19/42/33
f 42/46/35 47/142/36 30/44/28
f 30/44/28 20/143/46 56/45/30
f 45/47/34 19/144/33 30/48/28
f 40/50/37 51/98/42 50/51/38
f 6/53/20 15/145/56 27/54/22
f 35/56/27 25/146/25 39/57/40
f 21/22/19 26/13/13 37/62/41
f 26/13/13 23/15/9 32/67/43
f 23/9/9 24/8/8 35/68/27
f 21/70/19 22/147/47 2/71/44
f 7/73/4 32/69/43 35/68/27
f 37/62/41 32/67/43 7/75/4
f 57/77/32 18/148/31 29/78/29
f 3/80/21 34/63/1 37/62/41
f 38/81/26 39/149/40 13/82/18
f 13/84/18 39/150/40 25/85/25
f 20/87/46 30/151/28 29/88/29
f 41/52/39 50/51/38 31/90/3
f 24/92/8 27/152/22 28/93/24
f 21/95/19 34/1/1 31/3/3
f 50/51/38 48/99/48 22/97/47
f 51/98/42 49/153/14 48/99/48
f 12/100/11 44/154/50 46/101/49
f 44/103/50 45/47/34 47/49/36
f 46/101/49 43/106/51 10/105/5
f 46/101/49 47/142/36 42/46/35
f 2/107/44 36/109/52 44/108/50
f 36/109/52 33/18/16 45/43/34
f 43/110/51 41/115/39 4/111/2
f 55/113/53 54/155/57 40/114/37
f 22/97/47 48/99/48 36/116/52
f 49/16/14 33/18/16 36/109/52
f 52/119/54 54/156/57 55/120/53
f 40/122/37 54/157/57 52/123/54
f 42/125/35 52/158/54 53/126/55
f 53/128/55 55/113/53 41/115/39
f 56/39/30 57/41/32 40/129/37
