# Blender 4.3.2
# www.blender.org
mtllib shovel.mtl
o Cylinder
v -0.000000 0.218917 -4.023632
v -0.000000 0.255890 4.023632
v 0.066490 0.193576 -4.023632
v 0.066490 0.230549 4.023632
v 0.144825 0.159545 -4.023632
v 0.119812 0.159545 4.023632
v 0.185927 0.056941 -4.023632
v 0.149403 0.056941 4.023632
v 0.185927 -0.056941 -4.023632
v 0.149403 -0.056941 4.023632
v 0.156336 -0.159545 -4.023632
v 0.119812 -0.159545 4.023632
v 0.066490 -0.207657 -4.023632
v 0.066490 -0.230549 4.023632
v -0.000000 -0.232999 -4.023632
v -0.000000 -0.255891 4.023632
v -0.066490 -0.207657 -4.023632
v -0.066490 -0.230549 4.023632
v -0.152426 -0.159545 -4.023632
v -0.119812 -0.159545 4.023632
v -0.182017 -0.056941 -4.023632
v -0.149403 -0.056941 4.023632
v -0.182017 0.056941 -4.023632
v -0.149403 0.056941 4.023632
v -0.143683 0.151176 -4.020659
v -0.119812 0.159545 4.023632
v -0.066490 0.193576 -4.023632
v -0.066490 0.230549 4.023632
v 0.000000 0.255891 -4.023632
v 0.111027 0.230549 -4.023632
v 0.200063 0.159545 -4.023632
v 0.249475 0.056941 -4.023632
v 0.249475 -0.056941 -4.023632
v 0.200063 -0.159545 -4.023632
v 0.111027 -0.230549 -4.023632
v 0.000000 -0.255890 -4.023632
v -0.111027 -0.230549 -4.023632
v -0.200063 -0.159545 -4.023632
v -0.249475 -0.056941 -4.023632
v -0.249475 0.056941 -4.023632
v -0.200063 0.159545 -4.023632
v -0.111027 0.230549 -4.023632
v -0.000001 0.108105 -7.274710
v 0.111025 0.092956 -7.274710
v 1.237630 0.056349 -6.537265
v 1.274142 0.025579 -6.537265
v 1.274142 -0.025578 -6.537265
v 1.237630 -0.055279 -6.537265
v 0.111025 -0.014546 -7.274710
v -0.000001 -0.013947 -7.274710
v -0.111028 -0.014546 -7.274710
v -1.205246 -0.055821 -6.499975
v -1.241757 -0.013465 -6.499975
v -1.241757 0.040934 -6.499975
v -1.205246 0.070084 -6.499975
v -0.111028 0.092956 -7.274710
v 0.852415 0.159545 -4.171465
v 0.111027 0.230549 -4.171465
v -0.850007 -0.043206 -4.134175
v -0.824937 -0.184779 -4.134175
v 0.877485 0.056941 -4.171465
v -0.850007 0.070675 -4.134175
v 0.877485 -0.056941 -4.171465
v -0.824937 0.173280 -4.134175
v 0.852415 -0.184236 -4.171465
v -0.111027 0.230549 -4.171465
v 0.061854 -0.182429 -4.171465
v -0.000000 0.255891 -4.171465
v 0.005523 -0.207770 -4.171465
v -0.050808 -0.182429 -4.171465
v -0.662636 0.071003 -6.916479
v -0.437873 0.201915 -4.152820
v 0.678827 0.073251 -6.934465
v 0.457134 0.195047 -4.171465
v 0.678827 -0.035277 -6.934465
v -0.662636 -0.026432 -6.916479
v 1.203383 0.071462 -4.566067
v -1.209326 -0.017425 -4.528778
v 1.238913 0.023395 -4.566067
v -1.209326 0.034251 -4.528778
v 1.238913 -0.029956 -4.566067
v -1.173797 0.080810 -4.528778
v 1.203383 -0.089591 -4.566067
v -0.076684 0.089941 -4.735960
v 0.003149 0.115282 -4.735960
v 0.082983 0.089941 -4.735960
v -1.173797 -0.081666 -4.528778
v -0.625241 0.056329 -4.639081
v 0.643183 0.097893 -4.657574
v -0.000000 0.176313 -3.956704
v -0.000000 0.176313 4.090559
v 0.066490 0.158853 -3.956704
v 0.066490 0.158853 4.090559
v 0.119812 0.109930 -3.956704
v 0.119812 0.109929 4.090559
v 0.149403 0.039233 -3.956704
v 0.149403 0.039233 4.090559
v 0.149403 -0.039233 -3.956704
v 0.149403 -0.039233 4.090559
v 0.119812 -0.109929 -3.956704
v 0.119812 -0.109930 4.090559
v 0.066490 -0.158853 -3.956704
v 0.066490 -0.158853 4.090559
v -0.000000 -0.176313 -3.956704
v -0.000000 -0.176313 4.090559
v -0.066490 -0.158853 -3.956704
v -0.066490 -0.158853 4.090559
v -0.119812 -0.109929 -3.956704
v -0.119812 -0.109930 4.090559
v -0.149403 -0.039233 -3.956704
v -0.149403 -0.039233 4.090559
v -0.149403 0.039233 -3.956704
v -0.149403 0.039233 4.090559
v -0.119812 0.109930 -3.956704
v -0.119812 0.109929 4.090559
v -0.066490 0.158853 -3.956704
v -0.066490 0.158853 4.090559
vn -0.0000 -0.0000 1.0000
vn 0.0488 0.9988 -0.0100
vn -0.0443 0.0556 0.9975
vn 0.5259 -0.2375 -0.8167
vn -0.8751 -0.4840 0.0076
vn 0.8041 0.5944 0.0094
vn -0.9999 -0.0000 0.0165
vn 0.9998 -0.0000 0.0179
vn -0.6239 0.7814 0.0129
vn 0.6310 -0.7757 0.0096
vn -0.0352 0.9994 0.0070
vn 0.0680 -0.9970 -0.0379
vn -0.1352 0.9908 0.0030
vn -0.0054 -0.9985 -0.0541
vn -0.4096 -0.9105 -0.0561
vn 0.3025 0.9531 -0.0031
vn -0.0008 -0.9985 -0.0543
vn -0.0122 -0.9493 -0.3140
vn 0.2225 0.9749 -0.0000
vn -0.3916 -0.8705 -0.2980
vn 0.2072 -0.9079 -0.3644
vn -0.2225 0.9749 -0.0000
vn -0.0023 -0.9879 0.1550
vn -0.0569 0.9129 0.4042
vn 0.2289 -0.0451 0.9724
vn -0.1799 0.0440 0.9827
vn 0.2291 -0.0000 0.9734
vn -0.1810 -0.0000 0.9835
vn 0.2198 0.1058 0.9698
vn -0.1704 -0.0821 0.9820
vn 0.0942 0.9184 0.3844
vn -0.0058 1.0000 -0.0053
vn -0.0143 0.9999 0.0010
vn -0.5623 0.2457 -0.7895
vn -0.5447 -0.0000 -0.8387
vn 0.5140 -0.0000 -0.8578
vn -0.0000 -0.0000 -1.0000
vn 0.0989 0.9644 -0.2451
vn -0.0021 0.9740 -0.2264
vn 0.2163 0.9477 -0.2348
vn -0.2931 0.9234 -0.2478
vn -0.1029 0.9631 -0.2487
vn 0.6867 -0.4091 0.6010
vn -0.6611 0.5045 0.5554
vn 0.7374 -0.0000 0.6754
vn -0.7394 -0.0000 0.6733
vn 0.7545 0.1843 0.6299
vn -0.7596 -0.1345 0.6364
vn 0.0883 0.9827 -0.1626
vn 0.2540 0.9672 -0.0000
vn 0.6761 0.7368 -0.0000
vn 0.9225 0.3861 -0.0000
vn 1.0000 -0.0000 -0.0000
vn 0.9225 -0.3861 -0.0000
vn 0.6761 -0.7368 -0.0000
vn 0.2540 -0.9672 -0.0000
vn -0.2540 -0.9672 -0.0000
vn -0.6761 -0.7368 -0.0000
vn -0.9225 -0.3861 -0.0000
vn -1.0000 -0.0000 -0.0000
vn -0.9225 0.3861 -0.0000
vn -0.6761 0.7368 -0.0000
vn -0.2540 0.9672 -0.0000
vn -0.3061 0.8031 0.5112
vn 0.2270 0.8645 0.4485
vn 0.5282 0.5757 0.6242
vn 0.7891 0.3303 0.5180
vn 0.8778 -0.0000 0.4790
vn 0.7761 -0.2238 0.5895
vn 0.3971 -0.7415 0.5408
vn 0.2793 -0.7327 0.6206
vn -0.2076 -0.7904 0.5764
vn -0.5086 -0.5543 0.6588
vn -0.8077 -0.3381 0.4831
vn -0.8989 -0.0000 0.4381
vn -0.8064 0.3122 0.5023
vn -0.4252 0.8034 0.4168
vn 0.0352 0.9994 -0.0070
vn 0.0232 0.0279 0.9993
vn -0.0540 -0.0095 0.9985
vn 0.5794 -0.0000 -0.8151
vn 0.4852 0.5757 -0.6581
vn -0.7574 -0.6529 0.0111
vn 0.6444 0.7646 0.0124
vn -0.7949 0.6066 0.0094
vn 0.8591 -0.5118 0.0060
vn -0.0608 0.9981 0.0020
vn -0.0022 -0.9720 -0.2351
vn -0.0040 -0.9985 -0.0541
vn -0.0231 -0.9996 -0.0178
vn -0.3025 0.9531 -0.0023
vn 0.4096 -0.9105 -0.0576
vn 0.0054 -0.9985 -0.0541
vn 0.1352 0.9908 0.0027
vn 0.0004 -0.9985 -0.0540
vn -0.2749 -0.9614 -0.0082
vn -0.1503 -0.9530 -0.2630
vn -0.1626 -0.2038 0.9654
vn -0.2060 -0.9027 -0.3778
vn 0.3949 -0.8778 -0.2710
vn 0.5660 -0.7098 -0.4193
vn -0.6235 0.7818 -0.0000
vn -0.0491 0.9188 0.3917
vn 0.2161 -0.1041 0.9708
vn -0.1718 0.0828 0.9816
vn 0.2288 0.0559 0.9719
vn -0.1817 -0.0322 0.9828
vn 0.6235 0.7818 -0.0000
vn 0.0832 0.9264 0.3672
vn 0.0457 0.9989 0.0057
vn 0.0408 0.9991 -0.0102
vn -0.6089 -0.0000 -0.7933
vn -0.5269 -0.4542 -0.7184
vn 0.0128 0.9815 -0.1912
vn -0.0836 0.9630 -0.2561
vn 0.2933 0.9241 -0.2448
vn -0.2162 0.9471 -0.2371
vn -0.0985 0.9642 -0.2462
vn 0.7563 -0.1490 0.6370
vn -0.7574 0.1851 0.6262
vn 0.6631 0.4901 0.5657
vn -0.6950 -0.3844 0.6077
vn 0.0719 0.9851 -0.1559
vn -0.2270 0.8645 0.4485
vn 0.3061 0.8031 0.5112
vn 0.3598 0.8282 0.4297
vn 0.7880 0.3157 0.5285
vn 0.7890 -0.3303 0.5180
vn 0.4987 -0.5436 0.6751
vn 0.2076 -0.7904 0.5764
vn -0.2793 -0.7327 0.6206
vn -0.4122 -0.7362 0.5368
vn -0.7969 -0.2298 0.5587
vn -0.8077 0.3381 0.4830
vn -0.5467 0.5958 0.5883
vt 0.556754 0.166724
vt 0.577845 0.012427
vt 0.663244 0.081096
vt 0.119665 0.406021
vt 0.159507 0.395503
vt 0.161088 0.414280
vt 0.473887 0.955109
vt 0.414102 0.747674
vt 0.471472 0.733490
vt 0.086987 0.554831
vt 0.047016 0.563807
vt 0.045183 0.542034
vt 0.182902 0.446557
vt 0.204119 0.471165
vt 0.195096 0.471924
vt 0.029171 0.512286
vt 0.002404 0.488146
vt 0.016977 0.486919
vt 0.038910 0.428036
vt 0.008708 0.443542
vt 0.033740 0.406090
vt 0.171332 0.535984
vt 0.197815 0.515769
vt 0.172783 0.553220
vt 0.074779 0.409799
vt 0.117427 0.379431
vt 0.131873 0.551052
vt 0.089096 0.579879
vt 0.190447 0.428242
vt 0.024759 0.459870
vt 0.016076 0.531068
vt 0.187315 0.498973
vt 0.072541 0.383210
vt 0.133982 0.576101
vt 0.491213 0.237888
vt 0.508556 0.002404
vt 0.540241 0.016848
vt 0.668973 0.041262
vt 0.718349 0.056450
vt 0.668052 0.066673
vt 0.669048 0.116173
vt 0.718476 0.129209
vt 0.668052 0.135187
vt 0.668973 0.020821
vt 0.719296 0.039695
vt 0.719499 0.096802
vt 0.719499 0.117037
vt 0.718349 0.006647
vt 0.719296 0.018177
vt 0.669048 0.095070
vt 0.718476 0.085053
vt 0.471230 0.231798
vt 0.405305 0.435226
vt 0.413992 0.217048
vt 0.311482 0.467222
vt 0.219977 0.223487
vt 0.278713 0.015817
vt 0.469168 0.448750
vt 0.405418 0.479127
vt 0.208927 0.492046
vt 0.208927 0.448128
vt 0.311636 0.511786
vt 0.318001 0.489472
vt 0.469234 0.511908
vt 0.469313 0.480301
vt 0.314013 0.817995
vt 0.236154 0.968702
vt 0.209231 0.535963
vt 0.148690 0.148362
vt 0.173438 0.453576
vt 0.668052 0.276584
vt 0.671883 0.232638
vt 0.671771 0.276584
vt 0.696334 0.183912
vt 0.668052 0.204012
vt 0.677983 0.181729
vt 0.668052 0.159447
vt 0.686403 0.139995
vt 0.668164 0.320473
vt 0.671883 0.320473
vt 0.177176 0.497984
vt 0.204119 0.809537
vt 0.008668 0.443543
vt 0.009115 0.313760
vt 0.154778 0.823643
vt 0.007564 0.160242
vt 0.047173 0.146956
vt 0.109892 0.827421
vt 0.092058 0.143177
vt 0.068620 0.820944
vt 0.041512 0.666315
vt 0.016035 0.531069
vt 0.473887 0.014782
vt 0.424242 0.002404
vt 0.405397 0.523062
vt 0.530168 0.768521
vt 0.523641 0.997596
vt 0.490901 0.983152
vt 0.526756 0.550328
vt 0.491986 0.768519
vt 0.484628 0.550326
vt 0.526763 0.462493
vt 0.484636 0.462490
vt 0.526525 0.506411
vt 0.478695 0.506408
vt 0.348196 0.297154
vt 0.390051 0.445519
vt 0.333114 0.433938
vt 0.352265 0.804345
vt 0.400498 0.725763
vt 0.388673 0.942657
vt 0.379851 0.477012
vt 0.322809 0.477769
vt 0.332364 0.521770
vt 0.389512 0.508675
vt 0.342416 0.651148
vt 0.178352 0.951021
vt 0.156026 0.967004
vt 0.032327 0.019668
vt 0.049499 0.004118
vt 0.134998 0.968774
vt 0.069867 0.002404
vt 0.114874 0.956364
vt 0.096366 0.014277
vt 0.363444 0.140921
vt 0.388560 0.223904
vt 0.592368 0.627666
vt 0.618688 0.830171
vt 0.592368 0.830094
vt 0.639834 0.627959
vt 0.639834 0.830387
vt 0.545049 0.211135
vt 0.573013 0.413896
vt 0.545049 0.413067
vt 0.573013 0.211965
vt 0.604052 0.413896
vt 0.632016 0.211135
vt 0.632016 0.413067
vt 0.651368 0.209640
vt 0.651368 0.411572
vt 0.545049 0.839665
vt 0.571338 0.990300
vt 0.545049 0.994768
vt 0.571338 0.835197
vt 0.597651 0.994709
vt 0.545049 0.418704
vt 0.564401 0.622092
vt 0.545049 0.620709
vt 0.564401 0.420086
vt 0.592365 0.622859
vt 0.592365 0.420853
vt 0.623404 0.622859
vt 0.651368 0.420086
vt 0.651368 0.622091
vt 0.545049 0.627962
vt 0.566086 0.830172
vt 0.545049 0.830390
vt 0.566086 0.627744
vt 0.033787 0.485505
vt 0.042875 0.511134
vt 0.063927 0.530528
vt 0.092773 0.539846
vt 0.123700 0.537243
vt 0.150583 0.523233
vt 0.168097 0.500592
vt 0.172773 0.473805
vt 0.163684 0.448176
vt 0.142633 0.428781
vt 0.113786 0.419463
vt 0.082859 0.422067
vt 0.055976 0.436076
vt 0.038463 0.458717
vt 0.651539 0.166725
vt 0.630448 0.194809
vt 0.604146 0.204833
vt 0.577845 0.194809
vt 0.545049 0.126140
vt 0.545049 0.081095
vt 0.556754 0.040512
vt 0.604146 0.002404
vt 0.630448 0.012427
vt 0.651539 0.040512
vt 0.663244 0.126141
vt 0.424249 0.968723
vt 0.533743 0.237891
vt 0.496496 0.016846
vt 0.528603 0.002405
vt 0.668052 0.002404
vt 0.668052 0.071481
vt 0.310859 0.154506
vt 0.231951 0.002404
vt 0.280674 0.956139
vt 0.219912 0.754125
vt 0.668164 0.232638
vt 0.686403 0.227830
vt 0.540241 0.983155
vt 0.502323 0.997595
vt 0.400498 0.002404
vt 0.618688 0.627743
vt 0.604052 0.211965
vt 0.597651 0.839606
vt 0.623404 0.420853
s 0
f 26/1/1 18/2/1 10/3/1
f 21/4/1 38/5/1 19/6/1
f 77/7/2 73/8/2 89/9/2
f 7/10/1 31/11/1 5/12/1
f 17/13/1 36/14/1 15/15/1
f 3/16/1 29/17/1 1/18/1
f 25/19/3 42/20/3 41/21/3
f 11/22/1 35/23/1 34/24/1
f 23/25/1 39/26/1 21/4/1
f 9/27/1 32/28/1 7/10/1
f 19/6/1 37/29/1 17/13/1
f 27/30/1 29/17/1 42/20/1
f 5/12/1 30/31/1 3/16/1
f 13/32/1 36/14/1 35/23/1
f 23/25/1 41/21/1 40/33/1
f 9/27/1 34/24/1 33/34/1
f 73/35/4 46/36/4 48/37/4
f 78/38/5 52/39/5 87/40/5
f 79/41/6 45/42/6 77/43/6
f 80/44/7 53/45/7 78/38/7
f 79/41/8 47/46/8 46/47/8
f 80/44/9 55/48/9 54/49/9
f 81/50/10 48/51/10 47/46/10
f 88/52/11 56/53/11 71/54/11
f 67/55/12 75/56/12 83/57/12
f 84/58/13 43/59/13 56/53/13
f 67/55/14 50/60/14 49/61/14
f 70/62/15 50/60/15 69/63/15
f 86/64/16 43/59/16 85/65/16
f 60/66/17 52/67/17 51/68/17
f 37/29/18 60/69/18 70/70/18
f 29/71/19 58/72/19 68/73/19
f 36/74/20 70/75/20 69/76/20
f 36/74/21 67/77/21 35/78/21
f 42/79/22 68/73/22 66/80/22
f 34/24/23 67/81/23 65/82/23
f 41/21/24 66/83/24 72/84/24
f 33/34/25 65/82/25 63/85/25
f 40/33/26 64/86/26 62/87/26
f 33/34/27 61/88/27 32/28/27
f 40/33/28 59/89/28 39/26/28
f 32/28/29 57/90/29 31/11/29
f 39/26/30 60/69/30 38/5/30
f 31/11/31 74/91/31 58/92/31
f 82/93/32 71/54/32 55/94/32
f 89/9/33 44/95/33 86/64/33
f 76/96/34 53/97/34 55/98/34
f 51/99/35 71/100/35 56/101/35
f 73/35/36 49/102/36 44/103/36
f 56/101/37 50/104/37 51/99/37
f 44/103/37 50/104/37 43/105/37
f 74/106/38 86/107/38 58/108/38
f 64/109/39 88/110/39 82/111/39
f 58/108/40 85/112/40 68/113/40
f 66/114/41 85/112/41 84/115/41
f 72/116/42 84/115/42 88/110/42
f 63/85/43 83/117/43 81/118/43
f 62/87/44 82/119/44 80/120/44
f 63/85/45 79/121/45 61/88/45
f 59/89/46 80/120/46 78/122/46
f 61/88/47 77/123/47 57/90/47
f 59/89/48 87/124/48 60/69/48
f 57/125/49 89/126/49 74/106/49
f 91/127/50 92/128/50 90/129/50
f 92/128/51 95/130/51 94/131/51
f 95/132/52 96/133/52 94/134/52
f 97/135/53 98/136/53 96/133/53
f 98/136/54 101/137/54 100/138/54
f 100/138/55 103/139/55 102/140/55
f 103/141/56 104/142/56 102/143/56
f 105/144/57 106/145/57 104/142/57
f 107/146/58 108/147/58 106/148/58
f 109/149/59 110/150/59 108/147/59
f 111/151/60 112/152/60 110/150/60
f 112/152/61 115/153/61 114/154/61
f 115/155/62 116/156/62 114/157/62
f 117/158/63 90/129/63 116/156/63
f 27/30/64 90/159/64 1/18/64
f 3/16/65 90/159/65 92/160/65
f 5/12/66 92/160/66 94/161/66
f 7/10/67 94/161/67 96/162/67
f 9/27/68 96/162/68 98/163/68
f 9/27/69 100/164/69 11/22/69
f 11/22/70 102/165/70 13/32/70
f 13/32/71 104/166/71 15/15/71
f 17/13/72 104/166/72 106/167/72
f 19/6/73 106/167/73 108/168/73
f 21/4/74 108/168/74 110/169/74
f 21/4/75 112/170/75 23/25/75
f 23/25/76 114/171/76 25/19/76
f 25/19/77 116/172/77 27/30/77
f 6/173/1 4/174/1 2/175/1
f 2/175/1 28/176/1 26/1/1
f 26/1/1 24/177/1 22/178/1
f 22/178/1 20/179/1 18/2/1
f 18/2/1 16/180/1 14/181/1
f 14/181/1 12/182/1 10/3/1
f 10/3/1 8/183/1 6/173/1
f 6/173/1 2/175/1 26/1/1
f 26/1/1 22/178/1 18/2/1
f 18/2/1 14/181/1 10/3/1
f 10/3/1 6/173/1 26/1/1
f 21/4/1 39/26/1 38/5/1
f 77/7/78 45/184/78 73/8/78
f 7/10/1 32/28/1 31/11/1
f 17/13/1 37/29/1 36/14/1
f 3/16/1 30/31/1 29/17/1
f 25/19/79 27/30/79 42/20/79
f 11/22/1 13/32/1 35/23/1
f 23/25/1 40/33/1 39/26/1
f 9/27/1 33/34/1 32/28/1
f 19/6/1 38/5/1 37/29/1
f 27/30/1 1/18/1 29/17/1
f 5/12/1 31/11/1 30/31/1
f 13/32/1 15/15/1 36/14/1
f 23/25/80 25/19/80 41/21/80
f 9/27/1 11/22/1 34/24/1
f 48/37/81 75/185/81 73/35/81
f 73/35/82 45/186/82 46/36/82
f 46/36/37 47/187/37 48/37/37
f 78/38/83 53/45/83 52/39/83
f 79/41/84 46/47/84 45/42/84
f 80/44/7 54/49/7 53/45/7
f 79/41/8 81/50/8 47/46/8
f 80/44/85 82/188/85 55/48/85
f 81/50/86 83/189/86 48/51/86
f 88/52/87 84/58/87 56/53/87
f 83/57/88 65/190/88 67/55/88
f 67/55/89 49/61/89 75/56/89
f 75/56/90 48/191/90 83/57/90
f 84/58/91 85/65/91 43/59/91
f 67/55/92 69/63/92 50/60/92
f 70/62/93 51/68/93 50/60/93
f 86/64/94 44/95/94 43/59/94
f 51/68/95 70/62/95 60/66/95
f 60/66/96 87/192/96 52/67/96
f 52/67/97 76/193/97 51/68/97
f 37/29/98 38/5/98 60/69/98
f 29/71/19 30/194/19 58/72/19
f 36/74/99 37/195/99 70/75/99
f 36/74/100 69/76/100 67/77/100
f 42/79/22 29/71/22 68/73/22
f 34/24/101 35/23/101 67/81/101
f 41/21/102 42/20/102 66/83/102
f 72/84/103 64/86/103 41/21/103
f 33/34/104 34/24/104 65/82/104
f 40/33/105 41/21/105 64/86/105
f 33/34/27 63/85/27 61/88/27
f 40/33/28 62/87/28 59/89/28
f 32/28/106 61/88/106 57/90/106
f 39/26/107 59/89/107 60/69/107
f 58/92/108 30/31/108 31/11/108
f 31/11/109 57/90/109 74/91/109
f 82/93/110 88/52/110 71/54/110
f 89/9/111 73/8/111 44/95/111
f 55/98/112 71/100/112 76/96/112
f 76/96/113 52/196/113 53/97/113
f 53/97/37 54/197/37 55/98/37
f 51/99/35 76/96/35 71/100/35
f 73/35/36 75/185/36 49/102/36
f 56/101/37 43/105/37 50/104/37
f 44/103/37 49/102/37 50/104/37
f 74/106/114 89/126/114 86/107/114
f 64/109/115 72/116/115 88/110/115
f 58/108/116 86/107/116 85/112/116
f 66/114/117 68/113/117 85/112/117
f 72/116/118 66/114/118 84/115/118
f 63/85/119 65/82/119 83/117/119
f 62/87/120 64/86/120 82/119/120
f 63/85/45 81/118/45 79/121/45
f 59/89/46 62/87/46 80/120/46
f 61/88/121 79/121/121 77/123/121
f 59/89/122 78/122/122 87/124/122
f 57/125/123 77/198/123 89/126/123
f 91/127/50 93/199/50 92/128/50
f 92/128/51 93/199/51 95/130/51
f 95/132/52 97/135/52 96/133/52
f 97/135/53 99/200/53 98/136/53
f 98/136/54 99/200/54 101/137/54
f 100/138/55 101/137/55 103/139/55
f 103/141/56 105/144/56 104/142/56
f 105/144/57 107/201/57 106/145/57
f 107/146/58 109/149/58 108/147/58
f 109/149/59 111/151/59 110/150/59
f 111/151/60 113/202/60 112/152/60
f 112/152/61 113/202/61 115/153/61
f 115/155/62 117/158/62 116/156/62
f 117/158/63 91/127/63 90/129/63
f 27/30/124 116/172/124 90/159/124
f 3/16/125 1/18/125 90/159/125
f 5/12/126 3/16/126 92/160/126
f 7/10/127 5/12/127 94/161/127
f 9/27/68 7/10/68 96/162/68
f 9/27/128 98/163/128 100/164/128
f 11/22/129 100/164/129 102/165/129
f 13/32/130 102/165/130 104/166/130
f 17/13/131 15/15/131 104/166/131
f 19/6/132 17/13/132 106/167/132
f 21/4/133 19/6/133 108/168/133
f 21/4/75 110/169/75 112/170/75
f 23/25/134 112/170/134 114/171/134
f 25/19/135 114/171/135 116/172/135
