# Blender 4.3.2
# www.blender.org
mtllib Support Beam Broken.mtl
o Support_Beam_Broken
v 2.000000 2.800000 -0.200000
v 2.000000 -1.000000 -0.200000
v 2.000000 2.800000 0.200000
v 2.000000 -1.000000 0.200000
v -2.000000 2.800000 -0.200000
v -2.000000 -1.000000 -0.200000
v -2.000000 2.800000 0.200000
v -2.000000 -1.000000 0.200000
v 2.000000 2.500000 -0.200000
v -2.000000 2.500000 0.200000
v 2.000000 2.500000 0.200000
v -2.000000 2.500000 -0.200000
v -1.700000 -1.000000 -0.200000
v -1.700000 2.800000 0.200000
v -1.700000 -1.000000 0.200000
v -1.700000 2.800000 -0.200000
v -1.700000 2.500000 -0.200000
v -1.700000 2.500000 0.200000
v 1.700000 -1.000000 0.200000
v 1.700000 2.800000 -0.200000
v 1.700000 2.500000 -0.200000
v 1.700000 -1.000000 -0.200000
v 1.700000 2.800000 0.200000
v 1.700000 2.500000 0.200000
v -1.100000 2.800000 0.200000
v -1.100000 2.500000 0.200000
v -1.100000 2.800000 -0.200000
v -1.100000 2.500000 -0.200000
v 1.100000 2.800000 -0.200000
v 1.100000 2.500000 -0.200000
v 1.100000 2.800000 0.200000
v 1.100000 2.500000 0.200000
v 0.800000 2.800000 0.200000
v 0.800000 2.500000 0.200000
v 0.800000 2.800000 -0.200000
v 0.800000 2.500000 -0.200000
v -0.800000 2.800000 0.200000
v -0.800000 2.500000 0.200000
v -0.800000 2.800000 -0.200000
v -0.800000 2.500000 -0.200000
v -2.000000 1.900000 -0.200000
v -2.000000 1.900000 0.200000
v -1.700000 1.900000 0.200000
v -1.700000 1.900000 -0.200000
v -2.000000 1.600000 -0.200000
v -1.700000 1.600000 0.200000
v -1.700000 1.600000 -0.200000
v -2.000000 1.600000 0.200000
v 2.000000 1.900000 -0.200000
v 2.000000 1.900000 0.200000
v 1.700000 1.900000 0.200000
v 1.700000 1.900000 -0.200000
v 2.000000 1.600000 -0.200000
v 2.000000 1.600000 0.200000
v 1.700000 1.600000 0.200000
v 1.700000 1.600000 -0.200000
v -2.000000 -1.000000 -0.120000
v -2.000000 -1.000000 0.120000
v 2.000000 2.800000 -0.120000
v 2.000000 2.800000 0.120000
v -2.000000 2.800000 0.120000
v -2.000000 2.800000 -0.120000
v 2.000000 -1.000000 0.120000
v 2.000000 -1.000000 -0.120000
v 2.000000 2.500000 -0.120000
v 2.000000 2.500000 0.120000
v -2.000000 2.500000 0.120000
v -2.000000 2.500000 -0.120000
v 1.700000 2.500000 0.120000
v 1.700000 2.500000 -0.120000
v -1.700000 -1.000000 -0.120000
v -1.700000 -1.000000 0.120000
v -1.700000 2.800000 -0.120000
v -1.700000 2.800000 0.120000
v -1.700000 2.500000 0.120000
v -1.700000 2.500000 -0.120000
v 1.700000 2.800000 -0.120000
v 1.700000 2.800000 0.120000
v 1.700000 -1.000000 -0.120000
v 1.700000 -1.000000 0.120000
v -1.100000 2.800000 -0.120000
v -1.100000 2.800000 0.120000
v -1.100000 2.500000 0.120000
v -1.100000 2.500000 -0.120000
v 1.100000 2.500000 0.120000
v 1.100000 2.500000 -0.120000
v 1.100000 2.800000 -0.120000
v 1.100000 2.800000 0.120000
v 0.800000 2.500000 0.120000
v 0.800000 2.500000 -0.120000
v 0.800000 2.800000 -0.120000
v 0.800000 2.800000 0.120000
v -0.800000 2.500000 0.120000
v -0.800000 2.500000 -0.120000
v -0.800000 2.800000 -0.120000
v -0.800000 2.800000 0.120000
v -1.700000 1.900000 -0.120000
v -1.700000 1.900000 0.120000
v -2.000000 1.900000 0.120000
v -2.000000 1.900000 -0.120000
v -2.000000 1.600000 0.120000
v -2.000000 1.600000 -0.120000
v -1.700000 1.600000 -0.120000
v -1.700000 1.600000 0.120000
v 1.700000 1.900000 -0.120000
v 1.700000 1.900000 0.120000
v 2.000000 1.900000 -0.120000
v 2.000000 1.900000 0.120000
v 2.000000 1.600000 -0.120000
v 2.000000 1.600000 0.120000
v 1.700000 1.600000 -0.120000
v 1.700000 1.600000 0.120000
v -1.659211 1.940789 -0.120000
v -1.638816 1.661184 0.120000
v -1.638816 1.661184 -0.120000
v -1.659211 1.940789 0.120000
vn -0.0000 1.0000 -0.0000
vn -0.0000 -0.0000 1.0000
vn -1.0000 -0.0000 -0.0000
vn -0.0000 -1.0000 -0.0000
vn 1.0000 -0.0000 -0.0000
vn -0.0000 -0.0000 -1.0000
vn 0.7071 0.7071 -0.0000
vn -0.7071 0.7071 -0.0000
vn -0.7071 -0.7071 -0.0000
vn 0.7071 -0.7071 -0.0000
vn 0.9974 0.0727 -0.0000
vt 0.017574 0.922921
vt 0.017574 0.997752
vt 0.000923 0.997752
vt 0.000923 0.922921
vt 0.157135 0.074831
vt 0.094693 0.074831
vt 0.094693 0.000000
vt 0.157135 0.000000
vt 0.854436 0.771880
vt 0.854436 0.840566
vt 0.836295 0.840566
vt 0.836295 0.771880
vt 0.259104 0.858933
vt 0.259104 0.921374
vt 0.239149 0.921374
vt 0.239149 0.858933
vt 0.854436 0.690613
vt 0.854436 0.759298
vt 0.836295 0.759298
vt 0.836295 0.690613
vt 0.231014 0.074831
vt 0.168573 0.074831
vt 0.168573 0.000000
vt 0.231014 0.000000
vt 0.715920 0.149663
vt 0.715920 -0.000000
vt 0.778361 -0.000000
vt 0.778361 0.149663
vt 0.403750 0.149663
vt 0.403750 -0.000000
vt 0.420401 -0.000000
vt 0.420401 0.149663
vt 0.498444 0.149663
vt 0.498444 -0.000000
vt 0.515095 -0.000000
vt 0.515095 0.149663
vt 0.789800 0.149663
vt 0.789800 -0.000000
vt 0.852241 -0.000000
vt 0.852241 0.149663
vt 0.259104 0.149663
vt 0.242453 0.149663
vt 0.242453 0.000000
vt 0.259104 0.000000
vt 0.863679 0.149663
vt 0.863679 -0.000000
vt 0.926120 -0.000000
vt 0.926120 0.149663
vt 0.231014 0.997752
vt 0.168573 0.997752
vt 0.168573 0.922921
vt 0.231014 0.922921
vt 0.908859 0.918937
vt 0.908859 0.850252
vt 0.927000 0.850252
vt 0.927000 0.918937
vt 0.157135 0.224494
vt 0.094693 0.224494
vt 0.017574 0.773258
vt 0.000923 0.773258
vt 0.017574 0.000000
vt 0.017574 0.074831
vt 0.000923 0.074831
vt 0.000923 0.000000
vt 0.157135 0.997752
vt 0.094694 0.997752
vt 0.094694 0.922921
vt 0.157135 0.922921
vt 0.937559 0.149663
vt 0.937559 -0.000000
vt 1.000000 -0.000000
vt 1.000000 0.149663
vt 0.593137 0.224494
vt 0.609788 0.224494
vt 0.609788 0.672350
vt 0.593137 0.672350
vt 0.231014 0.224494
vt 0.168573 0.224494
vt 0.637877 0.149663
vt 0.621226 0.149663
vt 0.621226 -0.000000
vt 0.637877 -0.000000
vt 0.168573 0.773258
vt 0.231014 0.773258
vt 0.017574 0.698426
vt 0.000923 0.698426
vt 0.157135 0.299326
vt 0.094693 0.299326
vt 0.259104 0.224494
vt 0.242453 0.224494
vt 0.259104 0.848089
vt 0.242453 0.848089
vt 0.242453 0.698426
vt 0.259104 0.698426
vt 0.094694 0.773258
vt 0.157135 0.773258
vt 0.017574 0.224494
vt 0.000923 0.224494
vt 0.231014 0.299326
vt 0.168573 0.299326
vt 0.231014 0.698426
vt 0.168573 0.698426
vt 0.242453 0.623595
vt 0.259104 0.623595
vt 0.094694 0.698426
vt 0.157135 0.698426
vt 0.017574 0.299326
vt 0.000923 0.299326
vt 0.637877 0.224494
vt 0.621226 0.224494
vt 0.863679 0.224494
vt 0.926120 0.224494
vt 0.789800 0.224494
vt 0.852241 0.224494
vt 0.498444 0.224494
vt 0.515095 0.224494
vt 0.498444 0.672350
vt 0.515095 0.672350
vt 0.789800 0.672349
vt 0.852241 0.672350
vt 0.863679 0.672349
vt 0.926120 0.672350
vt 0.637878 0.672350
vt 0.621227 0.672350
vt 0.593137 -0.000000
vt 0.609788 -0.000000
vt 0.609788 0.149663
vt 0.593137 0.149663
vt 0.937559 0.224494
vt 1.000000 0.224494
vt 0.403750 0.224494
vt 0.420401 0.224494
vt 0.715920 0.224494
vt 0.778361 0.224494
vt 0.715920 0.672349
vt 0.778361 0.672350
vt 0.403750 0.672349
vt 0.420401 0.672349
vt 0.937559 0.672349
vt 1.000000 0.672350
vt 0.526533 0.149663
vt 0.543184 0.149663
vt 0.543184 0.224494
vt 0.526533 0.224494
vt 0.337146 0.672350
vt 0.337146 0.224494
vt 0.353797 0.224494
vt 0.353797 0.672350
vt 0.353797 0.672350
vt 0.403750 0.672350
vt 0.337146 0.149663
vt 0.353797 0.149663
vt 0.526533 -0.000000
vt 0.543184 -0.000000
vt 0.704481 0.672349
vt 0.687830 0.672349
vt 0.687830 0.224494
vt 0.704481 0.224494
vt 0.637877 0.672349
vt 0.431840 0.672349
vt 0.431840 0.224494
vt 0.448491 0.224494
vt 0.448491 0.672349
vt 0.448491 0.672350
vt 0.498444 0.672350
vt 0.431840 0.149663
vt 0.448491 0.149663
vt 0.687830 0.149663
vt 0.704481 0.149663
vt 0.084178 0.299326
vt 0.084178 0.698426
vt 0.067527 0.698426
vt 0.067527 0.299326
vt 0.325708 0.623595
vt 0.309057 0.623595
vt 0.309057 0.224494
vt 0.325708 0.224494
vt 0.084178 0.224494
vt 0.067527 0.224494
vt 0.325708 0.698426
vt 0.309057 0.698426
vt 0.084178 0.074831
vt 0.067527 0.074831
vt 0.325708 0.848089
vt 0.309057 0.848089
vt 0.309057 0.149663
vt 0.325708 0.149663
vt 0.762211 0.898597
vt 0.712259 0.898597
vt 0.712259 0.686941
vt 0.762211 0.686941
vt 0.084178 0.773258
vt 0.067527 0.773258
vt 0.687830 -0.000000
vt 0.704481 -0.000000
vt 0.543184 0.672349
vt 0.526533 0.672349
vt 0.593137 0.672349
vt 0.543184 0.672349
vt 0.084178 0.000000
vt 0.067527 0.000000
vt 0.084178 0.922921
vt 0.067527 0.922921
vt 0.836295 0.918937
vt 0.836295 0.850252
vt 0.854436 0.850252
vt 0.854436 0.918937
vt 0.309057 0.000000
vt 0.325708 0.000000
vt 0.431840 -0.000000
vt 0.448491 -0.000000
vt 0.337146 -0.000000
vt 0.353797 -0.000000
vt 0.927000 0.690613
vt 0.927000 0.759298
vt 0.908859 0.759298
vt 0.908859 0.690613
vt 0.338924 0.858933
vt 0.338924 0.921374
vt 0.318969 0.921374
vt 0.318969 0.858933
vt 0.927000 0.771880
vt 0.927000 0.840566
vt 0.908859 0.840566
vt 0.908859 0.771880
vt 0.084178 0.997752
vt 0.067527 0.997752
vt 0.776784 0.884208
vt 0.826737 0.884208
vt 0.826737 0.898596
vt 0.776784 0.898596
vt 0.575627 0.942180
vt 0.531475 0.995094
vt 0.531475 0.677611
vt 0.575627 0.730525
vt 0.461623 0.996939
vt 0.411670 0.996939
vt 0.411670 0.679456
vt 0.461623 0.679456
vt 0.649537 0.702712
vt 0.697370 0.742848
vt 0.696834 0.937769
vt 0.648733 0.995094
vt 0.520036 0.732370
vt 0.475884 0.679456
vt 0.475884 0.717642
vt 0.520036 0.761408
vt 0.588737 0.702712
vt 0.636570 0.742848
vt 0.636533 0.756100
vt 0.588682 0.722589
vt 0.400232 0.996939
vt 0.350279 0.996939
vt 0.350279 0.975356
vt 0.400232 0.975356
vt 0.289102 0.990769
vt 0.239149 0.990769
vt 0.239149 0.931336
vt 0.289102 0.931336
s 0
usemtl Material
f 74/1/1 61/2/1 7/3/1 14/4/1
f 18/5/2 14/6/2 7/7/2 10/8/2
f 68/9/3 62/10/3 5/11/3 12/12/3
f 80/13/4 63/14/4 4/15/4 19/16/4
f 66/17/5 60/18/5 3/19/5 11/20/5
f 21/21/6 20/22/6 1/23/6 9/24/6
f 52/25/6 21/26/6 9/27/6 49/28/6
f 108/29/5 66/30/5 11/31/5 50/32/5
f 100/33/3 68/34/3 12/35/3 41/36/3
f 43/37/2 18/38/2 10/39/2 42/40/2
f 83/41/4 26/42/4 18/43/4 75/44/4
f 41/45/6 12/46/6 17/47/6 44/48/6
f 12/49/6 5/50/6 16/51/6 17/52/6
f 58/53/4 72/54/4 15/55/4 8/56/4
f 26/57/2 25/58/2 14/6/2 18/5/2
f 82/59/1 74/1/1 14/4/1 25/60/1
f 60/61/1 78/62/1 23/63/1 3/64/1
f 11/65/2 3/66/2 23/67/2 24/68/2
f 50/69/2 11/70/2 24/71/2 51/72/2
f 111/73/3 56/74/3 22/75/3 79/76/3
f 30/77/6 29/78/6 20/22/6 21/21/6
f 97/79/5 44/80/5 17/81/5 76/82/5
f 17/52/6 16/51/6 27/83/6 28/84/6
f 96/85/1 82/59/1 25/60/1 37/86/1
f 38/87/2 37/88/2 25/58/2 26/57/2
f 93/89/4 38/90/4 26/42/4 83/41/4
f 69/91/4 24/92/4 32/93/4 85/94/4
f 24/68/2 23/67/2 31/95/2 32/96/2
f 78/62/1 88/97/1 31/98/1 23/63/1
f 36/99/6 35/100/6 29/78/6 30/77/6
f 40/101/6 39/102/6 35/100/6 36/99/6
f 85/94/4 32/93/4 34/103/4 89/104/4
f 32/96/2 31/95/2 33/105/2 34/106/2
f 88/97/1 92/107/1 33/108/1 31/98/1
f 28/84/6 27/83/6 39/102/6 40/101/6
f 89/104/4 34/103/4 38/90/4 93/89/4
f 34/106/2 33/105/2 37/88/2 38/87/2
f 92/107/1 96/85/1 37/86/1 33/108/1
f 103/109/5 47/110/5 44/80/5 97/79/5
f 45/111/6 41/45/6 44/48/6 47/112/6
f 46/113/2 43/37/2 42/40/2 48/114/2
f 102/115/3 100/33/3 41/36/3 45/116/3
f 57/117/3 102/115/3 45/116/3 6/118/3
f 15/119/2 46/113/2 48/114/2 8/120/2
f 6/121/6 45/111/6 47/112/6 13/122/6
f 71/123/5 13/124/5 47/110/5 103/109/5
f 70/125/3 21/126/3 52/127/3 105/128/3
f 54/129/2 50/69/2 51/72/2 55/130/2
f 110/131/5 108/29/5 50/32/5 54/132/5
f 56/133/6 52/25/6 49/28/6 53/134/6
f 22/135/6 56/133/6 53/134/6 2/136/6
f 63/137/5 110/131/5 54/132/5 4/138/5
f 4/139/2 54/129/2 55/130/2 19/140/2
f 105/128/3 52/127/3 56/74/3 111/73/3
f 51/141/3 106/142/3 112/143/3 55/144/3
f 2/145/5 53/146/5 109/147/5 64/148/5
f 64/149/5 109/147/5 110/131/5 63/150/5
f 53/146/5 49/151/5 107/152/5 109/147/5
f 109/147/5 107/152/5 108/29/5 110/131/5
f 24/153/3 69/154/3 106/142/3 51/141/3
f 69/154/3 70/125/3 105/128/3 106/142/3
f 15/155/5 72/156/5 104/157/5 46/158/5
f 72/156/5 71/159/5 103/109/5 104/157/5
f 8/160/3 48/161/3 101/162/3 58/163/3
f 58/164/3 101/162/3 102/115/3 57/165/3
f 48/161/3 42/166/3 99/167/3 101/162/3
f 101/162/3 99/167/3 100/33/3 102/115/3
f 46/158/5 104/157/5 98/168/5 43/169/5
f 35/170/1 39/171/1 95/172/1 91/173/1
f 91/173/1 95/172/1 96/85/1 92/107/1
f 36/174/4 90/175/4 94/176/4 40/177/4
f 90/175/4 89/104/4 93/89/4 94/176/4
f 29/178/1 35/170/1 91/173/1 87/179/1
f 87/179/1 91/173/1 92/107/1 88/97/1
f 30/180/4 86/181/4 90/175/4 36/174/4
f 20/182/1 29/178/1 87/179/1 77/183/1
f 77/183/1 87/179/1 88/97/1 78/62/1
f 21/184/4 70/185/4 86/181/4 30/180/4
f 70/185/4 69/91/4 85/94/4 86/181/4
f 40/177/4 94/176/4 84/186/4 28/187/4
f 106/188/7 105/189/7 86/190/7 85/191/7
f 39/171/1 27/192/1 81/193/1 95/172/1
f 95/172/1 81/193/1 82/59/1 96/85/1
f 43/169/5 98/168/5 75/194/5 18/195/5
f 98/168/5 97/79/5 76/82/5 75/194/5
f 55/144/3 112/143/3 80/196/3 19/197/3
f 112/143/3 111/73/3 79/198/3 80/199/3
f 1/200/1 20/182/1 77/183/1 59/201/1
f 59/201/1 77/183/1 78/62/1 60/61/1
f 27/192/1 16/202/1 73/203/1 81/193/1
f 81/193/1 73/203/1 74/1/1 82/59/1
f 6/204/4 13/205/4 71/206/4 57/207/4
f 57/207/4 71/206/4 72/54/4 58/53/4
f 28/187/4 84/186/4 76/208/4 17/209/4
f 84/186/4 83/41/4 75/44/4 76/208/4
f 42/166/3 10/210/3 67/211/3 99/167/3
f 99/167/3 67/211/3 68/34/3 100/33/3
f 49/151/5 9/212/5 65/213/5 107/152/5
f 107/152/5 65/213/5 66/30/5 108/29/5
f 9/214/5 1/215/5 59/216/5 65/217/5
f 65/217/5 59/216/5 60/18/5 66/17/5
f 22/218/4 2/219/4 64/220/4 79/221/4
f 79/221/4 64/220/4 63/14/4 80/13/4
f 10/222/3 7/223/3 61/224/3 67/225/3
f 67/225/3 61/224/3 62/10/3 68/9/3
f 16/202/1 5/226/1 62/227/1 73/203/1
f 73/203/1 62/227/1 61/2/1 74/1/1
f 116/228/8 113/229/8 97/230/8 98/231/8
f 105/232/6 111/233/6 90/234/6 86/235/6
f 111/236/9 112/237/9 89/238/9 90/239/9
f 112/240/2 106/241/2 85/242/2 89/243/2
f 98/244/2 104/245/2 114/246/2 116/247/2
f 103/248/6 97/249/6 113/250/6 115/251/6
f 104/252/10 103/253/10 115/254/10 114/255/10
f 84/186/4 94/176/4 93/89/4 83/41/4
f 114/256/11 115/257/11 113/258/11 116/259/11
