# Blender 4.3.2
# www.blender.org
mtllib TransformGizmo.mtl
o Translation_Gizmo
v 0.000000 0.000000 0.050000
v 0.000000 0.050000 0.050000
v -0.035355 0.035355 0.050000
v -0.050000 0.000000 0.050000
v -0.035355 -0.035355 0.050000
v 0.000000 -0.050000 0.050000
v 0.035355 -0.035355 0.050000
v 0.000000 0.000000 2.150000
v 0.050000 0.000000 0.050000
v 0.035355 0.035355 0.050000
v 0.000000 0.050000 -0.000000
v 0.000000 0.050000 0.050000
v 0.000000 2.150000 -0.000000
v -0.035355 0.050000 0.035355
v -0.050000 0.050000 -0.000000
v -0.035355 0.050000 -0.035355
v 0.000000 0.050000 -0.050000
v 0.035355 0.050000 -0.035355
v 0.050000 0.050000 -0.000000
v 0.035355 0.050000 0.035355
v 0.050000 0.000000 0.000000
v 2.150000 -0.000000 0.000000
v 0.050000 0.050000 -0.000000
v 0.050000 0.035355 -0.035355
v 0.050000 -0.000000 -0.050000
v 0.050000 -0.035355 -0.035355
v 0.050000 -0.050000 0.000000
v 0.050000 -0.035355 0.035355
v 0.050000 0.000000 0.050000
v 0.050000 0.035355 0.035355
v 0.000000 -0.000000 -0.150000
v -0.108541 -0.078859 -0.067083
v 0.041458 -0.127597 -0.067083
v 0.134164 -0.000000 -0.067082
v 0.041458 0.127597 -0.067083
v -0.108541 0.078859 -0.067083
v -0.041458 -0.127597 0.067083
v 0.108541 -0.078859 0.067083
v 0.108541 0.078859 0.067083
v -0.041458 0.127597 0.067083
v -0.134164 0.000000 0.067082
v 0.000000 0.000000 0.150000
v 0.024368 -0.074999 -0.127598
v -0.063798 -0.046352 -0.127598
v -0.039430 -0.121352 -0.078861
v -0.127597 -0.000000 -0.078860
v -0.063798 0.046352 -0.127598
v 0.078859 -0.000000 -0.127598
v 0.103228 -0.075000 -0.078860
v 0.024368 0.074999 -0.127598
v 0.103228 0.075000 -0.078860
v -0.039430 0.121352 -0.078861
v -0.142659 -0.046352 0.000000
v -0.142659 0.046352 -0.000000
v 0.000000 -0.150000 0.000000
v -0.088168 -0.121353 0.000000
v 0.142659 -0.046352 0.000000
v 0.088168 -0.121353 0.000000
v 0.088168 0.121352 -0.000000
v 0.142659 0.046352 -0.000000
v -0.088168 0.121352 -0.000000
v 0.000000 0.150000 -0.000000
v -0.103228 -0.075000 0.078860
v 0.039430 -0.121352 0.078861
v 0.127597 0.000000 0.078860
v 0.039430 0.121352 0.078861
v -0.103228 0.075000 0.078860
v -0.024368 -0.074999 0.127598
v -0.078859 0.000000 0.127598
v 0.063798 -0.046352 0.127598
v 0.063798 0.046352 0.127598
v -0.024368 0.074999 0.127598
v -0.000000 0.100000 1.730000
v -0.070710 0.070710 1.730000
v -0.100000 0.000000 1.730000
v -0.070710 -0.070710 1.730000
v -0.000000 -0.100000 1.730000
v 0.070710 -0.070710 1.730000
v 0.100000 0.000000 1.730000
v 0.070710 0.070710 1.730000
v 1.730000 0.100000 -0.000000
v 1.730000 0.070710 -0.070710
v 1.730000 -0.000000 -0.100000
v 1.730000 -0.070710 -0.070710
v 1.730000 -0.100000 0.000000
v 1.730000 -0.070710 0.070710
v 1.730000 0.000000 0.100000
v 1.730000 0.070710 0.070710
v 0.000000 1.730000 0.100000
v -0.070710 1.730000 0.070710
v -0.100000 1.730000 -0.000000
v -0.070710 1.730000 -0.070710
v 0.000000 1.730000 -0.100000
v 0.070710 1.730000 -0.070710
v 0.100000 1.730000 -0.000000
v 0.070710 1.730000 0.070710
v 0.000000 0.050000 1.730000
v -0.035355 0.035355 1.730000
v -0.050000 0.000000 1.730000
v -0.035355 -0.035355 1.730000
v 0.000000 -0.050000 1.730000
v 0.035355 -0.035355 1.730000
v 0.050000 0.000000 1.730000
v 0.035355 0.035355 1.730000
v 0.000000 1.730000 0.050000
v -0.035355 1.730000 0.035355
v -0.050000 1.730000 -0.000000
v -0.035355 1.730000 -0.035355
v 0.000000 1.730000 -0.050000
v 0.035355 1.730000 -0.035355
v 0.050000 1.730000 -0.000000
v 0.035355 1.730000 0.035355
v 1.730000 0.050000 -0.000000
v 1.730000 0.035355 -0.035355
v 1.730000 -0.000000 -0.050000
v 1.730000 -0.035355 -0.035355
v 1.730000 -0.050000 0.000000
v 1.730000 -0.035355 0.035355
v 1.730000 0.000000 0.050000
v 1.730000 0.035355 0.035355
vn -0.0000 -0.0000 -1.0000
vn -0.9728 -0.0000 0.2316
vn -0.0000 -0.0000 1.0000
vn -0.6879 0.6879 0.2316
vn -0.6879 -0.6879 0.2316
vn -0.0000 -0.9728 0.2316
vn 0.6879 -0.6879 0.2316
vn 0.9728 -0.0000 0.2316
vn 0.6879 0.6879 0.2316
vn -0.0000 0.7071 0.7071
vn -0.0000 0.9728 0.2316
vn -0.0000 -1.0000 -0.0000
vn 0.7071 -0.0000 0.7071
vn -0.7071 -0.0000 -0.7071
vn -1.0000 -0.0000 -0.0000
vn 0.7071 -0.0000 -0.7071
vn 1.0000 -0.0000 -0.0000
vn -0.7071 -0.0000 0.7071
vn -0.0000 1.0000 -0.0000
vn -0.0000 0.7071 -0.7071
vn -0.0000 -0.7071 -0.7071
vn -0.0000 -0.7071 0.7071
vn 0.1625 -0.5000 -0.8507
vn -0.4253 -0.3090 -0.8507
vn -0.7236 -0.5257 -0.4472
vn -0.8506 -0.0000 -0.5257
vn 0.5257 -0.0000 -0.8507
vn 0.1625 0.5000 -0.8507
vn -0.4253 0.3090 -0.8507
vn -0.9511 -0.3090 -0.0000
vn 0.2764 -0.8506 -0.4472
vn -0.2629 -0.8090 -0.5257
vn 0.8944 -0.0000 -0.4472
vn 0.9511 -0.3090 -0.0000
vn 0.6882 -0.5000 -0.5257
vn 0.2764 0.8506 -0.4472
vn 0.5878 0.8090 -0.0000
vn 0.6882 0.5000 -0.5257
vn -0.7236 0.5257 -0.4472
vn -0.5878 0.8090 -0.0000
vn -0.2629 0.8090 -0.5257
vn -0.5878 -0.8090 -0.0000
vn 0.5878 -0.8090 -0.0000
vn 0.9511 0.3090 -0.0000
vn -0.9511 0.3090 -0.0000
vn -0.2764 -0.8506 0.4472
vn -0.1625 -0.5000 0.8507
vn -0.6882 -0.5000 0.5257
vn 0.7236 -0.5257 0.4472
vn 0.4253 -0.3090 0.8507
vn 0.2629 -0.8090 0.5257
vn 0.7236 0.5257 0.4472
vn 0.4253 0.3090 0.8507
vn 0.8506 -0.0000 0.5257
vn -0.2764 0.8506 0.4472
vn -0.1625 0.5000 0.8507
vn 0.2629 0.8090 0.5257
vn -0.8944 -0.0000 0.4472
vn -0.5257 -0.0000 0.8507
vn -0.6882 0.5000 0.5257
vn 0.2316 -0.0000 0.9728
vn 0.2316 -0.6879 0.6879
vn 0.2316 -0.9728 -0.0000
vn 0.2316 -0.6879 -0.6879
vn 0.2316 -0.0000 -0.9728
vn 0.2316 0.6879 -0.6879
vn 0.2316 0.9728 -0.0000
vn 0.2316 0.6879 0.6879
vn -0.6879 0.2316 0.6879
vn -0.0000 0.2316 0.9728
vn -0.9728 0.2316 -0.0000
vn 0.6879 0.2316 0.6879
vn 0.9728 0.2316 -0.0000
vn 0.6879 0.2316 -0.6879
vn -0.0000 0.2316 -0.9728
vn -0.6879 0.2316 -0.6879
vn -0.7071 0.7071 -0.0000
vn -0.7071 -0.7071 -0.0000
vn 0.7071 -0.7071 -0.0000
vn 0.7071 0.7071 -0.0000
vt 0.750000 0.750000
vt 0.750000 0.750000
vt 0.750000 0.250000
vt 0.250000 0.750000
vt 0.250000 0.750000
vt 0.250000 0.250001
s 1
usemtl Material.001
f 1/1/1 3/1/1 2/1/1
f 75/2/2 8/1/3 74/1/4
f 1/1/1 4/1/1 3/1/1
f 76/2/5 8/1/3 75/2/2
f 1/1/1 5/1/1 4/1/1
f 77/1/6 8/1/3 76/2/5
f 1/1/1 6/1/1 5/1/1
f 78/1/7 8/1/3 77/1/6
f 1/1/1 7/1/1 6/1/1
f 79/1/8 8/1/3 78/1/7
f 1/1/1 9/1/1 7/1/1
f 80/1/9 8/1/3 79/1/8
f 1/1/1 10/1/1 9/1/1
f 119/3/3 120/3/10 30/3/10 29/3/3
f 1/1/1 2/1/1 10/1/1
f 74/1/4 8/1/3 73/1/11
f 11/4/12 12/4/12 14/4/12
f 105/5/3 12/4/3 20/4/13 112/4/13
f 11/4/12 14/4/12 15/4/12
f 108/4/14 16/4/14 15/4/15 107/5/15
f 11/4/12 15/4/12 16/4/12
f 109/4/1 17/4/1 16/4/14 108/4/14
f 11/4/12 16/4/12 17/4/12
f 110/5/16 18/4/16 17/4/1 109/4/1
f 11/4/12 17/4/12 18/4/12
f 111/5/17 19/4/17 18/4/16 110/5/16
f 11/4/12 18/4/12 19/4/12
f 112/4/13 20/4/13 19/4/17 111/5/17
f 11/4/12 19/4/12 20/4/12
f 11/4/12 20/4/12 12/4/12
f 107/5/15 15/4/15 14/4/18 106/5/18
f 21/3/15 23/3/15 24/3/15
f 120/3/10 113/3/19 23/3/19 30/3/10
f 21/3/15 24/3/15 25/3/15
f 113/3/19 114/3/20 24/3/20 23/3/19
f 21/3/15 25/3/15 26/3/15
f 114/3/20 115/3/1 25/3/1 24/3/20
f 21/3/15 26/3/15 27/3/15
f 116/3/21 26/3/21 25/3/1 115/3/1
f 21/3/15 27/3/15 28/3/15
f 116/3/21 117/3/12 27/3/12 26/3/21
f 21/3/15 28/3/15 29/3/15
f 117/3/12 118/3/22 28/3/22 27/3/12
f 21/3/15 29/3/15 30/3/15
f 118/3/22 119/3/3 29/3/3 28/3/22
f 21/3/15 30/3/15 23/3/15
f 106/5/18 14/4/18 12/4/3 105/5/3
f 31/6/1 43/6/23 44/6/24
f 32/6/25 46/6/26 44/6/24
f 31/6/1 48/6/27 43/6/23
f 31/6/1 50/6/28 48/6/27
f 31/6/1 47/6/29 50/6/28
f 32/6/25 53/6/30 46/6/26
f 33/6/31 55/6/12 45/6/32
f 34/6/33 57/6/34 49/6/35
f 35/6/36 59/6/37 51/6/38
f 36/6/39 61/6/40 52/6/41
f 32/6/25 56/6/42 53/6/30
f 33/6/31 58/6/43 55/6/12
f 34/6/33 60/6/44 57/6/34
f 35/6/36 62/6/19 59/6/37
f 36/6/39 54/6/45 61/6/40
f 37/6/46 68/6/47 63/6/48
f 38/6/49 70/6/50 64/6/51
f 39/6/52 71/6/53 65/6/54
f 40/6/55 72/6/56 66/6/57
f 41/6/58 69/6/59 67/6/60
f 69/6/59 42/6/3 72/6/56
f 69/6/59 72/6/56 67/6/60
f 67/6/60 72/6/56 40/6/55
f 72/6/56 42/6/3 71/6/53
f 72/6/56 71/6/53 66/6/57
f 66/6/57 71/6/53 39/6/52
f 71/6/53 42/6/3 70/6/50
f 71/6/53 70/6/50 65/6/54
f 65/6/54 70/6/50 38/6/49
f 70/6/50 42/6/3 68/6/47
f 70/6/50 68/6/47 64/6/51
f 64/6/51 68/6/47 37/6/46
f 68/6/47 42/6/3 69/6/59
f 68/6/47 69/6/59 63/6/48
f 63/6/48 69/6/59 41/6/58
f 54/6/45 41/6/58 67/6/60
f 54/6/45 67/6/60 61/6/40
f 61/6/40 67/6/60 40/6/55
f 62/6/19 40/6/55 66/6/57
f 62/6/19 66/6/57 59/6/37
f 59/6/37 66/6/57 39/6/52
f 60/6/44 39/6/52 65/6/54
f 60/6/44 65/6/54 57/6/34
f 57/6/34 65/6/54 38/6/49
f 58/6/43 38/6/49 64/6/51
f 58/6/43 64/6/51 55/6/12
f 55/6/12 64/6/51 37/6/46
f 56/6/42 37/6/46 63/6/48
f 56/6/42 63/6/48 53/6/30
f 53/6/30 63/6/48 41/6/58
f 61/6/40 40/6/55 62/6/19
f 61/6/40 62/6/19 52/6/41
f 52/6/41 62/6/19 35/6/36
f 59/6/37 39/6/52 60/6/44
f 59/6/37 60/6/44 51/6/38
f 51/6/38 60/6/44 34/6/33
f 57/6/34 38/6/49 58/6/43
f 57/6/34 58/6/43 49/6/35
f 49/6/35 58/6/43 33/6/31
f 55/6/12 37/6/46 56/6/42
f 55/6/12 56/6/42 45/6/32
f 45/6/32 56/6/42 32/6/25
f 53/6/30 41/6/58 54/6/45
f 53/6/30 54/6/45 46/6/26
f 46/6/26 54/6/45 36/6/39
f 47/6/29 36/6/39 52/6/41
f 47/6/29 52/6/41 50/6/28
f 50/6/28 52/6/41 35/6/36
f 50/6/28 35/6/36 51/6/38
f 50/6/28 51/6/38 48/6/27
f 48/6/27 51/6/38 34/6/33
f 48/6/27 34/6/33 49/6/35
f 48/6/27 49/6/35 43/6/23
f 43/6/23 49/6/35 33/6/31
f 46/6/26 36/6/39 47/6/29
f 46/6/26 47/6/29 44/6/24
f 44/6/24 47/6/29 31/6/1
f 43/6/23 33/6/31 45/6/32
f 43/6/23 45/6/32 44/6/24
f 44/6/24 45/6/32 32/6/25
f 80/1/9 73/1/11 8/1/3
f 104/1/1 97/1/1 73/1/1 80/1/1
f 98/2/1 74/1/1 73/1/1 97/1/1
f 104/1/1 80/1/1 79/1/1 103/1/1
f 103/1/1 79/1/1 78/1/1 102/1/1
f 102/1/1 78/1/1 77/1/1 101/1/1
f 101/1/1 77/1/1 76/2/1 100/1/1
f 100/1/1 76/2/1 75/2/1 99/1/1
f 99/1/1 75/2/1 74/1/1 98/2/1
f 22/3/17 87/3/61 86/3/62
f 22/3/17 86/3/62 85/3/63
f 22/3/17 85/3/63 84/3/64
f 22/3/17 84/3/64 83/3/65
f 22/3/17 83/3/65 82/3/66
f 22/3/17 82/3/66 81/3/67
f 22/3/17 81/3/67 88/3/68
f 22/3/17 88/3/68 87/3/61
f 13/4/19 90/4/69 89/4/70
f 13/4/19 91/4/71 90/4/69
f 13/4/19 96/5/72 95/4/73
f 13/4/19 95/4/73 94/4/74
f 13/4/19 94/4/74 93/4/75
f 13/4/19 93/4/75 92/5/76
f 13/4/19 92/5/76 91/4/71
f 13/4/19 89/4/70 96/5/72
f 4/1/15 99/1/15 98/2/77 3/1/77
f 5/1/78 100/1/78 99/1/15 4/1/15
f 6/1/12 101/1/12 100/1/78 5/1/78
f 7/1/79 102/1/79 101/1/12 6/1/12
f 9/1/17 103/1/17 102/1/79 7/1/79
f 10/1/80 104/1/80 103/1/17 9/1/17
f 3/1/77 98/2/77 97/1/19 2/1/19
f 10/1/80 2/1/19 97/1/19 104/1/80
f 90/4/12 106/5/12 105/5/12 89/4/12
f 91/4/12 107/5/12 106/5/12 90/4/12
f 96/5/12 112/4/12 111/5/12 95/4/12
f 95/4/12 111/5/12 110/5/12 94/4/12
f 94/4/12 110/5/12 109/4/12 93/4/12
f 93/4/12 109/4/12 108/4/12 92/5/12
f 92/5/12 108/4/12 107/5/12 91/4/12
f 89/4/12 105/5/12 112/4/12 96/5/12
f 86/3/15 87/3/15 119/3/15 118/3/15
f 85/3/15 86/3/15 118/3/15 117/3/15
f 84/3/15 85/3/15 117/3/15 116/3/15
f 84/3/15 116/3/15 115/3/15 83/3/15
f 82/3/15 83/3/15 115/3/15 114/3/15
f 81/3/15 82/3/15 114/3/15 113/3/15
f 88/3/15 81/3/15 113/3/15 120/3/15
f 87/3/15 88/3/15 120/3/15 119/3/15
